Merriweather-BoldDisplay.ufo
<glyph name="exclam" format="2">
  <advance width="461.7458563535912"/>
  <unicode hex="0021"/>
  <outline>
    <contour>
      <point x="388.2099447513812" y="1784.9723756906078" type="line"/>
      <point x="73.53591160220995" y="1784.9723756906078" type="line"/>
      <point x="205.80662983425415" y="429.2044198895028" type="line"/>
      <point x="258.8729281767956" y="429.2044198895028" type="line"/>
    </contour>
    <contour>
      <point x="83.48618784530387" y="117.49171270718233" type="curve" smooth="yes"/>
      <point x="83.48618784530387" y="37.88397790055249"/>
      <point x="145.92265193370167" y="-17.65745856353591"/>
      <point x="217.35911602209944" y="-17.65745856353591" type="curve" smooth="yes"/>
      <point x="311.6132596685083" y="-17.65745856353591"/>
      <point x="378.98342541436466" y="37.92265193370166"/>
      <point x="378.98342541436466" y="131.32044198895028" type="curve" smooth="yes"/>
      <point x="378.98342541436466" y="200.75690607734808"/>
      <point x="331.9944751381216" y="266.4696132596685"/>
      <point x="242.04419889502762" y="266.4696132596685" type="curve" smooth="yes"/>
      <point x="154.75138121546962" y="266.4696132596685"/>
      <point x="83.48618784530387" y="205.2707182320442"/>
    </contour>
  </outline>
</glyph>
<glyph name="quotedbl" format="2">
  <advance width="1064.8121546961324"/>
  <unicode hex="0022"/>
  <outline>
    <contour>
      <point x="434.0718232044199" y="1671.5027624309391" type="line"/>
      <point x="203.39226519337018" y="1671.5027624309391" type="line"/>
      <point x="294.646408839779" y="973.8066298342542" type="line"/>
      <point x="340.81767955801104" y="973.8066298342542" type="line"/>
    </contour>
    <contour>
      <point x="864.867403314917" y="1671.5027624309391" type="line"/>
      <point x="634.4640883977901" y="1671.5027624309391" type="line"/>
      <point x="725.4419889502763" y="973.8066298342542" type="line"/>
      <point x="771.889502762431" y="973.8066298342542" type="line"/>
    </contour>
  </outline>
</glyph>
<glyph name="numbersign" format="2">
  <advance width="1317.292817679558"/>
  <unicode hex="0023"/>
  <outline>
    <contour>
      <point x="355.2651933701657" y="413.82872928176795" type="line"/>
      <point x="291.2651933701657" y="0.8287292817679563" type="line"/>
      <point x="359.2651933701658" y="0.8287292817679563" type="line"/>
      <point x="424.2651933701658" y="413.82872928176795" type="line"/>
      <point x="772.0276243093923" y="413.82872928176795" type="line"/>
      <point x="709.0276243093923" y="0.8287292817679563" type="line"/>
      <point x="777.0276243093923" y="0.8287292817679563" type="line"/>
      <point x="840.0276243093923" y="413.82872928176795" type="line"/>
      <point x="1102.5027624309391" y="413.82872928176795" type="line"/>
      <point x="1127.7403314917126" y="597.4917127071823" type="line"/>
      <point x="869.2651933701658" y="597.4917127071823" type="line"/>
      <point x="925.0662983425415" y="927.1657458563536" type="line"/>
      <point x="1173.2651933701657" y="927.1657458563536" type="line"/>
      <point x="1198.5027624309391" y="1108.828729281768" type="line"/>
      <point x="951.0276243093923" y="1108.828729281768" type="line"/>
      <point x="1021.0276243093923" y="1539.828729281768" type="line"/>
      <point x="952.0276243093923" y="1539.828729281768" type="line"/>
      <point x="882.0276243093923" y="1108.828729281768" type="line"/>
      <point x="535.2651933701658" y="1108.828729281768" type="line"/>
      <point x="603.2651933701658" y="1539.828729281768" type="line"/>
      <point x="535.2651933701658" y="1539.828729281768" type="line"/>
      <point x="467.2651933701657" y="1108.828729281768" type="line"/>
      <point x="213.79005524861878" y="1108.828729281768" type="line"/>
      <point x="188.55248618784532" y="927.1657458563536" type="line"/>
      <point x="439.02762430939225" y="927.1657458563536" type="line"/>
      <point x="385.67403314917124" y="597.4917127071823" type="line"/>
      <point x="144.02762430939225" y="597.4917127071823" type="line"/>
      <point x="118.79005524861878" y="413.82872928176795" type="line"/>
    </contour>
    <contour>
      <point x="801.2651933701658" y="597.4917127071823" type="line"/>
      <point x="452.67403314917124" y="597.4917127071823" type="line"/>
      <point x="508.02762430939225" y="927.1657458563536" type="line"/>
      <point x="856.0662983425415" y="927.1657458563536" type="line"/>
    </contour>
  </outline>
</glyph>
<glyph name="dollar" format="2">
  <advance width="1307.1657458563536"/>
  <unicode hex="0024"/>
  <outline>
    <contour>
      <point x="161.83977900552486" y="65.82872928176796" type="line"/>
      <point x="223.14364640883977" y="55.027624309392266"/>
      <point x="391.0" y="-15.23756906077348"/>
      <point x="610.5580110497237" y="-24.34254143646409" type="curve"/>
      <point x="610.0055248618785" y="-257.7900552486188" type="line"/>
      <point x="706.5856353591159" y="-257.7900552486188" type="line"/>
      <point x="707.1381215469613" y="-21.447513812154696" type="line"/>
      <point x="987.5745856353591" y="10.75138121546961"/>
      <point x="1166.4972375690609" y="169.5414364640884"/>
      <point x="1166.4972375690609" y="406.0441988950276" type="curve" smooth="yes"/>
      <point x="1166.4972375690609" y="650.6906077348066"/>
      <point x="972.7734806629834" y="756.7955801104972"/>
      <point x="786.1160220994475" y="860.1381215469613" type="curve" smooth="yes"/>
      <point x="593.9447513812155" y="965.3756906077348"/>
      <point x="475.3977900552486" y="1052.1657458563536"/>
      <point x="475.3977900552486" y="1205.8066298342542" type="curve" smooth="yes"/>
      <point x="475.3977900552486" y="1337.8950276243095"/>
      <point x="547.7071823204419" y="1446.2762430939226"/>
      <point x="688.1767955801105" y="1446.2762430939226" type="curve" smooth="yes"/>
      <point x="750.2265193370166" y="1446.5524861878453"/>
      <point x="822.2099447513813" y="1427.0662983425414"/>
      <point x="875.5524861878453" y="1391.342541436464" type="curve"/>
      <point x="920.1325966850828" y="1095.524861878453" type="line"/>
      <point x="1069.1933701657458" y="1095.524861878453" type="line"/>
      <point x="1087.878453038674" y="1430.342541436464" type="line"/>
      <point x="1030.6408839779006" y="1440.0386740331492"/>
      <point x="854.9502762430939" y="1501.2375690607735"/>
      <point x="715.4254143646409" y="1503.4475138121547" type="curve"/>
      <point x="715.4254143646409" y="1733.0276243093922" type="line"/>
      <point x="618.292817679558" y="1733.0276243093922" type="line"/>
      <point x="618.292817679558" y="1502.8950276243095" type="line"/>
      <point x="346.2486187845304" y="1477.7900552486187"/>
      <point x="179.83977900552486" y="1334.9723756906078"/>
      <point x="179.83977900552486" y="1103.745856353591" type="curve" smooth="yes"/>
      <point x="179.83977900552486" y="839.7292817679559"/>
      <point x="397.9337016574585" y="723.3204419889503"/>
      <point x="541.9171270718232" y="644.414364640884" type="curve" smooth="yes"/>
      <point x="732.6022099447514" y="540.3480662983426"/>
      <point x="859.4254143646409" y="451.53038674033155"/>
      <point x="859.4254143646409" y="293.7458563535912" type="curve" smooth="yes"/>
      <point x="859.4254143646409" y="144.03867403314916"/>
      <point x="766.6022099447514" y="36.447513812154696"/>
      <point x="610.646408839779" y="36.447513812154696" type="curve" smooth="yes"/>
      <point x="534.3867403314916" y="36.447513812154696"/>
      <point x="448.707182320442" y="61.314917127071816"/>
      <point x="386.74585635359114" y="107.76243093922652" type="curve"/>
      <point x="337.75690607734805" y="428.6077348066298" type="line"/>
      <point x="184.97237569060775" y="428.6077348066298" type="line"/>
    </contour>
  </outline>
</glyph>
<glyph name="percent" format="2">
  <advance width="1957.9834254143645"/>
  <unicode hex="0025"/>
  <outline>
    <contour>
      <point x="610.8066298342542" y="0.0" type="line"/>
      <point x="703.4364640883978" y="0.0" type="line"/>
      <point x="1342.5193370165746" y="1502.0" type="line"/>
      <point x="1249.6132596685084" y="1501.7237569060774" type="line"/>
    </contour>
    <contour>
      <point x="461.3977900552486" y="630.6298342541437" type="curve" smooth="yes"/>
      <point x="681.3480662983425" y="630.6298342541437"/>
      <point x="868.756906077348" y="783.8674033149172"/>
      <point x="868.756906077348" y="1062.8950276243095" type="curve" smooth="yes"/>
      <point x="868.756906077348" y="1298.7513812154696"/>
      <point x="766.756906077348" y="1487.1602209944751"/>
      <point x="497.01657458563534" y="1487.1602209944751" type="curve" smooth="yes"/>
      <point x="271.61878453038673" y="1487.1602209944751"/>
      <point x="90.38121546961327" y="1329.9226519337017"/>
      <point x="90.38121546961327" y="1050.8950276243095" type="curve" smooth="yes"/>
      <point x="90.38121546961327" y="817.0773480662983"/>
      <point x="221.5524861878453" y="630.6298342541437"/>
    </contour>
    <contour>
      <point x="476.7403314917127" y="683.1049723756906" type="curve" smooth="yes"/>
      <point x="368.30939226519337" y="683.1049723756906"/>
      <point x="317.64088397790056" y="812.0220994475138"/>
      <point x="317.64088397790056" y="1062.513812154696" type="curve" smooth="yes"/>
      <point x="317.64088397790056" y="1315.292817679558"/>
      <point x="372.5193370165746" y="1436.132596685083"/>
      <point x="485.01657458563534" y="1436.132596685083" type="curve" smooth="yes"/>
      <point x="591.4475138121547" y="1436.132596685083"/>
      <point x="642.4972375690608" y="1314.5027624309391"/>
      <point x="642.4972375690608" y="1054.8950276243095" type="curve" smooth="yes"/>
      <point x="642.4972375690608" y="803.3922651933701"/>
      <point x="587.7900552486187" y="683.1049723756906"/>
    </contour>
    <contour>
      <point x="1459.5193370165746" y="28.011049723756912" type="curve" smooth="yes"/>
      <point x="1680.1933701657458" y="28.011049723756912"/>
      <point x="1867.6022099447514" y="181.24861878453038"/>
      <point x="1867.6022099447514" y="460.27624309392263" type="curve" smooth="yes"/>
      <point x="1867.6022099447514" y="696.1325966850828"/>
      <point x="1765.6022099447514" y="884.5414364640884"/>
      <point x="1495.1381215469614" y="884.5414364640884" type="curve" smooth="yes"/>
      <point x="1269.7403314917126" y="884.5414364640884"/>
      <point x="1088.5027624309391" y="727.3038674033149"/>
      <point x="1088.5027624309391" y="448.27624309392263" type="curve" smooth="yes"/>
      <point x="1088.5027624309391" y="221.6961325966851"/>
      <point x="1219.6740331491712" y="28.011049723756912"/>
    </contour>
    <contour>
      <point x="1474.8618784530386" y="80.48618784530387" type="curve" smooth="yes"/>
      <point x="1366.4309392265193" y="80.48618784530387"/>
      <point x="1315.7624309392265" y="209.4033149171271"/>
      <point x="1315.7624309392265" y="459.89502762430936" type="curve" smooth="yes"/>
      <point x="1315.7624309392265" y="712.6740331491712"/>
      <point x="1370.6408839779006" y="833.5138121546961"/>
      <point x="1483.1381215469612" y="833.5138121546961" type="curve" smooth="yes"/>
      <point x="1589.5690607734807" y="833.5138121546961"/>
      <point x="1640.6187845303868" y="711.8839779005525"/>
      <point x="1640.6187845303868" y="452.27624309392263" type="curve" smooth="yes"/>
      <point x="1640.6187845303868" y="200.77348066298345"/>
      <point x="1585.9116022099447" y="80.48618784530387"/>
    </contour>
  </outline>
</glyph>
<glyph name="ampersand" format="2">
  <advance width="1507.353591160221"/>
  <unicode hex="0026"/>
  <outline>
    <contour>
      <point x="1489.220994475138" y="823.0276243093923" type="line"/>
      <point x="1083.0331491712707" y="823.0276243093923" type="line"/>
      <point x="1083.0331491712707" y="775.0276243093923" type="line"/>
      <point x="1204.8342541436464" y="740.5138121546961" type="line"/>
      <point x="1229.7955801104972" y="617.4364640883978"/>
      <point x="1209.243093922652" y="446.44198895027625"/>
      <point x="1121.9834254143645" y="321.1270718232044" type="curve"/>
      <point x="1061.756906077348" y="382.52486187845307"/>
      <point x="966.1602209944751" y="505.3867403314917"/>
      <point x="733.9337016574585" y="792.0828729281768" type="curve"/>
      <point x="927.6243093922652" y="895.7348066298342"/>
      <point x="1091.867403314917" y="1002.6408839779006"/>
      <point x="1091.867403314917" y="1201.8011049723757" type="curve" smooth="yes"/>
      <point x="1091.867403314917" y="1373.8011049723757"/>
      <point x="945.182320441989" y="1504.7237569060774"/>
      <point x="700.2154696132596" y="1504.7237569060774" type="curve" smooth="yes"/>
      <point x="433.61878453038673" y="1504.7237569060774"/>
      <point x="237.3646408839779" y="1339.9723756906078"/>
      <point x="237.3646408839779" y="1144.6961325966852" type="curve" smooth="yes"/>
      <point x="237.3646408839779" y="1013.4972375690608"/>
      <point x="278.6685082872928" y="907.1933701657458"/>
      <point x="414.1270718232044" y="728.5911602209944" type="curve"/>
      <point x="210.58563535911603" y="647.2762430939226"/>
      <point x="78.09944751381215" y="519.3812154696133"/>
      <point x="78.09944751381215" y="350.82872928176795" type="curve" smooth="yes"/>
      <point x="78.09944751381215" y="133.0939226519337"/>
      <point x="251.8342541436464" y="-20.34254143646409"/>
      <point x="567.353591160221" y="-20.34254143646409" type="curve" smooth="yes"/>
      <point x="727.817679558011" y="-20.34254143646409"/>
      <point x="868.8453038674033" y="20.43646408839779"/>
      <point x="949.9723756906077" y="98.07734806629834" type="curve"/>
      <point x="1047.0773480662983" y="23.751381215469614"/>
      <point x="1162.513812154696" y="-13.447513812154696"/>
      <point x="1265.5027624309391" y="-13.447513812154696" type="curve" smooth="yes"/>
      <point x="1337.3093922651933" y="-13.447513812154696"/>
      <point x="1428.5911602209944" y="0.34254143646408863"/>
      <point x="1445.9060773480662" y="15.408839779005525" type="curve"/>
      <point x="1445.9060773480662" y="58.408839779005525" type="line"/>
      <point x="1355.2762430939226" y="74.58011049723757"/>
      <point x="1231.0055248618785" y="188.9060773480663"/>
      <point x="1163.707182320442" y="266.2707182320442" type="curve"/>
      <point x="1267.9447513812154" y="375.69060773480663"/>
      <point x="1363.4309392265193" y="543.8839779005525"/>
      <point x="1362.6022099447514" y="740.5138121546961" type="curve"/>
      <point x="1489.220994475138" y="775.0276243093923" type="line"/>
    </contour>
    <contour>
      <point x="520.8950276243094" y="1205.3425414364642" type="curve" smooth="yes"/>
      <point x="520.8950276243094" y="1363.1988950276243"/>
      <point x="576.5635359116022" y="1449.486187845304"/>
      <point x="695.7955801104972" y="1449.486187845304" type="curve" smooth="yes"/>
      <point x="805.9502762430939" y="1449.486187845304"/>
      <point x="850.1712707182321" y="1338.303867403315"/>
      <point x="852.3812154696133" y="1204.0" type="curve" smooth="yes"/>
      <point x="855.4198895027624" y="1046.1988950276243"/>
      <point x="797.7900552486187" y="939.2651933701658"/>
      <point x="685.0110497237569" y="851.4530386740332" type="curve"/>
      <point x="586.4309392265193" y="973.3093922651935"/>
      <point x="520.8950276243094" y="1090.1491712707182"/>
    </contour>
    <contour>
      <point x="673.5193370165746" y="86.14917127071828" type="curve" smooth="yes"/>
      <point x="479.2044198895028" y="87.80662983425418"/>
      <point x="363.29834254143645" y="202.12154696132586"/>
      <point x="359.9834254143646" y="390.97790055248606" type="curve" smooth="yes"/>
      <point x="356.9447513812154" y="506.44751381215457"/>
      <point x="395.3756906077348" y="604.5911602209944"/>
      <point x="470.0110497237569" y="658.0883977900553" type="curve"/>
      <point x="625.2375690607735" y="444.6629834254144"/>
      <point x="774.9834254143647" y="268.41988950276243"/>
      <point x="900.3922651933701" y="139.52486187845304" type="curve"/>
      <point x="842.6850828729282" y="96.08287292817676"/>
      <point x="748.2265193370165" y="85.32044198895022"/>
    </contour>
  </outline>
</glyph>
<glyph name="quotesingle" format="2">
  <advance width="636.7403314917127"/>
  <unicode hex="0027"/>
  <outline>
    <contour>
      <point x="434.0718232044199" y="1671.5027624309391" type="line"/>
      <point x="203.39226519337018" y="1671.5027624309391" type="line"/>
      <point x="294.646408839779" y="973.8066298342542" type="line"/>
      <point x="340.81767955801104" y="973.8066298342542" type="line"/>
    </contour>
  </outline>
</glyph>
<glyph name="parenleft" format="2">
  <advance width="832.1270718232043"/>
  <unicode hex="0028"/>
  <outline>
    <contour>
      <point x="97.18232044198895" y="668.0" type="curve" smooth="yes"/>
      <point x="97.18232044198895" y="-26.740331491712695"/>
      <point x="560.2154696132596" y="-320.1325966850829"/>
      <point x="671.8895027624309" y="-377.02762430939225" type="curve"/>
      <point x="712.5469613259668" y="-345.7513812154696" type="line"/>
      <point x="584.8729281767955" y="-248.62983425414365"/>
      <point x="355.7237569060773" y="80.2486187845304"/>
      <point x="370.4475138121547" y="697.4861878453039" type="curve"/>
      <point x="383.34254143646405" y="1262.8176795580112"/>
      <point x="596.3867403314918" y="1551.7348066298343"/>
      <point x="711.7845303867404" y="1634.6850828729282" type="curve"/>
      <point x="674.7845303867404" y="1665.0276243093922" type="line"/>
      <point x="547.110497237569" y="1592.5524861878453"/>
      <point x="97.18232044198895" y="1263.1602209944751"/>
    </contour>
  </outline>
</glyph>
<glyph name="parenright" format="2">
  <advance width="832.1270718232045"/>
  <unicode hex="0029"/>
  <outline>
    <contour>
      <point x="734.9447513812155" y="620.0" type="curve" smooth="yes"/>
      <point x="734.9447513812155" y="1314.7403314917128"/>
      <point x="271.91160220994476" y="1608.132596685083"/>
      <point x="160.23756906077347" y="1665.0276243093922" type="curve"/>
      <point x="119.58011049723757" y="1633.7513812154696" type="line"/>
      <point x="247.25414364640883" y="1536.6298342541436"/>
      <point x="476.4033149171271" y="1207.7513812154696"/>
      <point x="461.6795580110497" y="590.5138121546961" type="curve"/>
      <point x="448.78453038674036" y="25.18232044198895"/>
      <point x="235.7403314917127" y="-263.7348066298342"/>
      <point x="120.34254143646409" y="-346.6850828729282" type="curve"/>
      <point x="157.34254143646407" y="-377.02762430939225" type="line"/>
      <point x="285.01657458563534" y="-304.5524861878453"/>
      <point x="734.9447513812155" y="24.83977900552486"/>
    </contour>
  </outline>
</glyph>
<glyph name="asterisk" format="2">
  <advance width="1037.4696132596684"/>
  <unicode hex="002A"/>
  <outline>
    <contour>
      <point x="262.75690607734805" y="1149.9171270718232" type="line"/>
      <point x="83.0110497237569" y="1066.9060773480662" type="line"/>
      <point x="173.68508287292815" y="910.5193370165746" type="line"/>
      <point x="335.49723756906076" y="1029.1878453038673" type="line"/>
      <point x="499.01657458563534" y="1185.6022099447514" type="line"/>
      <point x="453.1988950276243" y="963.0276243093922" type="line"/>
      <point x="435.37016574585635" y="766.3480662983425" type="line"/>
      <point x="616.4419889502763" y="766.3480662983425" type="line"/>
      <point x="594.060773480663" y="966.1988950276243" type="line"/>
      <point x="540.1767955801105" y="1185.6022099447514" type="line"/>
      <point x="709.7624309392265" y="1035.254143646409" type="line"/>
      <point x="871.4033149171271" y="920.8618784530387" type="line"/>
      <point x="962.0773480662983" y="1077.9723756906078" type="line"/>
      <point x="777.8839779005525" y="1158.1546961325967" type="line"/>
      <point x="560.756906077348" y="1221.867403314917" type="line"/>
      <point x="776.1602209944751" y="1293.8176795580112" type="line"/>
      <point x="955.9060773480663" y="1376.828729281768" type="line"/>
      <point x="865.232044198895" y="1533.2154696132598" type="line"/>
      <point x="703.4198895027624" y="1414.5469613259668" type="line"/>
      <point x="539.9005524861878" y="1258.132596685083" type="line"/>
      <point x="585.7182320441989" y="1480.707182320442" type="line"/>
      <point x="603.5469613259669" y="1677.3867403314916" type="line"/>
      <point x="422.47513812154693" y="1677.3867403314916" type="line"/>
      <point x="444.8563535911602" y="1477.53591160221" type="line"/>
      <point x="498.7403314917127" y="1258.132596685083" type="line"/>
      <point x="329.15469613259665" y="1408.4806629834254" type="line"/>
      <point x="167.51381215469615" y="1522.8729281767955" type="line"/>
      <point x="76.83977900552487" y="1365.7624309392265" type="line"/>
      <point x="261.0331491712707" y="1285.5801104972375" type="line"/>
      <point x="478.16022099447514" y="1221.867403314917" type="line"/>
    </contour>
  </outline>
</glyph>
<glyph name="comma" format="2">
  <advance width="515.2707182320441"/>
  <unicode hex="002C"/>
  <outline>
    <contour>
      <point x="246.91160220994476" y="291.65193370165747" type="curve"/>
      <point x="237.292817679558" y="291.65193370165747" type="line" smooth="yes"/>
      <point x="159.82872928176795" y="291.65193370165747"/>
      <point x="109.80110497237567" y="244.2817679558011"/>
      <point x="109.80110497237567" y="167.67403314917127" type="curve" smooth="yes"/>
      <point x="109.80110497237567" y="37.209944751381215"/>
      <point x="262.3977900552486" y="38.61878453038673"/>
      <point x="262.3977900552486" y="-71.33149171270718" type="curve" smooth="yes"/>
      <point x="262.3977900552486" y="-185.16022099447514"/>
      <point x="201.91160220994473" y="-292.91160220994476"/>
      <point x="120.0939226519337" y="-373.96685082872926" type="curve"/>
      <point x="120.0939226519337" y="-381.96685082872926" type="line"/>
      <point x="150.9889502762431" y="-402.41436464088395" type="line"/>
      <point x="152.71270718232043" y="-401.69060773480663" type="line"/>
      <point x="288.110497237569" y="-326.76795580110496"/>
      <point x="412.0220994475138" y="-146.9889502762431"/>
      <point x="412.0220994475138" y="58.88397790055248" type="curve" smooth="yes"/>
      <point x="412.0220994475138" y="195.08287292817678"/>
      <point x="339.585635359116" y="291.65193370165747"/>
    </contour>
  </outline>
</glyph>
<glyph name="period" format="2">
  <advance width="452.86740331491706"/>
  <unicode hex="002E"/>
  <outline>
    <contour>
      <point x="212.55801104972375" y="-17.65745856353591" type="curve" smooth="yes"/>
      <point x="306.81215469613255" y="-17.65745856353591"/>
      <point x="374.1823204419889" y="37.92265193370165"/>
      <point x="374.1823204419889" y="131.32044198895028" type="curve" smooth="yes"/>
      <point x="374.1823204419889" y="200.75690607734805"/>
      <point x="327.1933701657458" y="266.4696132596685"/>
      <point x="237.24309392265192" y="266.4696132596685" type="curve" smooth="yes"/>
      <point x="149.95027624309392" y="266.4696132596685"/>
      <point x="78.68508287292818" y="205.27071823204417"/>
      <point x="78.68508287292818" y="117.4917127071823" type="curve" smooth="yes"/>
      <point x="78.68508287292818" y="37.88397790055248"/>
      <point x="141.12154696132598" y="-17.65745856353591"/>
    </contour>
  </outline>
</glyph>
<glyph name="slash" format="2">
  <advance width="698.1933701657458"/>
  <unicode hex="002F"/>
  <outline>
    <contour>
      <point x="655.0883977900553" y="1562.0" type="line"/>
      <point x="562.5745856353592" y="1562.0" type="line"/>
      <point x="43.10497237569061" y="-354.0" type="line"/>
      <point x="137.06629834254142" y="-354.0" type="line"/>
    </contour>
  </outline>
</glyph>
<glyph name="zero" format="2">
  <advance width="1287.1160220994475"/>
  <unicode hex="0030"/>
  <outline>
    <contour>
      <point x="619.6353591160221" y="-20.171270718232044" type="curve" smooth="yes"/>
      <point x="1003.6685082872929" y="-20.171270718232044"/>
      <point x="1220.9723756906078" y="267.1436464088398"/>
      <point x="1221.524861878453" y="779.121546961326" type="curve" smooth="yes"/>
      <point x="1222.0773480662983" y="1252.624309392265"/>
      <point x="1034.8342541436464" y="1504.7237569060774"/>
      <point x="669.6906077348067" y="1504.7237569060774" type="curve" smooth="yes"/>
      <point x="304.61878453038673" y="1504.7237569060774"/>
      <point x="66.86740331491713" y="1226.5911602209944"/>
      <point x="65.59116022099448" y="710.7845303867404" type="curve" smooth="yes"/>
      <point x="64.31491712707182" y="248.55801104972375"/>
      <point x="247.91160220994476" y="-20.171270718232044"/>
    </contour>
    <contour>
      <point x="644.9005524861878" y="34.89502762430939" type="curve" smooth="yes"/>
      <point x="487.51381215469615" y="34.89502762430939"/>
      <point x="404.56906077348066" y="232.6574585635359"/>
      <point x="404.56906077348066" y="734.707182320442" type="curve" smooth="yes"/>
      <point x="404.56906077348066" y="1258.7182320441989"/>
      <point x="489.30386740331494" y="1446.0386740331492"/>
      <point x="644.2154696132596" y="1446.0386740331492" type="curve" smooth="yes"/>
      <point x="799.8121546961326" y="1446.0386740331492"/>
      <point x="882.5469613259669" y="1285.0"/>
      <point x="882.5469613259669" y="741.4475138121547" type="curve" smooth="yes"/>
      <point x="882.5469613259669" y="247.41436464088397"/>
      <point x="817.0110497237569" y="34.89502762430939"/>
    </contour>
  </outline>
</glyph>
<glyph name="one" format="2">
  <advance width="873.5580110497237"/>
  <unicode hex="0031"/>
  <outline>
    <contour>
      <point x="302.7955801104972" y="70.61878453038673" type="line"/>
      <point x="80.78453038674034" y="37.447513812154696" type="line"/>
      <point x="80.78453038674034" y="0.0" type="line"/>
      <point x="842.3370165745856" y="0.0" type="line"/>
      <point x="842.3370165745856" y="37.447513812154696" type="line"/>
      <point x="623.4309392265193" y="70.61878453038673" type="line"/>
      <point x="623.4309392265193" y="1485.4475138121547" type="line"/>
      <point x="459.84530386740335" y="1505.4475138121547" type="line"/>
      <point x="447.71270718232046" y="1505.4475138121547" type="line"/>
      <point x="370.1325966850829" y="1409.513812154696"/>
      <point x="222.77900552486187" y="1290.8397790055249"/>
      <point x="31.430939226519342" y="1253.6022099447514" type="curve"/>
      <point x="41.87845303867404" y="1205.0883977900553" type="line"/>
      <point x="133.76795580110496" y="1210.8232044198894"/>
      <point x="252.85082872928177" y="1236.375690607735"/>
      <point x="302.1381215469613" y="1255.9668508287293" type="curve"/>
    </contour>
  </outline>
</glyph>
<glyph name="two" format="2">
  <advance width="1138.9944751381215"/>
  <unicode hex="0032"/>
  <outline>
    <contour>
      <point x="-3.1602209944751323" y="122.1270718232044" type="curve"/>
      <point x="50.81767955801104" y="0.0" type="line"/>
      <point x="1008.4530386740331" y="0.0" type="line"/>
      <point x="1093.1657458563536" y="410.9834254143646" type="line"/>
      <point x="1028.6132596685084" y="431.3922651933701" type="line"/>
      <point x="938.6408839779006" y="278.06629834254136" type="line"/>
      <point x="186.6961325966851" y="184.232044198895" type="line"/>
      <point x="614.6519337016574" y="409.4917127071823"/>
      <point x="999.9171270718232" y="730.2209944751381"/>
      <point x="999.9171270718232" y="1096.5911602209944" type="curve" smooth="yes"/>
      <point x="999.9171270718232" y="1363.2762430939226"/>
      <point x="776.5580110497237" y="1503.4475138121547"/>
      <point x="546.0441988950276" y="1503.4475138121547" type="curve" smooth="yes"/>
      <point x="286.9944751381216" y="1503.4475138121547"/>
      <point x="130.15469613259668" y="1353.414364640884"/>
      <point x="42.31491712707183" y="1230.0662983425414" type="curve"/>
      <point x="78.2486187845304" y="1183.7624309392265" type="line"/>
      <point x="174.39226519337018" y="1291.6132596685084"/>
      <point x="305.8508287292818" y="1352.6132596685084"/>
      <point x="423.4696132596685" y="1352.6132596685084" type="curve" smooth="yes"/>
      <point x="575.6132596685084" y="1352.6132596685084"/>
      <point x="660.939226519337" y="1237.375690607735"/>
      <point x="660.939226519337" y="1030.3370165745857" type="curve" smooth="yes"/>
      <point x="660.939226519337" y="683.182320441989"/>
      <point x="363.2209944751381" y="324.0331491712707"/>
    </contour>
  </outline>
</glyph>
<glyph name="three" format="2">
  <advance width="1057.2707182320441"/>
  <unicode hex="0033"/>
  <outline>
    <contour>
      <point x="326.08839779005524" y="-28.895027624309392" type="curve" smooth="yes"/>
      <point x="663.2707182320441" y="-30.552486187845304"/>
      <point x="999.2707182320441" y="141.17127071823205"/>
      <point x="999.2707182320441" y="444.83977900552486" type="curve" smooth="yes"/>
      <point x="999.2707182320441" y="699.0276243093923"/>
      <point x="763.1491712707182" y="836.6685082872929"/>
      <point x="426.6574585635359" y="761.6685082872929" type="curve"/>
      <point x="686.3480662983425" y="824.5359116022099"/>
      <point x="918.8232044198895" y="974.3812154696133"/>
      <point x="918.8232044198895" y="1207.2762430939226" type="curve" smooth="yes"/>
      <point x="918.8232044198895" y="1407.657458563536"/>
      <point x="724.0331491712707" y="1503.4475138121547"/>
      <point x="511.69060773480663" y="1503.4475138121547" type="curve" smooth="yes"/>
      <point x="308.8066298342541" y="1503.4475138121547"/>
      <point x="142.84530386740332" y="1417.4088397790056"/>
      <point x="24.419889502762445" y="1301.6022099447514" type="curve"/>
      <point x="64.89502762430939" y="1251.0883977900553" type="line"/>
      <point x="149.6574585635359" y="1314.5082872928176"/>
      <point x="240.95580110497235" y="1369.53591160221"/>
      <point x="372.8011049723757" y="1370.0883977900553" type="curve" smooth="yes"/>
      <point x="481.6132596685083" y="1370.9171270718232"/>
      <point x="584.767955801105" y="1310.4309392265193"/>
      <point x="584.767955801105" y="1156.2983425414366" type="curve" smooth="yes"/>
      <point x="584.767955801105" y="1007.0883977900553"/>
      <point x="487.5193370165746" y="877.4972375690608"/>
      <point x="348.82872928176795" y="818.5911602209944" type="curve" smooth="yes"/>
      <point x="308.72375690607737" y="801.1436464088398"/>
      <point x="250.20994475138122" y="780.6298342541436"/>
      <point x="207.03867403314916" y="769.5248618784531" type="curve"/>
      <point x="217.52486187845304" y="694.6685082872929" type="line"/>
      <point x="250.24861878453038" y="703.6685082872929"/>
      <point x="321.4585635359116" y="727.2209944751381"/>
      <point x="360.18232044198896" y="737.4972375690608" type="curve"/>
      <point x="555.7790055248619" y="748.8232044198895"/>
      <point x="653.3591160220994" y="612.182320441989"/>
      <point x="653.6353591160221" y="442.49723756906076" type="curve" smooth="yes"/>
      <point x="654.1878453038674" y="222.75138121546962"/>
      <point x="513.707182320442" y="54.712707182320436"/>
      <point x="263.87292817679554" y="56.093922651933696" type="curve" smooth="yes"/>
      <point x="187.67403314917127" y="56.370165745856355"/>
      <point x="109.88397790055248" y="65.75138121546962"/>
      <point x="35.65745856353591" y="94.77900552486187" type="curve"/>
      <point x="25.524861878453038" y="28.712707182320436" type="line"/>
      <point x="81.65745856353591" y="-0.14364640883978197"/>
      <point x="208.84530386740332" y="-28.61878453038674"/>
    </contour>
  </outline>
</glyph>
<glyph name="four" format="2">
  <advance width="1212.4198895027625"/>
  <unicode hex="0034"/>
  <outline>
    <contour>
      <point x="688.1988950276243" y="0.0" type="line"/>
      <point x="990.5303867403316" y="0.0" type="line"/>
      <point x="990.5303867403316" y="306.8011049723757" type="line"/>
      <point x="1173.7348066298343" y="306.8011049723757" type="line"/>
      <point x="1173.4585635359117" y="457.5414364640884" type="line"/>
      <point x="989.5303867403316" y="445.6077348066298" type="line"/>
      <point x="989.8066298342542" y="863.4088397790056" type="line"/>
      <point x="707.0165745856353" y="835.4861878453039" type="line"/>
      <point x="689.3701657458564" y="415.0" type="line"/>
      <point x="215.55248618784532" y="371.76243093922653" type="line"/>
      <point x="353.3204419889503" y="564.0" type="line"/>
      <point x="858.9613259668508" y="1363.9281767955802" type="line"/>
      <point x="622.5138121546961" y="1496.8563535911603" type="line"/>
      <point x="524.4861878453039" y="1496.8563535911603" type="line"/>
      <point x="401.2651933701658" y="1199.0441988950276"/>
      <point x="201.85082872928177" y="773.7900552486187"/>
      <point x="31.447513812154696" y="445.4254143646409" type="curve"/>
      <point x="95.50276243093923" y="306.8011049723757" type="line"/>
      <point x="688.1988950276243" y="306.8011049723757" type="line"/>
    </contour>
  </outline>
</glyph>
<glyph name="five" format="2">
  <advance width="1090.624309392265"/>
  <unicode hex="0035"/>
  <outline>
    <contour>
      <point x="68.11602209944752" y="63.19889502762431" type="curve"/>
      <point x="69.39226519337016" y="1.4751381215469621" type="line"/>
      <point x="140.44751381215468" y="-26.171270718232044"/>
      <point x="268.6132596685083" y="-33.96132596685083"/>
      <point x="336.56353591160223" y="-31.790055248618785" type="curve" smooth="yes"/>
      <point x="720.4751381215469" y="-22.38121546961326"/>
      <point x="1023.0994475138122" y="215.75690607734805"/>
      <point x="1023.0994475138122" y="547.3425414364641" type="curve" smooth="yes"/>
      <point x="1023.0994475138122" y="795.0441988950276"/>
      <point x="871.6353591160221" y="933.6187845303867"/>
      <point x="611.414364640884" y="933.6187845303867" type="curve" smooth="yes"/>
      <point x="439.1878453038674" y="933.6187845303867"/>
      <point x="247.06629834254144" y="849.0773480662983"/>
      <point x="143.51381215469613" y="738.9447513812155" type="curve"/>
      <point x="284.27624309392263" y="1235.0939226519338" type="line"/>
      <point x="942.2154696132596" y="1235.0939226519338" type="line"/>
      <point x="982.7955801104972" y="1522.6187845303868" type="line"/>
      <point x="898.9668508287293" y="1522.6187845303868" type="line"/>
      <point x="873.1767955801105" y="1485.7237569060774" type="line"/>
      <point x="171.8674033149171" y="1485.7237569060774" type="line"/>
      <point x="73.353591160221" y="739.4972375690608" type="line"/>
      <point x="140.5524861878453" y="697.2596685082873" type="line"/>
      <point x="228.0" y="751.2209944751381"/>
      <point x="329.6574585635359" y="773.9281767955802"/>
      <point x="439.6022099447514" y="773.9281767955802" type="curve" smooth="yes"/>
      <point x="615.3093922651933" y="773.9281767955802"/>
      <point x="702.0055248618785" y="637.243093922652"/>
      <point x="702.0055248618785" y="476.8121546961326" type="curve" smooth="yes"/>
      <point x="702.0055248618785" y="214.0"/>
      <point x="517.0" y="55.92265193370166"/>
      <point x="270.03314917127074" y="49.408839779005525" type="curve" smooth="yes"/>
      <point x="190.95027624309392" y="46.51381215469613"/>
      <point x="119.38121546961325" y="52.408839779005525"/>
    </contour>
  </outline>
</glyph>
<glyph name="six" format="2">
  <advance width="1247.5745856353592"/>
  <unicode hex="0036"/>
  <outline>
    <contour>
      <point x="624.110497237569" y="-32.51381215469613" type="curve" smooth="yes"/>
      <point x="939.9116022099447" y="-32.790055248618785"/>
      <point x="1181.4585635359115" y="170.767955801105"/>
      <point x="1181.4585635359115" y="516.2099447513813" type="curve" smooth="yes"/>
      <point x="1181.4585635359115" y="815.1049723756906"/>
      <point x="995.4972375690608" y="955.7348066298342"/>
      <point x="778.9337016574585" y="955.7348066298342" type="curve" smooth="yes"/>
      <point x="644.1436464088398" y="955.7348066298342"/>
      <point x="503.6574585635359" y="893.3922651933701"/>
      <point x="418.23756906077347" y="754.4861878453039" type="curve"/>
      <point x="453.55248618784526" y="1050.364640883978"/>
      <point x="596.0994475138122" y="1378.4585635359117"/>
      <point x="969.9944751381215" y="1474.9558011049724" type="curve"/>
      <point x="942.0994475138122" y="1532.1933701657458" type="line"/>
      <point x="437.8839779005525" y="1492.646408839779"/>
      <point x="73.22099447513813" y="1076.2651933701657"/>
      <point x="73.22099447513813" y="603.2762430939226" type="curve" smooth="yes"/>
      <point x="73.22099447513813" y="249.62430939226522"/>
      <point x="263.8839779005525" y="-32.23756906077348"/>
    </contour>
    <contour>
      <point x="638.0552486187845" y="822.8729281767955" type="curve" smooth="yes"/>
      <point x="795.6022099447514" y="822.5966850828729"/>
      <point x="848.060773480663" y="630.5580110497237"/>
      <point x="848.060773480663" y="430.414364640884" type="curve" smooth="yes"/>
      <point x="848.060773480663" y="214.85082872928177"/>
      <point x="787.2209944751381" y="26.96132596685083"/>
      <point x="628.1491712707182" y="26.96132596685083" type="curve" smooth="yes"/>
      <point x="473.23756906077347" y="26.96132596685083"/>
      <point x="410.5138121546961" y="223.70718232044203"/>
      <point x="410.5138121546961" y="521.6022099447514" type="curve" smooth="yes"/>
      <point x="410.5138121546961" y="599.7734806629834"/>
      <point x="413.68508287292815" y="666.6408839779006"/>
      <point x="417.13259668508283" y="704.182320441989" type="curve"/>
      <point x="457.9723756906077" y="755.8232044198895"/>
      <point x="542.6519337016574" y="823.1491712707183"/>
    </contour>
  </outline>
</glyph>
<glyph name="seven" format="2">
  <advance width="1094.2265193370165"/>
  <unicode hex="0037"/>
  <outline>
    <contour>
      <point x="610.0883977900552" y="-0.5524861878453042" type="line"/>
      <point x="1081.8618784530386" y="1436.9337016574586" type="line"/>
      <point x="1037.0055248618785" y="1486.0" type="line"/>
      <point x="97.14364640883979" y="1486.0" type="line"/>
      <point x="37.60220994475139" y="1035.0441988950276" type="line"/>
      <point x="104.48618784530387" y="1021.2541436464089" type="line"/>
      <point x="185.93370165745856" y="1226.0662983425414" type="line"/>
      <point x="950.4364640883978" y="1227.7237569060774" type="line"/>
      <point x="740.2762430939226" y="847.2044198895028"/>
      <point x="526.828729281768" y="446.8563535911602"/>
      <point x="258.7955801104972" y="0.0" type="curve"/>
    </contour>
  </outline>
</glyph>
<glyph name="eight" format="2">
  <advance width="1243.220994475138"/>
  <unicode hex="0038"/>
  <outline>
    <contour>
      <point x="64.8011049723757" y="353.3425414364641" type="curve" smooth="yes"/>
      <point x="64.8011049723757" y="99.15469613259668"/>
      <point x="311.35911602209944" y="-20.895027624309392"/>
      <point x="611.7292817679557" y="-20.895027624309392" type="curve" smooth="yes"/>
      <point x="927.4309392265193" y="-20.895027624309392"/>
      <point x="1178.4198895027623" y="135.72375690607734"/>
      <point x="1178.4198895027623" y="417.3314917127072" type="curve" smooth="yes"/>
      <point x="1178.4198895027623" y="632.5303867403314"/>
      <point x="1018.9337016574585" y="729.0552486187845"/>
      <point x="789.5359116022099" y="842.8342541436464" type="curve"/>
      <point x="989.92817679558" y="907.4364640883978"/>
      <point x="1110.8121546961327" y="1026.6298342541436"/>
      <point x="1110.8121546961327" y="1185.1049723756905" type="curve" smooth="yes"/>
      <point x="1110.8121546961327" y="1393.635359116022"/>
      <point x="914.5303867403314" y="1505.4475138121547"/>
      <point x="647.8729281767955" y="1505.4475138121547" type="curve" smooth="yes"/>
      <point x="375.0" y="1505.4475138121547"/>
      <point x="130.94475138121547" y="1371.486187845304"/>
      <point x="130.94475138121547" y="1107.9447513812154" type="curve" smooth="yes"/>
      <point x="130.94475138121547" y="954.6077348066299"/>
      <point x="239.13812154696134" y="800.6298342541437"/>
      <point x="411.77348066298345" y="703.5359116022099" type="curve"/>
      <point x="201.3038674033149" y="653.6961325966851"/>
      <point x="64.8011049723757" y="518.0276243093923"/>
    </contour>
    <contour>
      <point x="403.28729281767954" y="1218.3314917127072" type="curve" smooth="yes"/>
      <point x="403.28729281767954" y="1366.2375690607735"/>
      <point x="505.9834254143646" y="1449.3149171270718"/>
      <point x="642.2817679558011" y="1449.3149171270718" type="curve" smooth="yes"/>
      <point x="803.7790055248619" y="1449.3149171270718"/>
      <point x="873.828729281768" y="1324.0276243093922"/>
      <point x="873.828729281768" y="1172.988950276243" type="curve" smooth="yes"/>
      <point x="873.828729281768" y="1046.9116022099447"/>
      <point x="826.2651933701658" y="925.3867403314918"/>
      <point x="737.8508287292817" y="868.5193370165746" type="curve"/>
      <point x="551.5524861878453" y="963.6353591160221"/>
      <point x="403.28729281767954" y="1039.7127071823204"/>
    </contour>
    <contour>
      <point x="881.8397790055249" y="277.7458563535912" type="curve" smooth="yes"/>
      <point x="881.8397790055249" y="126.45856353591161"/>
      <point x="766.0662983425415" y="35.89502762430939"/>
      <point x="621.5303867403314" y="35.89502762430939" type="curve" smooth="yes"/>
      <point x="434.7292817679558" y="35.89502762430939"/>
      <point x="319.8508287292817" y="191.34254143646407"/>
      <point x="319.8508287292817" y="385.23756906077347" type="curve" smooth="yes"/>
      <point x="319.8508287292817" y="525.4088397790056"/>
      <point x="372.1381215469613" y="623.1270718232045"/>
      <point x="467.0110497237569" y="674.9558011049724" type="curve"/>
      <point x="694.8397790055249" y="568.6022099447514"/>
      <point x="881.8397790055249" y="479.1933701657459"/>
    </contour>
  </outline>
</glyph>
<glyph name="nine" format="2">
  <advance width="1250.9558011049724"/>
  <unicode hex="0039"/>
  <outline>
    <contour>
      <point x="623.9116022099447" y="1505.4475138121547" type="curve" smooth="yes"/>
      <point x="315.16022099447514" y="1504.7237569060774"/>
      <point x="66.11602209944752" y="1317.8176795580112"/>
      <point x="66.11602209944752" y="969.5138121546961" type="curve" smooth="yes"/>
      <point x="66.11602209944752" y="653.8397790055249"/>
      <point x="280.353591160221" y="499.27624309392263"/>
      <point x="489.9447513812155" y="499.27624309392263" type="curve" smooth="yes"/>
      <point x="626.9060773480663" y="499.27624309392263"/>
      <point x="765.7348066298342" y="559.4475138121547"/>
      <point x="830.1657458563536" y="704.1436464088398" type="curve"/>
      <point x="794.8508287292817" y="420.56906077348066"/>
      <point x="655.5524861878453" y="109.14364640883979"/>
      <point x="289.48618784530385" y="6.1325966850828735" type="curve"/>
      <point x="315.9337016574586" y="-49.65745856353591" type="line"/>
      <point x="815.2154696132596" y="-7.215469613259669"/>
      <point x="1177.7348066298343" y="402.49723756906076"/>
      <point x="1177.7348066298343" y="866.8011049723757" type="curve" smooth="yes"/>
      <point x="1177.7348066298343" y="1226.243093922652"/>
      <point x="988.939226519337" y="1506.171270718232"/>
    </contour>
    <contour>
      <point x="604.767955801105" y="634.3093922651934" type="curve" smooth="yes"/>
      <point x="449.12707182320446" y="634.585635359116"/>
      <point x="400.89502762430936" y="833.7292817679559"/>
      <point x="400.89502762430936" y="1039.6629834254143" type="curve" smooth="yes"/>
      <point x="400.89502762430936" y="1261.0165745856355"/>
      <point x="464.5359116022099" y="1447.4198895027625"/>
      <point x="617.7016574585635" y="1446.6961325966852" type="curve" smooth="yes"/>
      <point x="776.6906077348066" y="1445.9723756906078"/>
      <point x="838.6132596685082" y="1238.5414364640883"/>
      <point x="838.6132596685082" y="947.8839779005525" type="curve" smooth="yes"/>
      <point x="838.6132596685082" y="853.0662983425415"/>
      <point x="835.4419889502763" y="794.1602209944751"/>
      <point x="831.2707182320441" y="757.3425414364641" type="curve"/>
      <point x="775.9558011049724" y="685.4364640883978"/>
      <point x="687.1436464088398" y="634.0331491712707"/>
    </contour>
  </outline>
</glyph>
<glyph name="colon" format="2">
  <advance width="536.5082872928176"/>
  <unicode hex="003A"/>
  <outline>
    <contour>
      <point x="254.01657458563534" y="726.6408839779006" type="curve" smooth="yes"/>
      <point x="348.2707182320442" y="726.6408839779006"/>
      <point x="415.6408839779005" y="782.2209944751381"/>
      <point x="415.6408839779005" y="875.6187845303867" type="curve" smooth="yes"/>
      <point x="415.6408839779005" y="945.0552486187845"/>
      <point x="368.6519337016574" y="1010.767955801105"/>
      <point x="278.70165745856355" y="1010.767955801105" type="curve" smooth="yes"/>
      <point x="191.40883977900552" y="1010.767955801105"/>
      <point x="120.14364640883979" y="949.5690607734807"/>
      <point x="120.14364640883979" y="861.7900552486187" type="curve" smooth="yes"/>
      <point x="120.14364640883979" y="782.182320441989"/>
      <point x="182.58011049723757" y="726.6408839779006"/>
    </contour>
    <contour>
      <point x="254.7403314917127" y="-17.65745856353591" type="curve" smooth="yes"/>
      <point x="348.9944751381215" y="-17.65745856353591"/>
      <point x="416.36464088397787" y="37.92265193370165"/>
      <point x="416.36464088397787" y="131.32044198895028" type="curve" smooth="yes"/>
      <point x="416.36464088397787" y="200.75690607734805"/>
      <point x="369.3756906077348" y="266.4696132596685"/>
      <point x="279.42541436464086" y="266.4696132596685" type="curve" smooth="yes"/>
      <point x="192.13259668508286" y="266.4696132596685"/>
      <point x="120.86740331491714" y="205.27071823204417"/>
      <point x="120.86740331491714" y="117.4917127071823" type="curve" smooth="yes"/>
      <point x="120.86740331491714" y="37.88397790055248"/>
      <point x="183.3038674033149" y="-17.65745856353591"/>
    </contour>
  </outline>
</glyph>
<glyph name="semicolon" format="2">
  <advance width="533.2707182320441"/>
  <unicode hex="003B"/>
  <outline>
    <contour>
      <point x="248.84530386740332" y="726.6408839779006" type="curve" smooth="yes"/>
      <point x="343.09944751381215" y="726.6408839779006"/>
      <point x="410.4696132596685" y="782.2209944751381"/>
      <point x="410.4696132596685" y="875.6187845303867" type="curve" smooth="yes"/>
      <point x="410.4696132596685" y="945.0552486187845"/>
      <point x="363.4806629834254" y="1010.767955801105"/>
      <point x="273.5303867403315" y="1010.767955801105" type="curve" smooth="yes"/>
      <point x="186.23756906077347" y="1010.767955801105"/>
      <point x="114.97237569060772" y="949.5690607734807"/>
      <point x="114.97237569060772" y="861.7900552486187" type="curve" smooth="yes"/>
      <point x="114.97237569060772" y="782.182320441989"/>
      <point x="177.40883977900552" y="726.6408839779006"/>
    </contour>
    <contour>
      <point x="259.939226519337" y="291.65193370165747" type="curve"/>
      <point x="250.32044198895028" y="291.65193370165747" type="line" smooth="yes"/>
      <point x="172.8563535911602" y="291.65193370165747"/>
      <point x="122.82872928176796" y="244.2817679558011"/>
      <point x="122.82872928176796" y="167.67403314917127" type="curve" smooth="yes"/>
      <point x="122.82872928176796" y="37.209944751381215"/>
      <point x="275.42541436464086" y="38.61878453038673"/>
      <point x="275.42541436464086" y="-71.33149171270718" type="curve" smooth="yes"/>
      <point x="275.42541436464086" y="-185.16022099447514"/>
      <point x="214.939226519337" y="-292.91160220994476"/>
      <point x="133.12154696132598" y="-373.96685082872926" type="curve"/>
      <point x="133.12154696132598" y="-381.96685082872926" type="line"/>
      <point x="164.01657458563534" y="-402.41436464088395" type="line"/>
      <point x="165.7403314917127" y="-401.69060773480663" type="line"/>
      <point x="301.1381215469613" y="-326.76795580110496"/>
      <point x="425.0497237569061" y="-146.9889502762431"/>
      <point x="425.0497237569061" y="58.88397790055248" type="curve" smooth="yes"/>
      <point x="425.0497237569061" y="195.08287292817678"/>
      <point x="352.61325966850825" y="291.65193370165747"/>
    </contour>
  </outline>
</glyph>
<glyph name="question" format="2">
  <advance width="874.5524861878453"/>
  <unicode hex="003F"/>
  <outline>
    <contour>
      <point x="312.3922651933702" y="429.2044198895028" type="curve"/>
      <point x="377.5359116022099" y="429.2044198895028" type="line"/>
      <point x="362.3646408839779" y="522.7292817679559"/>
      <point x="351.1933701657459" y="626.1933701657458"/>
      <point x="351.1933701657459" y="706.7845303867404" type="curve" smooth="yes"/>
      <point x="351.1933701657458" y="737.8121546961326"/>
      <point x="356.2596685082873" y="771.3646408839779"/>
      <point x="367.66850828729287" y="793.878453038674" type="curve"/>
      <point x="426.9944751381216" y="908.3038674033149"/>
      <point x="835.7127071823204" y="991.3977900552486"/>
      <point x="835.7127071823204" y="1323.1049723756905" type="curve" smooth="yes"/>
      <point x="835.7127071823204" y="1587.7900552486187"/>
      <point x="651.9060773480663" y="1774.342541436464"/>
      <point x="301.28729281767954" y="1774.342541436464" type="curve" smooth="yes"/>
      <point x="178.00552486187846" y="1774.342541436464"/>
      <point x="70.87292817679558" y="1744.0386740331492"/>
      <point x="27.082872928176798" y="1717.867403314917" type="curve"/>
      <point x="48.254143646408835" y="1636.8950276243095" type="line"/>
      <point x="84.80662983425415" y="1654.171270718232"/>
      <point x="155.46408839779005" y="1666.513812154696"/>
      <point x="219.11049723756906" y="1666.513812154696" type="curve" smooth="yes"/>
      <point x="441.7513812154696" y="1666.513812154696"/>
      <point x="572.1436464088398" y="1505.0773480662983"/>
      <point x="572.1436464088398" y="1283.1436464088397" type="curve" smooth="yes"/>
      <point x="572.1436464088398" y="1117.1823204419888"/>
      <point x="521.9337016574585" y="1012.2596685082873"/>
      <point x="439.96132596685084" y="965.4198895027624" type="curve" smooth="yes"/>
      <point x="285.7513812154696" y="877.817679558011"/>
      <point x="225.54696132596686" y="832.8342541436464"/>
      <point x="226.2707182320442" y="750.7845303867404" type="curve"/>
      <point x="228.09944751381215" y="659.0718232044198"/>
      <point x="282.6685082872928" y="501.7403314917127"/>
    </contour>
    <contour>
      <point x="331.50828729281767" y="-17.65745856353591" type="curve" smooth="yes"/>
      <point x="425.76243093922653" y="-17.65745856353591"/>
      <point x="493.1325966850829" y="37.92265193370166"/>
      <point x="493.1325966850829" y="131.32044198895028" type="curve" smooth="yes"/>
      <point x="493.1325966850829" y="200.75690607734808"/>
      <point x="446.1436464088398" y="266.4696132596685"/>
      <point x="356.1933701657459" y="266.4696132596685" type="curve" smooth="yes"/>
      <point x="268.90055248618785" y="266.4696132596685"/>
      <point x="197.6353591160221" y="205.2707182320442"/>
      <point x="197.6353591160221" y="117.49171270718233" type="curve" smooth="yes"/>
      <point x="197.6353591160221" y="37.88397790055249"/>
      <point x="260.0718232044199" y="-17.65745856353591"/>
    </contour>
  </outline>
</glyph>
<glyph name="at" format="2">
  <advance width="2094.9558011049726"/>
  <unicode hex="0040"/>
  <outline>
    <contour>
      <point x="142.0" y="348.97237569060775" type="curve" smooth="yes"/>
      <point x="142.0" y="-189.31491712707182"/>
      <point x="470.0552486187845" y="-515.9226519337017"/>
      <point x="917.1878453038673" y="-515.9226519337017" type="curve" smooth="yes"/>
      <point x="1104.5027624309391" y="-515.9226519337017"/>
      <point x="1295.254143646409" y="-458.5414364640884"/>
      <point x="1398.596685082873" y="-368.8563535911602" type="curve"/>
      <point x="1378.8729281767955" y="-321.09392265193367" type="line"/>
      <point x="1263.9502762430939" y="-400.02762430939225"/>
      <point x="1112.8342541436464" y="-440.2099447513812"/>
      <point x="975.1657458563536" y="-440.2099447513812" type="curve" smooth="yes"/>
      <point x="577.9005524861878" y="-440.2099447513812"/>
      <point x="288.0552486187845" y="-113.20994475138122"/>
      <point x="288.0552486187845" y="388.51381215469615" type="curve" smooth="yes"/>
      <point x="288.0552486187845" y="965.2596685082873"/>
      <point x="662.2375690607735" y="1436.2486187845304"/>
      <point x="1169.9116022099447" y="1436.2486187845304" type="curve" smooth="yes"/>
      <point x="1529.6906077348067" y="1436.2486187845304"/>
      <point x="1852.2044198895028" y="1195.0883977900553"/>
      <point x="1852.2044198895028" y="737.5635359116022" type="curve" smooth="yes"/>
      <point x="1852.2044198895028" y="343.121546961326"/>
      <point x="1612.9060773480662" y="108.70165745856353"/>
      <point x="1484.745856353591" y="108.70165745856353" type="curve" smooth="yes"/>
      <point x="1435.2983425414363" y="108.70165745856353"/>
      <point x="1417.1546961325967" y="145.5027624309392"/>
      <point x="1421.5745856353592" y="275.78453038674036" type="curve" smooth="yes"/>
      <point x="1425.7182320441989" y="504.1436464088398"/>
      <point x="1483.8508287292818" y="809.0552486187845"/>
      <point x="1520.403314917127" y="938.8397790055249" type="curve"/>
      <point x="1381.8839779005525" y="986.5524861878453"/>
      <point x="1369.0939226519338" y="990.0"/>
      <point x="1350.7900552486187" y="990.2762430939226" type="curve" smooth="yes"/>
      <point x="1327.2762430939226" y="991.1049723756906"/>
      <point x="1312.486187845304" y="988.3425414364641"/>
      <point x="1295.867403314917" y="943.5524861878453" type="curve"/>
      <point x="1229.3812154696134" y="975.0"/>
      <point x="1158.988950276243" y="991.2762430939226"/>
      <point x="1092.2651933701657" y="991.2762430939226" type="curve" smooth="yes"/>
      <point x="778.2651933701658" y="991.2762430939226"/>
      <point x="564.8674033149172" y="675.2154696132596"/>
      <point x="564.8674033149172" y="360.6574585635359" type="curve" smooth="yes"/>
      <point x="564.8674033149172" y="123.353591160221"/>
      <point x="690.7348066298342" y="-13.37016574585635"/>
      <point x="841.5138121546961" y="-13.37016574585635" type="curve" smooth="yes"/>
      <point x="1012.7513812154696" y="-13.37016574585635"/>
      <point x="1131.4475138121547" y="169.00552486187846"/>
      <point x="1211.2099447513813" y="434.57458563535914" type="curve"/>
      <point x="1189.4198895027625" y="290.56353591160223"/>
      <point x="1178.4585635359117" y="191.51381215469613"/>
      <point x="1181.1823204419888" y="142.20994475138122" type="curve" smooth="yes"/>
      <point x="1186.9060773480662" y="35.73480662983426"/>
      <point x="1260.353591160221" y="-4.68508287292817"/>
      <point x="1351.8950276243095" y="-4.68508287292817" type="curve" smooth="yes"/>
      <point x="1606.2596685082872" y="-4.68508287292817"/>
      <point x="1973.8508287292818" y="292.292817679558"/>
      <point x="1973.8508287292818" y="795.6850828729282" type="curve" smooth="yes"/>
      <point x="1973.8508287292818" y="1232.2209944751382"/>
      <point x="1699.011049723757" y="1524.988950276243"/>
      <point x="1247.2044198895028" y="1524.988950276243" type="curve" smooth="yes"/>
      <point x="680.939226519337" y="1524.988950276243"/>
      <point x="142.0" y="1049.1160220994475"/>
    </contour>
    <contour>
      <point x="829.2872928176796" y="444.29281767955797" type="curve" smooth="yes"/>
      <point x="829.2872928176796" y="720.4364640883978"/>
      <point x="948.0883977900552" y="933.6574585635359"/>
      <point x="1090.585635359116" y="933.6574585635359" type="curve" smooth="yes"/>
      <point x="1144.4254143646408" y="933.6574585635359"/>
      <point x="1210.2762430939226" y="896.6850828729282"/>
      <point x="1260.2486187845304" y="848.5138121546961" type="curve"/>
      <point x="1256.657458563536" y="787.1602209944751"/>
      <point x="1225.4198895027625" y="652.8397790055249"/>
      <point x="1203.2099447513813" y="576.182320441989" type="curve" smooth="yes"/>
      <point x="1131.8839779005525" y="331.292817679558"/>
      <point x="1034.6519337016575" y="164.54696132596683"/>
      <point x="945.9558011049724" y="164.54696132596683" type="curve" smooth="yes"/>
      <point x="868.4033149171271" y="164.54696132596683"/>
      <point x="829.2872928176796" y="292.44198895027625"/>
    </contour>
  </outline>
</glyph>
<glyph name="A" format="2">
  <advance width="1255.5082872928176"/>
  <unicode hex="0041"/>
  <anchor x="582.9281767955802" y="0.0" name="bottom"/>
  <anchor x="1154.0" y="20.0" name="ogonek"/>
  <anchor x="624.1546961325967" y="1486.0" name="top"/>
  <outline>
    <contour>
      <point x="31.558011049723774" y="73.51381215469613" type="line"/>
      <point x="-112.70718232044197" y="37.447513812154696" type="line"/>
      <point x="-112.70718232044194" y="0.0" type="line"/>
      <point x="278.17679558011054" y="0.0" type="line"/>
      <point x="278.17679558011054" y="37.447513812154696" type="line"/>
      <point x="139.38674033149175" y="71.17127071823205" type="line"/>
      <point x="242.70165745856355" y="441.90607734806633" type="line"/>
      <point x="736.4309392265194" y="441.90607734806633" type="line"/>
      <point x="845.5745856353592" y="71.17127071823204" type="line"/>
      <point x="705.2320441988951" y="37.447513812154696" type="line"/>
      <point x="705.2320441988951" y="0.0" type="line"/>
      <point x="1324.7900552486187" y="0.0" type="line"/>
      <point x="1324.7900552486187" y="37.447513812154696" type="line"/>
      <point x="1206.3701657458564" y="69.0" type="line"/>
      <point x="747.1325966850828" y="1490.5911602209944" type="line"/>
      <point x="506.3204419889503" y="1490.5911602209944" type="line"/>
    </contour>
    <contour>
      <point x="713.9834254143647" y="506.4585635359116" type="line"/>
      <point x="264.1491712707183" y="506.4585635359116" type="line"/>
      <point x="461.19889502762436" y="1133.7513812154696" type="line"/>
      <point x="495.0662983425415" y="1251.8287292817681" type="line"/>
      <point x="526.5524861878454" y="1133.7513812154696" type="line"/>
    </contour>
  </outline>
</glyph>
<glyph name="C" format="2">
  <advance width="1254.3314917127072"/>
  <unicode hex="0043"/>
  <anchor x="701.5303867403314" y="0.0" name="bottom"/>
  <anchor x="723.243093922652" y="1486.0" name="top"/>
  <outline>
    <contour>
      <point x="725.9005524861878" y="-21.447513812154696" type="curve" smooth="yes"/>
      <point x="992.1767955801105" y="-21.447513812154696"/>
      <point x="1045.1767955801106" y="52.89502762430939"/>
      <point x="1149.1767955801106" y="54.0" type="curve"/>
      <point x="1186.5580110497237" y="426.81215469613255" type="line"/>
      <point x="1056.171270718232" y="439.0220994475138" type="line"/>
      <point x="972.4861878453039" y="174.05524861878453" type="line"/>
      <point x="945.0939226519337" y="116.98895027624309"/>
      <point x="867.7127071823204" y="34.06629834254143"/>
      <point x="766.0055248618785" y="34.06629834254143" type="curve" smooth="yes"/>
      <point x="478.33149171270713" y="34.06629834254143"/>
      <point x="388.1767955801105" y="386.5524861878453"/>
      <point x="388.1767955801105" y="754.6850828729282" type="curve" smooth="yes"/>
      <point x="388.1767955801105" y="1226.4917127071824"/>
      <point x="516.1436464088397" y="1447.828729281768"/>
      <point x="759.4751381215469" y="1447.828729281768" type="curve" smooth="yes"/>
      <point x="876.0276243093922" y="1447.828729281768"/>
      <point x="930.9060773480663" y="1390.6685082872928"/>
      <point x="948.0883977900553" y="1334.7845303867402" type="curve"/>
      <point x="994.5635359116022" y="1034.1767955801106" type="line"/>
      <point x="1167.0441988950276" y="1034.1767955801106" type="line"/>
      <point x="1210.5469613259668" y="1437.2762430939226" type="line"/>
      <point x="1053.6961325966852" y="1437.2762430939226"/>
      <point x="986.646408839779" y="1505.6187845303868"/>
      <point x="738.5138121546961" y="1505.6187845303868" type="curve" smooth="yes"/>
      <point x="315.1436464088398" y="1505.6187845303868"/>
      <point x="30.000000000000007" y="1204.1602209944751"/>
      <point x="30.000000000000007" y="731.5138121546961" type="curve" smooth="yes"/>
      <point x="30.000000000000007" y="295.353591160221"/>
      <point x="250.82872928176795" y="-21.447513812154696"/>
    </contour>
  </outline>
</glyph>
<glyph name="D" format="2">
  <advance width="1410.1767955801106"/>
  <unicode hex="0044"/>
  <anchor x="709.2375690607735" y="0.0" name="bottom"/>
  <anchor x="779.7348066298342" y="764.0" name="center"/>
  <anchor x="312.20441988950273" y="763.0" name="lstem"/>
  <anchor x="709.2375690607735" y="1486.0" name="top"/>
  <outline>
    <contour>
      <point x="155.59116022099448" y="74.96132596685082" type="line"/>
      <point x="19.65745856353591" y="36.72375690607735" type="line"/>
      <point x="19.65745856353591" y="0.0" type="line"/>
      <point x="274.3314917127072" y="0.0" type="line" smooth="yes"/>
      <point x="346.8066298342541" y="0.0"/>
      <point x="518.3867403314918" y="-14.828729281767956"/>
      <point x="620.3977900552486" y="-16.276243093922652" type="curve" smooth="yes"/>
      <point x="1105.696132596685" y="-23.51381215469613"/>
      <point x="1358.4806629834254" y="312.30386740331494"/>
      <point x="1358.4806629834254" y="790.7900552486187" type="curve" smooth="yes"/>
      <point x="1358.4806629834254" y="1195.8563535911603"/>
      <point x="1193.3922651933701" y="1498.4475138121547"/>
      <point x="651.2044198895028" y="1498.4475138121547" type="curve" smooth="yes"/>
      <point x="536.3093922651933" y="1498.4475138121547"/>
      <point x="384.0055248618784" y="1486.0"/>
      <point x="267.9889502762431" y="1486.0" type="curve" smooth="yes"/>
      <point x="20.933701657458563" y="1486.0" type="line"/>
      <point x="20.933701657458563" y="1450.0" type="line"/>
      <point x="155.59116022099448" y="1414.2099447513813" type="line"/>
    </contour>
    <contour>
      <point x="472.98895027624303" y="64.82872928176795" type="curve"/>
      <point x="472.98895027624303" y="1425.657458563536" type="line"/>
      <point x="491.16022099447514" y="1427.657458563536"/>
      <point x="554.5635359116022" y="1441.2099447513813"/>
      <point x="611.2707182320441" y="1441.2099447513813" type="curve" smooth="yes"/>
      <point x="906.8011049723757" y="1441.2099447513813"/>
      <point x="1012.7513812154697" y="1168.9281767955802"/>
      <point x="1012.7513812154697" y="753.5911602209944" type="curve" smooth="yes"/>
      <point x="1012.7513812154697" y="291.0220994475138"/>
      <point x="869.4419889502763" y="46.027624309392266"/>
      <point x="607.3480662983425" y="41.68508287292818" type="curve" smooth="yes"/>
      <point x="564.9558011049724" y="40.96132596685082"/>
      <point x="510.9226519337016" y="49.0"/>
    </contour>
  </outline>
</glyph>
<glyph name="E" format="2">
  <advance width="1239.232044198895"/>
  <unicode hex="0045"/>
  <anchor x="631.1767955801105" y="0.0" name="bottom"/>
  <anchor x="1047.585635359116" y="20.0" name="ogonek"/>
  <anchor x="648.9668508287293" y="1486.0" name="top"/>
  <anchor x="32.68508287292818" y="1486.0" name="topleft"/>
  <outline>
    <contour>
      <point x="155.59116022099448" y="74.96132596685084" type="line"/>
      <point x="19.65745856353591" y="36.72375690607735" type="line"/>
      <point x="19.65745856353591" y="0.0" type="line"/>
      <point x="1148.6408839779006" y="0.0" type="line"/>
      <point x="1234.524861878453" y="410.3756906077348" type="line"/>
      <point x="1090.1491712707182" y="430.03314917127074" type="line"/>
      <point x="934.1325966850828" y="107.01657458563537" type="line"/>
      <point x="474.43646408839777" y="55.96132596685083" type="line"/>
      <point x="474.43646408839777" y="736.6574585635359" type="line"/>
      <point x="737.4640883977901" y="726.3425414364641" type="line"/>
      <point x="807.4806629834254" y="484.09944751381215" type="line"/>
      <point x="857.1381215469613" y="484.09944751381215" type="line"/>
      <point x="857.1381215469613" y="1026.7016574585634" type="line"/>
      <point x="807.4806629834254" y="1026.7016574585634" type="line"/>
      <point x="737.4640883977901" y="797.8674033149172" type="line"/>
      <point x="474.43646408839777" y="786.7237569060774" type="line"/>
      <point x="474.43646408839777" y="1429.2099447513813" type="line"/>
      <point x="885.4917127071824" y="1398.1160220994475" type="line"/>
      <point x="1009.7845303867402" y="1131.2044198895028" type="line"/>
      <point x="1127.171270718232" y="1131.2044198895028" type="line"/>
      <point x="1094.828729281768" y="1486.0" type="line"/>
      <point x="20.65745856353591" y="1486.0" type="line"/>
      <point x="20.65745856353591" y="1450.0" type="line"/>
      <point x="155.59116022099448" y="1414.2099447513813" type="line"/>
    </contour>
  </outline>
</glyph>
<glyph name="F" format="2">
  <advance width="1136.0883977900553"/>
  <unicode hex="0046"/>
  <anchor x="313.3756906077348" y="0.0" name="bottom"/>
  <anchor x="651.5966850828729" y="1486.0" name="top"/>
  <outline>
    <contour>
      <point x="155.59116022099448" y="70.61878453038673" type="line"/>
      <point x="19.65745856353591" y="37.447513812154696" type="line"/>
      <point x="19.65745856353591" y="0.0" type="line"/>
      <point x="688.6740331491712" y="0.0" type="line"/>
      <point x="688.6740331491712" y="37.447513812154696" type="line"/>
      <point x="474.43646408839777" y="70.61878453038673" type="line"/>
      <point x="474.43646408839777" y="717.6298342541436" type="line"/>
      <point x="737.7403314917127" y="708.9723756906077" type="line"/>
      <point x="807.4806629834254" y="466.7292817679558" type="line"/>
      <point x="857.1381215469613" y="466.7292817679558" type="line"/>
      <point x="857.1381215469613" y="1009.3314917127071" type="line"/>
      <point x="808.2044198895028" y="1009.3314917127071" type="line"/>
      <point x="737.7403314917127" y="780.4972375690608" type="line"/>
      <point x="474.43646408839777" y="771.0110497237569" type="line"/>
      <point x="474.43646408839777" y="1427.9337016574586" type="line"/>
      <point x="853.3425414364641" y="1398.1160220994475" type="line"/>
      <point x="973.1878453038674" y="1116.7292817679559" type="line"/>
      <point x="1093.022099447514" y="1116.7292817679559" type="line"/>
      <point x="1064.5745856353592" y="1486.0" type="line"/>
      <point x="20.65745856353591" y="1486.0" type="line"/>
      <point x="20.65745856353591" y="1450.0" type="line"/>
      <point x="155.59116022099448" y="1414.2099447513813" type="line"/>
    </contour>
  </outline>
</glyph>
<glyph name="G" format="2">
  <advance width="1389.6906077348067"/>
  <unicode hex="0047"/>
  <anchor x="721.2541436464088" y="0.0" name="bottom"/>
  <anchor x="1155.8342541436464" y="346.10497237569064" name="rstem"/>
  <anchor x="781.2541436464088" y="1486.0" name="top"/>
  <outline>
    <contour>
      <point x="702.6077348066299" y="-21.447513812154696" type="curve" smooth="yes"/>
      <point x="1045.5469613259668" y="-21.447513812154696"/>
      <point x="1111.3977900552486" y="78.89502762430939"/>
      <point x="1277.4309392265193" y="80.0" type="curve"/>
      <point x="1277.4309392265193" y="623.2099447513813" type="line"/>
      <point x="1371.9281767955802" y="643.4861878453039" type="line"/>
      <point x="1371.9281767955802" y="700.6298342541437" type="line"/>
      <point x="793.4088397790056" y="700.6298342541437" type="line"/>
      <point x="793.4088397790056" y="643.4861878453039" type="line"/>
      <point x="988.1933701657458" y="623.2099447513813" type="line"/>
      <point x="988.1933701657458" y="166.5966850828729" type="line"/>
      <point x="947.1436464088398" y="84.13259668508287"/>
      <point x="845.4475138121547" y="34.61878453038675"/>
      <point x="735.7513812154696" y="34.61878453038675" type="curve" smooth="yes"/>
      <point x="467.6187845303867" y="34.61878453038675"/>
      <point x="390.93922651933696" y="388.8674033149171"/>
      <point x="392.38674033149164" y="756.0662983425415" type="curve" smooth="yes"/>
      <point x="393.8342541436464" y="1226.4917127071824"/>
      <point x="502.9834254143646" y="1448.3812154696132"/>
      <point x="733.9171270718232" y="1448.3812154696132" type="curve" smooth="yes"/>
      <point x="906.9226519337017" y="1448.3812154696132"/>
      <point x="962.5248618784531" y="1390.6685082872928"/>
      <point x="979.9834254143647" y="1334.7845303867402" type="curve"/>
      <point x="1029.7734806629835" y="1034.1767955801106" type="line"/>
      <point x="1218.4806629834254" y="1034.1767955801106" type="line"/>
      <point x="1261.707182320442" y="1437.2762430939226" type="line"/>
      <point x="1104.8563535911603" y="1437.2762430939226"/>
      <point x="1022.1602209944751" y="1505.6187845303868"/>
      <point x="744.1049723756906" y="1505.6187845303868" type="curve" smooth="yes"/>
      <point x="301.98342541436466" y="1505.6187845303868"/>
      <point x="32.76243093922652" y="1204.1602209944751"/>
      <point x="32.76243093922652" y="731.2375690607735" type="curve" smooth="yes"/>
      <point x="32.76243093922652" y="298.3922651933702"/>
      <point x="244.62983425414365" y="-21.447513812154696"/>
    </contour>
  </outline>
</glyph>
<glyph name="I" format="2">
  <advance width="647.6353591160221"/>
  <unicode hex="0049"/>
  <anchor x="319.61325966850825" y="2.220446049250313e-14" name="bottom"/>
  <anchor x="422.3701657458563" y="20.0" name="ogonek"/>
  <anchor x="319.61325966850825" y="1486.0" name="top"/>
  <anchor x="29.541436464088395" y="1486.0" name="topleft"/>
  <outline>
    <contour>
      <point x="156.48618784530387" y="70.61878453038673" type="line"/>
      <point x="21.65745856353591" y="37.447513812154696" type="line"/>
      <point x="21.65745856353591" y="0.0" type="line"/>
      <point x="625.9779005524862" y="0.0" type="line"/>
      <point x="625.9779005524862" y="37.447513812154696" type="line"/>
      <point x="476.95027624309387" y="70.61878453038673" type="line"/>
      <point x="476.95027624309387" y="1414.2099447513813" type="line"/>
      <point x="625.2541436464088" y="1450.0" type="line"/>
      <point x="625.2541436464088" y="1486.0" type="line"/>
      <point x="22.38121546961326" y="1486.0" type="line"/>
      <point x="22.38121546961326" y="1450.0" type="line"/>
      <point x="156.48618784530387" y="1414.2099447513813" type="line"/>
    </contour>
  </outline>
</glyph>
<glyph name="J" format="2">
  <advance width="647.6353591160221"/>
  <unicode hex="004A"/>
  <anchor x="311.61325966850825" y="1486.0" name="top"/>
  <outline>
    <contour>
      <point x="-73.78453038674034" y="-321.9889502762431" type="curve"/>
      <point x="-38.46961325966852" y="-375.67403314917124" type="line"/>
      <point x="210.24861878453035" y="-345.121546961326"/>
      <point x="400.9226519337016" y="-188.0939226519337"/>
      <point x="459.01657458563534" y="31.48618784530387" type="curve" smooth="yes"/>
      <point x="485.18784530386733" y="133.04972375690608"/>
      <point x="485.2541436464088" y="307.6685082872928"/>
      <point x="485.2541436464088" y="529.5580110497237" type="curve" smooth="yes"/>
      <point x="485.2541436464088" y="1414.2099447513813" type="line"/>
      <point x="623.7679558011049" y="1450.0" type="line"/>
      <point x="623.7679558011049" y="1486.0" type="line"/>
      <point x="21.408839779005522" y="1486.0" type="line"/>
      <point x="21.408839779005522" y="1450.0" type="line"/>
      <point x="164.96132596685084" y="1414.2099447513813" type="line"/>
      <point x="164.96132596685084" y="369.9337016574586" type="line" smooth="yes"/>
      <point x="164.96132596685084" y="134.90055248618785"/>
      <point x="153.0" y="12.76795580110499"/>
      <point x="125.17127071823205" y="-76.62430939226518" type="curve" smooth="yes"/>
      <point x="79.93370165745856" y="-220.45303867403314"/>
      <point x="30.46408839779005" y="-281.30386740331494"/>
    </contour>
  </outline>
</glyph>
<glyph name="K" format="2">
  <advance width="1390.646408839779"/>
  <unicode hex="004B"/>
  <anchor x="785.9723756906077" y="0.0" name="bottom"/>
  <anchor x="796.5303867403314" y="1483.828729281768" name="top"/>
  <outline>
    <contour>
      <point x="986.7624309392265" y="0.0" type="curve"/>
      <point x="1395.121546961326" y="0.7237569060773479" type="line"/>
      <point x="1395.121546961326" y="38.17127071823205" type="line"/>
      <point x="1328.596685082873" y="66.55248618784532" type="line"/>
      <point x="1209.5801104972375" y="192.35359116022096"/>
      <point x="916.1602209944751" y="886.0939226519337"/>
      <point x="792.4419889502763" y="961.8508287292817" type="curve"/>
      <point x="718.5414364640884" y="838.3591160220994" type="line"/>
      <point x="1167.353591160221" y="1412.5911602209944" type="line"/>
      <point x="1327.646408839779" y="1447.828729281768" type="line"/>
      <point x="1327.646408839779" y="1486.7237569060774" type="line"/>
      <point x="881.6022099447514" y="1486.0" type="line"/>
      <point x="881.6022099447514" y="1449.2762430939226" type="line"/>
      <point x="1056.7624309392265" y="1414.2099447513813" type="line"/>
      <point x="411.35359116022096" y="532.5359116022099" type="line"/>
      <point x="475.88397790055245" y="596.8066298342542" type="line"/>
      <point x="475.88397790055245" y="1414.2099447513813" type="line"/>
      <point x="620.817679558011" y="1450.0" type="line"/>
      <point x="620.817679558011" y="1486.0" type="line"/>
      <point x="20.65745856353591" y="1486.0" type="line"/>
      <point x="20.65745856353591" y="1450.0" type="line"/>
      <point x="155.59116022099448" y="1414.2099447513813" type="line"/>
      <point x="155.59116022099448" y="69.89502762430939" type="line"/>
      <point x="19.65745856353591" y="37.72375690607735" type="line"/>
      <point x="19.65745856353591" y="0.0" type="line"/>
      <point x="622.1988950276243" y="0.0" type="line"/>
      <point x="622.1988950276243" y="37.447513812154696" type="line"/>
      <point x="475.88397790055245" y="69.89502762430939" type="line"/>
      <point x="475.88397790055245" y="553.1325966850828" type="line"/>
      <point x="408.28729281767954" y="431.64088397790056" type="line"/>
      <point x="674.8950276243094" y="784.817679558011" type="line"/>
      <point x="591.7734806629834" y="709.8232044198895" type="line"/>
      <point x="693.8066298342542" y="612.0"/>
      <point x="905.1160220994475" y="0.0"/>
    </contour>
  </outline>
</glyph>
<glyph name="L" format="2">
  <advance width="1156.524861878453"/>
  <unicode hex="004C"/>
  <anchor x="658.0552486187845" y="0.0" name="bottom"/>
  <anchor x="637.0662983425415" y="744.0000000000002" name="center"/>
  <anchor x="393.84530386740335" y="1486.0" name="top"/>
  <anchor x="896.889502762431" y="1110.7237569060774" name="topright"/>
  <outline>
    <contour>
      <point x="155.59116022099448" y="74.96132596685084" type="line"/>
      <point x="19.65745856353591" y="36.72375690607735" type="line"/>
      <point x="19.65745856353591" y="0.0" type="line"/>
      <point x="1080.353591160221" y="0.0" type="line"/>
      <point x="1149.2872928176796" y="429.7513812154696" type="line"/>
      <point x="1009.5303867403316" y="453.71270718232046" type="line"/>
      <point x="865.8453038674033" y="111.98895027624309" type="line"/>
      <point x="474.43646408839777" y="60.10497237569061" type="line"/>
      <point x="474.71270718232046" y="1414.2099447513813" type="line"/>
      <point x="635.4364640883978" y="1450.0" type="line"/>
      <point x="635.4364640883978" y="1486.0" type="line"/>
      <point x="20.65745856353591" y="1486.0" type="line"/>
      <point x="20.65745856353591" y="1450.0" type="line"/>
      <point x="155.59116022099448" y="1414.2099447513813" type="line"/>
    </contour>
  </outline>
</glyph>
<glyph name="M" format="2">
  <advance width="1809.6132596685084"/>
  <unicode hex="004D"/>
  <anchor x="874.2375690607735" y="0.0" name="bottom"/>
  <anchor x="1859.4309392265193" y="0.0" name="bottomright"/>
  <anchor x="900.8066298342542" y="1486.0" name="top"/>
  <outline>
    <contour>
      <point x="106.07734806629834" y="67.96132596685084" type="line"/>
      <point x="-48.09392265193371" y="36.0" type="line"/>
      <point x="-48.09392265193371" y="0.0" type="line"/>
      <point x="375.32596685082876" y="0.0" type="line"/>
      <point x="375.32596685082876" y="36.0" type="line"/>
      <point x="205.83977900552486" y="67.96132596685084" type="line"/>
      <point x="302.0497237569061" y="1037.7127071823204" type="line"/>
      <point x="337.8121546961326" y="1376.2983425414366" type="line"/>
      <point x="425.41436464088395" y="1038.4364640883978" type="line"/>
      <point x="663.9116022099447" y="61.14364640883978" type="line"/>
      <point x="947.3480662983426" y="61.14364640883978" type="line"/>
      <point x="1166.7734806629835" y="1044.342541436464" type="line"/>
      <point x="1240.5469613259668" y="1376.2983425414366" type="line"/>
      <point x="1278.2707182320441" y="1036.2651933701657" type="line"/>
      <point x="1375.375690607735" y="68.68508287292818" type="line"/>
      <point x="1222.364640883978" y="37.447513812154696" type="line"/>
      <point x="1222.364640883978" y="0.0" type="line"/>
      <point x="1857.707182320442" y="0.0" type="line"/>
      <point x="1857.707182320442" y="36.0" type="line"/>
      <point x="1711.011049723757" y="69.23756906077348" type="line"/>
      <point x="1555.486187845304" y="1413.828729281768" type="line"/>
      <point x="1711.171270718232" y="1451.0" type="line"/>
      <point x="1711.171270718232" y="1486.0" type="line"/>
      <point x="1184.8121546961327" y="1486.0" type="line"/>
      <point x="977.2651933701658" y="531.6022099447514" type="line"/>
      <point x="922.7292817679559" y="258.24309392265195" type="line"/>
      <point x="866.9171270718232" y="528.707182320442" type="line"/>
      <point x="646.6574585635359" y="1486.0" type="line"/>
      <point x="115.73480662983425" y="1486.0" type="line"/>
      <point x="115.73480662983425" y="1451.0" type="line"/>
      <point x="272.77348066298345" y="1413.828729281768" type="line"/>
    </contour>
  </outline>
</glyph>
<glyph name="N" format="2">
  <advance width="1350.220994475138"/>
  <unicode hex="004E"/>
  <anchor x="679.4585635359116" y="0.0" name="bottom"/>
  <anchor x="682.8011049723757" y="1486.0" name="top"/>
  <outline>
    <contour>
      <point x="154.28729281767954" y="87.26519337016575" type="line"/>
      <point x="-9.292817679558013" y="36.0" type="line"/>
      <point x="-9.292817679558013" y="0.0" type="line"/>
      <point x="406.7348066298343" y="0.0" type="line"/>
      <point x="406.7348066298343" y="36.0" type="line"/>
      <point x="235.02209944751382" y="87.26519337016573" type="line"/>
      <point x="230.11602209944755" y="1214.0386740331492" type="line"/>
      <point x="328.57458563535914" y="1043.4640883977902" type="line"/>
      <point x="989.9668508287293" y="0.0" type="line"/>
      <point x="1198.7237569060774" y="0.0" type="line"/>
      <point x="1203.9723756906078" y="1399.4585635359117" type="line"/>
      <point x="1366.9613259668508" y="1450.0" type="line"/>
      <point x="1366.9613259668508" y="1486.0" type="line"/>
      <point x="955.0773480662983" y="1486.0" type="line"/>
      <point x="955.0773480662983" y="1450.0" type="line"/>
      <point x="1123.513812154696" y="1399.4585635359117" type="line"/>
      <point x="1129.486187845304" y="327.6906077348066" type="line"/>
      <point x="1011.4751381215469" y="544.5801104972376" type="line"/>
      <point x="415.82320441988946" y="1486.0" type="line"/>
      <point x="-1.8729281767955683" y="1486.0" type="line"/>
      <point x="-1.8729281767955683" y="1436.9723756906078" type="line"/>
      <point x="58.19337016574586" y="1434.2099447513813"/>
      <point x="153.707182320442" y="1331.3480662983425"/>
      <point x="159.87845303867402" y="1279.6740331491712" type="curve"/>
    </contour>
  </outline>
</glyph>
<glyph name="O" format="2">
  <advance width="1399.5027624309391"/>
  <unicode hex="004F"/>
  <anchor x="722.9116022099447" y="0.0" name="bottom"/>
  <anchor x="700.4751381215469" y="741.0" name="center"/>
  <anchor x="807.3314917127071" y="17.23756906077348" name="ogonek"/>
  <anchor x="845.0246022099448" y="0.0" name="qq"/>
  <anchor x="706.646408839779" y="1486.0" name="top"/>
  <anchor x="34.22651933701657" y="1486.0" name="topleft"/>
  <anchor x="1206.0497237569061" y="1486.0" name="topright"/>
  <outline>
    <contour>
      <point x="687.9226519337017" y="-24.895027624309392" type="curve" smooth="yes"/>
      <point x="1139.1546961325967" y="-24.895027624309392"/>
      <point x="1368.254143646409" y="306.76795580110496"/>
      <point x="1368.254143646409" y="768.6187845303867" type="curve" smooth="yes"/>
      <point x="1368.254143646409" y="1203.867403314917"/>
      <point x="1172.243093922652" y="1504.8950276243095"/>
      <point x="717.5801104972376" y="1504.8950276243095" type="curve" smooth="yes"/>
      <point x="262.3480662983426" y="1504.8950276243095"/>
      <point x="31.248618784530386" y="1178.4419889502763"/>
      <point x="31.248618784530386" y="720.3812154696133" type="curve" smooth="yes"/>
      <point x="31.248618784530386" y="282.82872928176795"/>
      <point x="229.08839779005527" y="-24.895027624309392"/>
    </contour>
    <contour>
      <point x="702.4751381215469" y="1448.3812154696132" type="curve" smooth="yes"/>
      <point x="919.1104972375691" y="1448.3812154696132"/>
      <point x="1020.2099447513813" y="1174.1988950276243"/>
      <point x="1020.2099447513813" y="768.6187845303867" type="curve" smooth="yes"/>
      <point x="1020.2099447513813" y="281.68508287292815"/>
      <point x="900.243093922652" y="30.895027624309392"/>
      <point x="699.3701657458563" y="30.895027624309392" type="curve" smooth="yes"/>
      <point x="479.1160220994475" y="30.895027624309392"/>
      <point x="379.29281767955797" y="303.646408839779"/>
      <point x="379.29281767955797" y="720.3812154696133" type="curve" smooth="yes"/>
      <point x="379.29281767955797" y="1206.3149171270718"/>
      <point x="497.2596685082873" y="1448.3812154696132"/>
    </contour>
  </outline>
</glyph>
<glyph name="P" format="2">
  <advance width="1252.46408839779"/>
  <unicode hex="0050"/>
  <anchor x="314.88950276243094" y="0.0" name="bottom"/>
  <anchor x="661.2209944751381" y="1486.0" name="top"/>
  <outline>
    <contour>
      <point x="155.31491712707185" y="71.61878453038673" type="line"/>
      <point x="19.65745856353591" y="36.72375690607735" type="line"/>
      <point x="19.65745856353591" y="0.0" type="line"/>
      <point x="652.0" y="0.0" type="line"/>
      <point x="652.0" y="37.447513812154696" type="line"/>
      <point x="471.98895027624303" y="70.89502762430939" type="line"/>
      <point x="472.7127071823204" y="550.2541436464089" type="line"/>
      <point x="495.5138121546961" y="546.8729281767957"/>
      <point x="578.4696132596684" y="541.0441988950276"/>
      <point x="630.2209944751381" y="541.3204419889503" type="curve" smooth="yes"/>
      <point x="1005.8397790055249" y="544.0828729281768"/>
      <point x="1212.6077348066299" y="708.9779005524862"/>
      <point x="1212.6077348066299" y="1039.745856353591" type="curve" smooth="yes"/>
      <point x="1212.6077348066299" y="1328.2762430939226"/>
      <point x="1056.867403314917" y="1500.5524861878453"/>
      <point x="662.5635359116022" y="1498.3812154696132" type="curve" smooth="yes"/>
      <point x="522.6519337016574" y="1497.657458563536"/>
      <point x="420.0055248618784" y="1486.0"/>
      <point x="321.2707182320442" y="1486.0" type="curve" smooth="yes"/>
      <point x="20.65745856353591" y="1486.0" type="line"/>
      <point x="20.65745856353591" y="1450.0" type="line"/>
      <point x="155.31491712707185" y="1414.2099447513813" type="line"/>
    </contour>
    <contour>
      <point x="471.98895027624303" y="616.767955801105" type="curve"/>
      <point x="471.98895027624303" y="1430.828729281768" type="line"/>
      <point x="505.75138121546956" y="1434.4475138121547"/>
      <point x="557.1657458563536" y="1444.7624309392265"/>
      <point x="613.4806629834254" y="1444.7624309392265" type="curve" smooth="yes"/>
      <point x="819.3922651933701" y="1444.7624309392265"/>
      <point x="873.6298342541436" y="1260.6132596685084"/>
      <point x="873.6298342541436" y="1034.6795580110497" type="curve" smooth="yes"/>
      <point x="873.6298342541436" y="740.0055248618785"/>
      <point x="769.9834254143647" y="606.1104972375691"/>
      <point x="600.7845303867404" y="603.3480662983426" type="curve" smooth="yes"/>
      <point x="553.8121546961326" y="602.7955801104972"/>
      <point x="502.7237569060773" y="608.5580110497237"/>
    </contour>
  </outline>
</glyph>
<glyph name="R" format="2">
  <advance width="1341.132596685083"/>
  <unicode hex="0052"/>
  <anchor x="740.9668508287293" y="0.0" name="bottom"/>
  <anchor x="663.5966850828729" y="1486.0" name="top"/>
  <outline>
    <contour>
      <point x="19.65745856353591" y="0.0" type="line"/>
      <point x="630.707182320442" y="0.0" type="line"/>
      <point x="630.707182320442" y="37.447513812154696" type="line"/>
      <point x="469.1325966850829" y="70.89502762430939" type="line"/>
      <point x="469.1325966850829" y="644.707182320442" type="line"/>
      <point x="512.1988950276243" y="644.1546961325967"/>
      <point x="593.7182320441989" y="643.878453038674"/>
      <point x="648.4806629834254" y="643.878453038674" type="curve"/>
      <point x="803.0718232044198" y="604.9005524861878"/>
      <point x="893.1160220994475" y="0.0"/>
      <point x="987.4198895027624" y="0.0" type="curve" smooth="yes"/>
      <point x="1353.3425414364642" y="0.0" type="line"/>
      <point x="1353.3425414364642" y="37.447513812154696" type="line"/>
      <point x="1294.292817679558" y="62.80110497237569" type="line"/>
      <point x="1219.5303867403316" y="97.22099447513813"/>
      <point x="1126.353591160221" y="630.878453038674"/>
      <point x="876.3977900552486" y="687.828729281768" type="curve"/>
      <point x="1077.0552486187846" y="744.4088397790056"/>
      <point x="1182.0" y="929.9889502762431"/>
      <point x="1182.0" y="1104.867403314917" type="curve" smooth="yes"/>
      <point x="1182.0" y="1359.2651933701657"/>
      <point x="1039.9447513812154" y="1499.828729281768"/>
      <point x="620.3756906077348" y="1499.828729281768" type="curve" smooth="yes"/>
      <point x="485.7955801104972" y="1499.828729281768"/>
      <point x="412.77348066298345" y="1486.0"/>
      <point x="298.9281767955801" y="1486.0" type="curve" smooth="yes"/>
      <point x="20.65745856353591" y="1486.0" type="line"/>
      <point x="20.65745856353591" y="1450.0" type="line"/>
      <point x="158.07734806629833" y="1414.2099447513813" type="line"/>
      <point x="158.07734806629833" y="71.61878453038673" type="line"/>
      <point x="19.65745856353591" y="36.72375690607735" type="line"/>
    </contour>
    <contour>
      <point x="614.0883977900553" y="702.5635359116022" type="curve" smooth="yes"/>
      <point x="579.8397790055249" y="702.5635359116022"/>
      <point x="508.353591160221" y="703.0497237569061"/>
      <point x="469.1325966850829" y="710.878453038674" type="curve"/>
      <point x="469.1325966850829" y="1430.2762430939226" type="line"/>
      <point x="494.7513812154696" y="1434.0"/>
      <point x="510.707182320442" y="1444.7624309392265"/>
      <point x="589.939226519337" y="1444.7624309392265" type="curve" smooth="yes"/>
      <point x="786.0386740331492" y="1444.7624309392265"/>
      <point x="857.1160220994475" y="1307.878453038674"/>
      <point x="857.1160220994475" y="1094.524861878453" type="curve" smooth="yes"/>
      <point x="857.1160220994475" y="861.5138121546961"/>
      <point x="780.4475138121547" y="702.5635359116022"/>
    </contour>
  </outline>
</glyph>
<glyph name="S" format="2">
  <advance width="1146.7900552486187"/>
  <unicode hex="0053"/>
  <anchor x="548.0331491712707" y="0.0" name="bottom"/>
  <anchor x="629.7458563535911" y="1486.0" name="top"/>
  <outline>
    <contour>
      <point x="541.110497237569" y="-22.0" type="curve" smooth="yes"/>
      <point x="958.6574585635359" y="-22.0"/>
      <point x="1102.7900552486187" y="194.03867403314916"/>
      <point x="1103.513812154696" y="406.22651933701655" type="curve" smooth="yes"/>
      <point x="1104.2375690607735" y="653.4861878453039"/>
      <point x="867.4088397790055" y="780.292817679558"/>
      <point x="689.9502762430939" y="873.7403314917127" type="curve" smooth="yes"/>
      <point x="508.1767955801105" y="969.5690607734806"/>
      <point x="339.61878453038673" y="1041.46408839779"/>
      <point x="339.61878453038673" y="1219.977900552486" type="curve" smooth="yes"/>
      <point x="339.61878453038673" y="1347.9613259668508"/>
      <point x="421.40331491712703" y="1448.7237569060774"/>
      <point x="597.5193370165746" y="1450.171270718232" type="curve" smooth="yes"/>
      <point x="710.4640883977901" y="1450.8950276243095"/>
      <point x="778.9116022099447" y="1407.2375690607735"/>
      <point x="798.2265193370166" y="1378.8950276243095" type="curve"/>
      <point x="844.8839779005525" y="1096.7845303867402" type="line"/>
      <point x="998.9834254143647" y="1096.7845303867402" type="line"/>
      <point x="1034.1436464088397" y="1432.8950276243095" type="line"/>
      <point x="981.1160220994475" y="1436.513812154696"/>
      <point x="830.2817679558011" y="1508.6187845303868"/>
      <point x="600.6629834254144" y="1507.7900552486187" type="curve" smooth="yes"/>
      <point x="253.35359116022101" y="1506.6850828729282"/>
      <point x="73.14364640883979" y="1309.4585635359117"/>
      <point x="73.14364640883979" y="1104.6022099447514" type="curve" smooth="yes"/>
      <point x="73.14364640883979" y="826.4696132596686"/>
      <point x="297.1436464088398" y="720.2707182320443"/>
      <point x="460.9723756906077" y="634.5193370165746" type="curve" smooth="yes"/>
      <point x="659.8011049723757" y="530.1491712707183"/>
      <point x="835.3812154696133" y="436.0165745856354"/>
      <point x="835.3812154696133" y="272.17679558011054" type="curve" smooth="yes"/>
      <point x="835.3812154696133" y="149.22099447513813"/>
      <point x="756.2265193370166" y="32.72375690607735"/>
      <point x="530.4640883977901" y="34.171270718232044" type="curve" smooth="yes"/>
      <point x="411.1767955801105" y="34.89502762430939"/>
      <point x="338.8342541436464" y="85.40883977900552"/>
      <point x="295.81215469613255" y="132.17127071823205" type="curve"/>
      <point x="246.53591160220992" y="422.1491712707182" type="line"/>
      <point x="86.43646408839778" y="422.1491712707182" type="line"/>
      <point x="49.447513812154696" y="67.10497237569061" type="line"/>
      <point x="114.34254143646409" y="61.828729281767956"/>
      <point x="302.41436464088395" y="-22.0"/>
    </contour>
  </outline>
</glyph>
<glyph name="U" format="2">
  <advance width="1349.2651933701657"/>
  <unicode hex="0055"/>
  <anchor x="760.9116022099447" y="0.0" name="bottom"/>
  <anchor x="828.0" y="20.0" name="ogonek"/>
  <anchor x="751.9502762430939" y="1486.0" name="top"/>
  <anchor x="1436.0165745856355" y="1486.0" name="topright"/>
  <outline>
    <contour>
      <point x="747.8839779005525" y="-17.104972375690608" type="curve" smooth="yes"/>
      <point x="992.3922651933701" y="-17.104972375690608"/>
      <point x="1199.9502762430939" y="137.3646408839779"/>
      <point x="1201.3314917127072" y="569.4696132596686" type="curve" smooth="yes"/>
      <point x="1204.0939226519338" y="1414.486187845304" type="line"/>
      <point x="1335.646408839779" y="1450.0" type="line"/>
      <point x="1335.646408839779" y="1486.0" type="line"/>
      <point x="982.0165745856353" y="1486.0" type="line"/>
      <point x="982.0165745856353" y="1450.0" type="line"/>
      <point x="1129.3977900552486" y="1413.9337016574586" type="line"/>
      <point x="1130.779005524862" y="567.2596685082873" type="line" smooth="yes"/>
      <point x="1131.3314917127072" y="208.59116022099448"/>
      <point x="971.646408839779" y="34.17127071823204"/>
      <point x="767.3867403314916" y="34.17127071823204" type="curve" smooth="yes"/>
      <point x="591.2872928176796" y="34.17127071823204"/>
      <point x="477.9226519337016" y="139.47513812154696"/>
      <point x="477.9226519337016" y="473.9116022099448" type="curve" smooth="yes"/>
      <point x="477.9226519337016" y="1414.486187845304" type="line"/>
      <point x="629.6574585635359" y="1450.0" type="line"/>
      <point x="629.6574585635359" y="1486.0" type="line"/>
      <point x="19.999999999999996" y="1486.0" type="line"/>
      <point x="19.999999999999996" y="1450.0" type="line"/>
      <point x="157.6961325966851" y="1414.486187845304" type="line"/>
      <point x="157.6961325966851" y="536.4696132596686" type="line" smooth="yes"/>
      <point x="157.6961325966851" y="135.44751381215468"/>
      <point x="360.89502762430936" y="-17.104972375690608"/>
    </contour>
  </outline>
</glyph>
<glyph name="V" format="2">
  <advance width="1296.7513812154696"/>
  <unicode hex="0056"/>
  <outline>
    <contour>
      <point x="-36.47513812154696" y="1452.0" type="line"/>
      <point x="75.64088397790056" y="1417.0" type="line"/>
      <point x="560.3259668508288" y="-4.419889502762434" type="line"/>
      <point x="773.4530386740331" y="-4.419889502762434" type="line"/>
      <point x="1229.7955801104972" y="1417.0" type="line"/>
      <point x="1362.7292817679559" y="1452.0" type="line"/>
      <point x="1362.7292817679559" y="1486.0" type="line"/>
      <point x="986.0718232044198" y="1486.0" type="line"/>
      <point x="986.0718232044198" y="1452.0" type="line"/>
      <point x="1126.624309392265" y="1417.0" type="line"/>
      <point x="811.5359116022099" y="341.95027624309387" type="line"/>
      <point x="781.2983425414365" y="224.97790055248615" type="line"/>
      <point x="751.9558011049724" y="344.8453038674033" type="line"/>
      <point x="425.58011049723757" y="1417.0" type="line"/>
      <point x="576.0939226519337" y="1452.0" type="line"/>
      <point x="576.0939226519337" y="1486.0" type="line"/>
      <point x="-36.47513812154696" y="1486.0" type="line"/>
    </contour>
  </outline>
</glyph>
<glyph name="W" format="2">
  <advance width="1835.4198895027625"/>
  <unicode hex="0057"/>
  <anchor x="964.3038674033149" y="0.0" name="bottom"/>
  <anchor x="963.6077348066299" y="1486.0" name="top"/>
  <outline>
    <contour>
      <point x="-48.093922651933696" y="1452.2762430939226" type="line"/>
      <point x="70.74585635359117" y="1417.2762430939226" type="line"/>
      <point x="453.24309392265195" y="-4.419889502762434" type="line"/>
      <point x="683.9502762430939" y="-4.419889502762434" type="line"/>
      <point x="941.0386740331492" y="904.3701657458564" type="line"/>
      <point x="1169.232044198895" y="-4.419889502762434" type="line"/>
      <point x="1402.2817679558011" y="-4.419889502762434" type="line"/>
      <point x="1766.6850828729282" y="1417.7237569060774" type="line"/>
      <point x="1883.513812154696" y="1451.7237569060774" type="line"/>
      <point x="1883.513812154696" y="1486.0" type="line"/>
      <point x="1516.5303867403316" y="1486.0" type="line"/>
      <point x="1516.5303867403316" y="1451.7237569060774" type="line"/>
      <point x="1671.7513812154696" y="1417.7237569060774" type="line"/>
      <point x="1428.1270718232045" y="376.9116022099447" type="line"/>
      <point x="1390.7182320441989" y="195.58011049723754" type="line"/>
      <point x="1353.7955801104972" y="374.9779005524861" type="line"/>
      <point x="1122.7624309392265" y="1421.0386740331492" type="line"/>
      <point x="1251.6795580110497" y="1451.7237569060774" type="line"/>
      <point x="1251.6795580110497" y="1486.0" type="line"/>
      <point x="689.7624309392265" y="1486.0" type="line"/>
      <point x="689.7624309392265" y="1451.7237569060774" type="line"/>
      <point x="797.5745856353591" y="1421.0386740331492" type="line"/>
      <point x="897.1436464088398" y="1049.1049723756905" type="line"/>
      <point x="717.5469613259668" y="376.9116022099447" type="line"/>
      <point x="673.2817679558011" y="195.58011049723754" type="line"/>
      <point x="639.2541436464088" y="375.2541436464088" type="line"/>
      <point x="393.69613259668506" y="1418.0" type="line"/>
      <point x="515.8895027624309" y="1452.0" type="line"/>
      <point x="515.8895027624309" y="1486.0" type="line"/>
      <point x="-48.093922651933696" y="1486.2762430939226" type="line"/>
    </contour>
  </outline>
</glyph>
<glyph name="X" format="2">
  <advance width="1425.4088397790056"/>
  <unicode hex="0058"/>
  <anchor x="1410.817679558011" y="0.0" name="bottomright"/>
  <outline>
    <contour>
      <point x="212.32044198895028" y="68.51381215469613" type="line"/>
      <point x="16.801104972375693" y="37.447513812154696" type="line"/>
      <point x="17.353591160220997" y="0.0" type="line"/>
      <point x="531.4033149171271" y="0.0" type="line"/>
      <point x="530.8508287292817" y="37.447513812154696" type="line"/>
      <point x="333.3867403314917" y="69.34254143646409" type="line"/>
      <point x="625.4751381215469" y="604.4419889502763" type="line"/>
      <point x="915.7348066298342" y="69.23756906077347" type="line"/>
      <point x="758.0773480662983" y="37.447513812154696" type="line"/>
      <point x="758.6298342541437" y="0.0" type="line"/>
      <point x="1410.817679558011" y="0.0" type="line"/>
      <point x="1410.2651933701657" y="37.447513812154696" type="line"/>
      <point x="1275.7790055248618" y="70.06629834254143" type="line"/>
      <point x="838.7513812154696" y="825.8342541436464" type="line"/>
      <point x="1212.011049723757" y="1415.3149171270718" type="line"/>
      <point x="1390.646408839779" y="1450.0" type="line"/>
      <point x="1390.646408839779" y="1486.0" type="line"/>
      <point x="894.8618784530387" y="1486.0" type="line"/>
      <point x="894.8618784530387" y="1450.0" type="line"/>
      <point x="1093.0497237569061" y="1415.2099447513813" type="line"/>
      <point x="802.1988950276243" y="886.767955801105" type="line"/>
      <point x="515.9392265193369" y="1414.5911602209944" type="line"/>
      <point x="673.7679558011049" y="1450.0" type="line"/>
      <point x="673.7679558011049" y="1486.0" type="line"/>
      <point x="23.276243093922652" y="1486.0" type="line"/>
      <point x="23.276243093922652" y="1450.0" type="line"/>
      <point x="156.93370165745856" y="1414.486187845304" type="line"/>
      <point x="588.646408839779" y="671.3756906077348" type="line"/>
    </contour>
  </outline>
</glyph>
<glyph name="Y" format="2">
  <advance width="1253.8397790055249"/>
  <unicode hex="0059"/>
  <anchor x="642.1767955801105" y="0.0" name="bottom"/>
  <anchor x="639.2817679558011" y="547.0" name="center"/>
  <anchor x="664.9944751381215" y="1486.0" name="top"/>
  <anchor x="21.215469613259657" y="1486.0" name="topleft"/>
  <outline>
    <contour>
      <point x="472.3646408839779" y="71.17127071823205" type="line"/>
      <point x="284.41988950276243" y="37.447513812154696" type="line"/>
      <point x="284.41988950276243" y="0.0" type="line"/>
      <point x="988.5248618784531" y="0.0" type="line"/>
      <point x="988.5248618784531" y="37.447513812154696" type="line"/>
      <point x="790.2762430939226" y="70.4475138121547" type="line"/>
      <point x="790.2762430939226" y="607.2651933701658" type="line"/>
      <point x="1152.0497237569061" y="1420.4198895027625" type="line"/>
      <point x="1321.475138121547" y="1450.2762430939226" type="line"/>
      <point x="1321.475138121547" y="1486.0" type="line"/>
      <point x="844.4530386740331" y="1486.0" type="line"/>
      <point x="844.4530386740331" y="1450.2762430939226" type="line"/>
      <point x="1048.7734806629835" y="1416.9723756906078" type="line"/>
      <point x="797.4475138121547" y="785.4198895027624" type="line"/>
      <point x="744.5138121546961" y="658.4751381215469" type="line"/>
      <point x="692.5801104972376" y="787.4585635359116" type="line"/>
      <point x="419.121546961326" y="1416.9723756906078" type="line"/>
      <point x="552.1712707182321" y="1450.2762430939226" type="line"/>
      <point x="552.1712707182321" y="1486.0" type="line"/>
      <point x="-36.51381215469614" y="1485.7237569060774" type="line"/>
      <point x="-36.51381215469614" y="1450.0" type="line"/>
      <point x="76.41988950276243" y="1417.6961325966852" type="line"/>
      <point x="472.3646408839779" y="580.6574585635359" type="line"/>
    </contour>
  </outline>
</glyph>
<glyph name="Z" format="2">
  <advance width="1268.3591160220994"/>
  <unicode hex="005A"/>
  <anchor x="631.9613259668508" y="0.0" name="bottom"/>
  <anchor x="658.5524861878453" y="1486.0" name="top"/>
  <outline>
    <contour>
      <point x="757.2154696132596" y="1268.8839779005525" type="line"/>
      <point x="32.41988950276243" y="33.0" type="line"/>
      <point x="50.629834254143645" y="0.0" type="line"/>
      <point x="1178.0718232044198" y="0.0" type="line"/>
      <point x="1232.2817679558011" y="435.292817679558" type="line"/>
      <point x="1085.524861878453" y="463.9779005524862" type="line"/>
      <point x="942.0883977900553" y="103.55248618784532" type="line"/>
      <point x="379.33149171270713" y="56.82872928176796" type="line"/>
      <point x="503.40883977900546" y="225.77348066298345" type="line"/>
      <point x="1224.8232044198894" y="1454.8950276243095" type="line"/>
      <point x="1203.9944751381215" y="1486.0" type="line"/>
      <point x="146.5082872928177" y="1486.0" type="line"/>
      <point x="121.1546961325967" y="1095.0497237569061" type="line"/>
      <point x="261.1878453038674" y="1074.1933701657458" type="line"/>
      <point x="369.70165745856355" y="1402.5524861878453" type="line"/>
      <point x="883.6353591160221" y="1429.6187845303868" type="line"/>
    </contour>
  </outline>
</glyph>
<glyph name="bracketleft" format="2">
  <advance width="788.2486187845303"/>
  <unicode hex="005B"/>
  <outline>
    <contour>
      <point x="162.06629834254144" y="1414.1767955801106" type="curve"/>
      <point x="162.06629834254144" y="-80.17679558011051" type="line" smooth="yes"/>
      <point x="162.06629834254144" y="-241.14364640883977"/>
      <point x="236.08287292817678" y="-274.0"/>
      <point x="376.9944751381215" y="-274.0" type="curve" smooth="yes"/>
      <point x="473.049723756906" y="-274.0"/>
      <point x="561.0110497237569" y="-255.82872928176795"/>
      <point x="639.9060773480662" y="-235.1049723756906" type="curve"/>
      <point x="639.9060773480662" y="-197.27624309392266" type="line"/>
      <point x="423.1215469613259" y="-197.27624309392266" type="line"/>
      <point x="423.1215469613259" y="1533.2762430939226" type="line"/>
      <point x="639.9060773480662" y="1533.2762430939226" type="line"/>
      <point x="639.9060773480662" y="1569.657458563536" type="line"/>
      <point x="561.9447513812155" y="1587.828729281768"/>
      <point x="475.4309392265193" y="1608.0"/>
      <point x="376.9944751381215" y="1608.0" type="curve" smooth="yes"/>
      <point x="236.08287292817678" y="1608.0"/>
      <point x="162.06629834254144" y="1575.1436464088397"/>
    </contour>
  </outline>
</glyph>
<glyph name="backslash" format="2">
  <advance width="698.1933701657458"/>
  <unicode hex="005C"/>
  <outline>
    <contour>
      <point x="646.8121546961327" y="-354.0" type="line"/>
      <point x="127.34254143646409" y="1562.0" type="line"/>
      <point x="34.828729281767956" y="1562.0" type="line"/>
      <point x="552.8508287292818" y="-354.0" type="line"/>
    </contour>
  </outline>
</glyph>
<glyph name="bracketright" format="2">
  <advance width="788.2486187845303"/>
  <unicode hex="005D"/>
  <outline>
    <contour>
      <point x="626.182320441989" y="1414.1767955801106" type="line"/>
      <point x="626.182320441989" y="1575.1436464088397"/>
      <point x="552.1657458563536" y="1608.0"/>
      <point x="411.2541436464088" y="1608.0" type="curve" smooth="yes"/>
      <point x="312.81767955801104" y="1608.0"/>
      <point x="226.3038674033149" y="1587.828729281768"/>
      <point x="148.34254143646407" y="1569.657458563536" type="curve"/>
      <point x="148.34254143646407" y="1533.2762430939226" type="line"/>
      <point x="365.12707182320446" y="1533.2762430939226" type="line"/>
      <point x="365.12707182320446" y="-197.27624309392266" type="line"/>
      <point x="148.34254143646407" y="-197.27624309392266" type="line"/>
      <point x="148.34254143646407" y="-235.1049723756906" type="line"/>
      <point x="227.23756906077347" y="-255.82872928176795"/>
      <point x="315.1988950276243" y="-274.0"/>
      <point x="411.2541436464088" y="-274.0" type="curve" smooth="yes"/>
      <point x="552.1657458563536" y="-274.0"/>
      <point x="626.182320441989" y="-241.14364640883977"/>
      <point x="626.182320441989" y="-80.17679558011051" type="curve" smooth="yes"/>
    </contour>
  </outline>
</glyph>
<glyph name="asciicircum" format="2">
  <advance width="1210.8397790055249"/>
  <unicode hex="005E"/>
  <outline>
    <contour>
      <point x="645.1436464088398" y="1496.0" type="line"/>
      <point x="561.1436464088398" y="1496.0" type="line"/>
      <point x="159.14364640883977" y="267.0" type="line"/>
      <point x="250.14364640883977" y="267.0" type="line"/>
      <point x="606.1436464088398" y="1362.0" type="line"/>
      <point x="952.1436464088398" y="267.0" type="line"/>
      <point x="1051.1436464088397" y="267.0" type="line"/>
    </contour>
  </outline>
</glyph>
<glyph name="a" format="2">
  <advance width="961.0994475138122"/>
  <unicode hex="0061"/>
  <anchor x="453.5303867403315" y="-7.105427357601002e-15" name="bottom"/>
  <anchor x="807.0331491712707" y="20.0" name="ogonek"/>
  <anchor x="487.939226519337" y="1110.0" name="top"/>
  <outline>
    <contour>
      <point x="18.248618784530386" y="256.30386740331494" type="curve" smooth="yes"/>
      <point x="18.248618784530386" y="84.26519337016575"/>
      <point x="132.4696132596685" y="-20.513812154696133"/>
      <point x="293.2099447513812" y="-20.513812154696133" type="curve" smooth="yes"/>
      <point x="443.2486187845304" y="-20.513812154696133"/>
      <point x="552.2209944751381" y="80.53591160220995"/>
      <point x="585.0497237569061" y="157.24861878453038" type="curve"/>
      <point x="585.0497237569061" y="68.17127071823205" type="line" smooth="yes"/>
      <point x="585.0497237569061" y="-5.751381215469614"/>
      <point x="637.1436464088398" y="-18.171270718232044"/>
      <point x="721.0276243093923" y="-18.171270718232044" type="curve" smooth="yes"/>
      <point x="813.4254143646409" y="-18.171270718232044"/>
      <point x="903.4033149171271" y="2.1712707182320443"/>
      <point x="946.1270718232045" y="12.552486187845304" type="curve"/>
      <point x="946.1270718232045" y="47.72375690607735" type="line"/>
      <point x="864.011049723757" y="62.19889502762431" type="line"/>
      <point x="864.011049723757" y="680.4861878453039" type="line" smooth="yes"/>
      <point x="864.011049723757" y="928.5414364640884"/>
      <point x="733.939226519337" y="1035.5524861878453"/>
      <point x="512.8729281767955" y="1035.5524861878453" type="curve" smooth="yes"/>
      <point x="311.58011049723757" y="1035.5524861878453"/>
      <point x="149.52486187845304" y="935.2486187845304"/>
      <point x="79.31491712707182" y="883.4585635359116" type="curve"/>
      <point x="104.86740331491713" y="833.7734806629834" type="line"/>
      <point x="167.2596685082873" y="861.889502762431"/>
      <point x="272.08839779005524" y="897.7182320441989"/>
      <point x="400.64088397790056" y="897.7182320441989" type="curve" smooth="yes"/>
      <point x="525.0331491712707" y="897.7182320441989"/>
      <point x="581.3259668508288" y="811.4198895027624"/>
      <point x="581.3259668508288" y="711.6077348066299" type="curve" smooth="yes"/>
      <point x="581.3259668508288" y="595.5801104972376" type="line"/>
      <point x="338.2596685082873" y="595.5801104972376"/>
      <point x="18.248618784530386" y="509.43646408839777"/>
    </contour>
    <contour>
      <point x="434.7458563535912" y="117.04419889502762" type="curve" smooth="yes"/>
      <point x="359.878453038674" y="117.04419889502762"/>
      <point x="303.5911602209945" y="191.4254143646409"/>
      <point x="303.5911602209945" y="296.7403314917127" type="curve" smooth="yes"/>
      <point x="303.5911602209945" y="443.4475138121547"/>
      <point x="398.23756906077347" y="539.7900552486187"/>
      <point x="581.3259668508288" y="540.5138121546961" type="curve"/>
      <point x="581.3259668508288" y="189.24861878453038" type="line"/>
      <point x="546.8563535911602" y="143.3038674033149"/>
      <point x="489.9502762430939" y="117.04419889502762"/>
    </contour>
  </outline>
</glyph>
<glyph name="b" format="2">
  <advance width="1097.0220994475137"/>
  <unicode hex="0062"/>
  <anchor x="503.54696132596683" y="-2.1712707182320443" name="bottom"/>
  <anchor x="735.3149171270718" y="1110.7237569060774" name="top"/>
  <outline>
    <contour>
      <point x="-11.933701657458565" y="1507.3480662983425" type="line"/>
      <point x="105.97237569060773" y="1468.0828729281768" type="line"/>
      <point x="105.97237569060773" y="54.0" type="line"/>
      <point x="136.18232044198894" y="40.248618784530386"/>
      <point x="283.5911602209945" y="-22.0"/>
      <point x="565.1270718232045" y="-22.0" type="curve" smooth="yes"/>
      <point x="821.3756906077348" y="-22.0"/>
      <point x="1052.4696132596684" y="190.04972375690608"/>
      <point x="1052.4696132596684" y="566.5414364640884" type="curve" smooth="yes"/>
      <point x="1052.4696132596684" y="859.1712707182321"/>
      <point x="923.0497237569061" y="1042.342541436464"/>
      <point x="667.1933701657458" y="1042.342541436464" type="curve" smooth="yes"/>
      <point x="523.2099447513813" y="1042.342541436464"/>
      <point x="406.2486187845304" y="939.8839779005525"/>
      <point x="383.9337016574586" y="885.2651933701658" type="curve"/>
      <point x="383.9337016574586" y="1599.6685082872928" type="line"/>
      <point x="340.98342541436466" y="1635.1049723756905" type="line"/>
      <point x="301.878453038674" y="1635.1049723756905" type="line"/>
      <point x="-11.933701657458565" y="1543.0331491712707" type="line"/>
    </contour>
    <contour>
      <point x="550.0276243093923" y="925.8508287292817" type="curve" smooth="yes"/>
      <point x="655.0497237569061" y="925.8508287292817"/>
      <point x="745.060773480663" y="825.1049723756906"/>
      <point x="745.060773480663" y="524.7624309392265" type="curve" smooth="yes"/>
      <point x="745.060773480663" y="201.1049723756906"/>
      <point x="683.8950276243094" y="34.51381215469613"/>
      <point x="540.5469613259669" y="34.51381215469613" type="curve" smooth="yes"/>
      <point x="473.1436464088398" y="34.51381215469613"/>
      <point x="408.31491712707185" y="68.24861878453038"/>
      <point x="383.9337016574586" y="113.82872928176795" type="curve"/>
      <point x="383.9337016574586" y="835.0662983425415" type="line"/>
      <point x="406.49723756906076" y="861.182320441989"/>
      <point x="452.2154696132597" y="925.8508287292817"/>
    </contour>
  </outline>
</glyph>
<glyph name="c" format="2">
  <advance width="881.7790055248619"/>
  <unicode hex="0063"/>
  <anchor x="477.17127071823205" y="0.0" name="bottom"/>
  <anchor x="551.2486187845304" y="1110.0" name="top"/>
  <outline>
    <contour>
      <point x="36.248618784530386" y="489.38121546961327" type="curve" smooth="yes"/>
      <point x="36.248618784530386" y="185.8950276243094"/>
      <point x="193.73480662983425" y="-22.0"/>
      <point x="496.0662983425414" y="-22.0" type="curve" smooth="yes"/>
      <point x="648.292817679558" y="-22.0"/>
      <point x="804.5193370165746" y="57.05524861878453"/>
      <point x="860.6629834254144" y="119.71270718232044" type="curve"/>
      <point x="836.767955801105" y="170.1878453038674" type="line"/>
      <point x="783.4917127071824" y="127.74033149171271"/>
      <point x="685.3480662983426" y="98.38674033149172"/>
      <point x="617.3259668508288" y="98.38674033149172" type="curve" smooth="yes"/>
      <point x="455.51381215469615" y="98.38674033149172"/>
      <point x="348.0662983425415" y="231.38121546961327"/>
      <point x="348.0662983425415" y="538.7127071823204" type="curve" smooth="yes"/>
      <point x="348.0662983425415" y="854.8066298342542"/>
      <point x="430.9668508287293" y="980.3149171270718"/>
      <point x="544.5027624309392" y="980.3149171270718" type="curve" smooth="yes"/>
      <point x="615.8121546961326" y="980.3149171270718"/>
      <point x="643.4696132596684" y="927.2099447513813"/>
      <point x="656.1546961325967" y="871.7458563535912" type="curve" smooth="yes"/>
      <point x="697.6022099447514" y="686.5359116022099" type="line"/>
      <point x="847.4254143646409" y="686.5359116022099" type="line"/>
      <point x="858.0441988950276" y="973.2099447513813" type="line"/>
      <point x="799.6077348066299" y="981.4861878453039"/>
      <point x="713.5580110497237" y="1041.171270718232"/>
      <point x="548.4861878453039" y="1041.171270718232" type="curve" smooth="yes"/>
      <point x="244.07734806629833" y="1041.171270718232"/>
      <point x="36.248618784530386" y="819.7790055248619"/>
    </contour>
  </outline>
</glyph>
<glyph name="e" format="2">
  <advance width="946.110497237569"/>
  <unicode hex="0065"/>
  <anchor x="479.8563535911602" y="0.0" name="bottom"/>
  <anchor x="625.3425414364641" y="20.0" name="ogonek"/>
  <anchor x="521.8563535911602" y="1110.0" name="top"/>
  <outline>
    <contour>
      <point x="512.2651933701658" y="-23.447513812154696" type="curve" smooth="yes"/>
      <point x="672.2817679558011" y="-23.447513812154696"/>
      <point x="827.6795580110497" y="56.43646408839779"/>
      <point x="887.3756906077348" y="119.92265193370166" type="curve"/>
      <point x="862.756906077348" y="171.50276243093924" type="line"/>
      <point x="805.9281767955802" y="126.84530386740332"/>
      <point x="697.3756906077348" y="96.38674033149172"/>
      <point x="614.2209944751381" y="96.38674033149172" type="curve" smooth="yes"/>
      <point x="428.02762430939225" y="96.38674033149172"/>
      <point x="340.44751381215474" y="227.58563535911603"/>
      <point x="333.2099447513812" y="490.77348066298345" type="curve"/>
      <point x="907.3480662983426" y="490.77348066298345" type="line"/>
      <point x="916.243093922652" y="520.1546961325967"/>
      <point x="921.9668508287293" y="577.4198895027624"/>
      <point x="921.6906077348067" y="673.0662983425415" type="curve"/>
      <point x="917.9668508287293" y="911.3425414364641"/>
      <point x="767.7292817679559" y="1041.171270718232"/>
      <point x="519.3977900552486" y="1041.171270718232" type="curve" smooth="yes"/>
      <point x="242.64088397790056" y="1041.171270718232"/>
      <point x="26.906077348066297" y="831.5911602209944"/>
      <point x="26.906077348066297" y="485.0" type="curve" smooth="yes"/>
      <point x="26.906077348066297" y="171.72375690607734"/>
      <point x="182.15469613259668" y="-23.447513812154696"/>
    </contour>
    <contour>
      <point x="332.03867403314916" y="536.9447513812155" type="line"/>
      <point x="326.2486187845304" y="842.060773480663"/>
      <point x="401.4585635359116" y="986.828729281768"/>
      <point x="506.30386740331494" y="986.828729281768" type="curve" smooth="yes"/>
      <point x="602.2983425414365" y="986.828729281768"/>
      <point x="629.2154696132596" y="882.1988950276243"/>
      <point x="629.2154696132596" y="682.646408839779" type="curve" smooth="yes"/>
      <point x="629.2154696132596" y="654.646408839779"/>
      <point x="627.767955801105" y="586.3922651933701"/>
      <point x="626.3867403314918" y="557.1160220994475" type="curve"/>
    </contour>
  </outline>
</glyph>
<glyph name="h" format="2">
  <advance width="1147.6685082872928"/>
  <unicode hex="0068"/>
  <anchor x="582.8618784530387" y="0.0" name="bottom"/>
  <anchor x="252.02209944751388" y="1287.2872928176794" name="center"/>
  <anchor x="225.21546961325967" y="1597.657458563536" name="top"/>
  <outline>
    <contour>
      <point x="117.41988950276243" y="70.61878453038673" type="line"/>
      <point x="2.6574585635359114" y="37.447513812154696" type="line"/>
      <point x="2.6574585635359114" y="0.0" type="line"/>
      <point x="513.0386740331492" y="0.0" type="line"/>
      <point x="513.0386740331492" y="37.447513812154696" type="line"/>
      <point x="400.4475138121547" y="70.61878453038673" type="line"/>
      <point x="400.4475138121547" y="810.3425414364641" type="line"/>
      <point x="453.6795580110497" y="850.3646408839779"/>
      <point x="521.2707182320441" y="881.7845303867404"/>
      <point x="610.8453038674033" y="881.7845303867404" type="curve" smooth="yes"/>
      <point x="715.4972375690608" y="881.7845303867404"/>
      <point x="742.7348066298342" y="797.3812154696133"/>
      <point x="742.7348066298342" y="649.292817679558" type="curve" smooth="yes"/>
      <point x="742.7348066298342" y="70.61878453038673" type="line"/>
      <point x="651.5801104972376" y="37.447513812154696" type="line"/>
      <point x="651.5801104972376" y="0.0" type="line"/>
      <point x="1134.353591160221" y="0.0" type="line"/>
      <point x="1134.353591160221" y="37.447513812154696" type="line"/>
      <point x="1027.3149171270718" y="70.61878453038673" type="line"/>
      <point x="1027.3149171270718" y="651.2265193370166" type="line" smooth="yes"/>
      <point x="1027.3149171270718" y="916.9668508287293"/>
      <point x="946.9171270718232" y="1035.6850828729282"/>
      <point x="741.4198895027624" y="1035.6850828729282" type="curve" smooth="yes"/>
      <point x="587.5911602209944" y="1035.6850828729282"/>
      <point x="470.17127071823205" y="936.9226519337017"/>
      <point x="396.0" y="843.5801104972376" type="curve"/>
      <point x="400.4475138121547" y="994.867403314917" type="line"/>
      <point x="400.44751381215474" y="1599.6685082872928" type="line"/>
      <point x="351.707182320442" y="1635.1049723756905" type="line"/>
      <point x="313.3259668508287" y="1635.1049723756905" type="line"/>
      <point x="-0.48618784530386705" y="1543.0331491712707" type="line"/>
      <point x="-0.48618784530386705" y="1507.3480662983425" type="line"/>
      <point x="117.41988950276243" y="1468.0828729281768" type="line"/>
    </contour>
  </outline>
</glyph>
<glyph name="l" format="2">
  <advance width="540.0994475138122"/>
  <unicode hex="006C"/>
  <anchor x="282.87292817679554" y="0.0" name="bottom"/>
  <anchor x="267.71270718232046" y="1634.0" name="top"/>
  <anchor x="581.4309392265193" y="1110.7237569060774" name="topright"/>
  <outline>
    <contour>
      <point x="129.02209944751382" y="71.34254143646409" type="line"/>
      <point x="13.812154696132605" y="36.72375690607735" type="line"/>
      <point x="13.812154696132605" y="0.0" type="line"/>
      <point x="522.3646408839779" y="0.0" type="line"/>
      <point x="522.3646408839779" y="36.72375690607735" type="line"/>
      <point x="406.9834254143646" y="70.61878453038673" type="line"/>
      <point x="406.9834254143646" y="1599.6685082872928" type="line"/>
      <point x="363.30939226519337" y="1635.1049723756905" type="line"/>
      <point x="325.65193370165747" y="1635.1049723756905" type="line"/>
      <point x="11.392265193370172" y="1543.0331491712707" type="line"/>
      <point x="11.392265193370172" y="1507.3480662983425" type="line"/>
      <point x="129.02209944751382" y="1468.0828729281768" type="line"/>
    </contour>
  </outline>
</glyph>
<glyph name="m" format="2">
  <advance width="1770.524861878453"/>
  <unicode hex="006D"/>
  <anchor x="893.0718232044198" y="0.0" name="bottom"/>
  <anchor x="891.756906077348" y="1110.7237569060774" name="top"/>
  <outline>
    <contour>
      <point x="11.171270718232037" y="0.0" type="line"/>
      <point x="520.3425414364641" y="0.0" type="line"/>
      <point x="520.3425414364641" y="37.447513812154696" type="line"/>
      <point x="409.40883977900546" y="70.61878453038673" type="line"/>
      <point x="409.40883977900546" y="810.3425414364641" type="line"/>
      <point x="461.36464088397787" y="850.3646408839779"/>
      <point x="528.5082872928176" y="880.6795580110497"/>
      <point x="618.5303867403314" y="880.6795580110497" type="curve" smooth="yes"/>
      <point x="722.4585635359116" y="880.6795580110497"/>
      <point x="749.0386740331492" y="796.2762430939226"/>
      <point x="749.0386740331492" y="649.292817679558" type="curve" smooth="yes"/>
      <point x="749.0386740331492" y="70.61878453038673" type="line"/>
      <point x="657.8839779005525" y="37.447513812154696" type="line"/>
      <point x="657.8839779005525" y="0.0" type="line"/>
      <point x="1140.6574585635358" y="0.0" type="line"/>
      <point x="1140.6574585635358" y="37.447513812154696" type="line"/>
      <point x="1033.342541436464" y="70.61878453038673" type="line"/>
      <point x="1033.6187845303866" y="676.5580110497237" type="line" smooth="yes"/>
      <point x="1033.6187845303866" y="721.5690607734807"/>
      <point x="1028.828729281768" y="781.6850828729282"/>
      <point x="1022.8950276243094" y="810.2762430939226" type="curve"/>
      <point x="1072.6408839779006" y="853.2596685082873"/>
      <point x="1143.1270718232045" y="880.6795580110497"/>
      <point x="1233.1491712707182" y="880.6795580110497" type="curve" smooth="yes"/>
      <point x="1337.6298342541436" y="880.6795580110497"/>
      <point x="1365.3149171270718" y="796.2762430939226"/>
      <point x="1365.3149171270718" y="649.292817679558" type="curve" smooth="yes"/>
      <point x="1365.3149171270718" y="69.89502762430939" type="line"/>
      <point x="1274.1602209944751" y="37.447513812154696" type="line"/>
      <point x="1274.1602209944751" y="0.0" type="line"/>
      <point x="1757.2099447513813" y="0.0" type="line"/>
      <point x="1757.2099447513813" y="37.447513812154696" type="line"/>
      <point x="1649.8950276243095" y="69.89502762430939" type="line"/>
      <point x="1649.8950276243095" y="651.2265193370166" type="line" smooth="yes"/>
      <point x="1649.8950276243095" y="915.8618784530387"/>
      <point x="1570.0497237569061" y="1034.5801104972375"/>
      <point x="1363.171270718232" y="1034.5801104972375" type="curve" smooth="yes"/>
      <point x="1207.1049723756905" y="1034.5801104972375"/>
      <point x="1087.6850828729282" y="939.0939226519337"/>
      <point x="1015.6187845303867" y="842.2375690607735" type="curve"/>
      <point x="979.5138121546961" y="970.1325966850828"/>
      <point x="900.9613259668508" y="1034.5801104972375"/>
      <point x="749.1049723756905" y="1034.5801104972375" type="curve" smooth="yes"/>
      <point x="591.6574585635359" y="1034.5801104972375"/>
      <point x="477.8563535911602" y="936.9226519337017"/>
      <point x="405.0662983425414" y="845.1325966850828" type="curve"/>
      <point x="405.0662983425414" y="992.9337016574586" type="line"/>
      <point x="364.01104972375686" y="1028.0939226519338" type="line"/>
      <point x="319.5911602209944" y="1028.0939226519338" type="line"/>
      <point x="10.408839779005518" y="930.4972375690608" type="line"/>
      <point x="10.408839779005518" y="894.8121546961327" type="line"/>
      <point x="125.5524861878453" y="851.1270718232045" type="line"/>
      <point x="125.5524861878453" y="70.61878453038673" type="line"/>
      <point x="11.171270718232037" y="37.447513812154696" type="line"/>
    </contour>
  </outline>
</glyph>
<glyph name="n" format="2">
  <advance width="1155.353591160221"/>
  <unicode hex="006E"/>
  <anchor x="587.9226519337017" y="0.0" name="bottom"/>
  <anchor x="560.988950276243" y="1110.7237569060774" name="top"/>
  <outline>
    <contour>
      <point x="125.5524861878453" y="70.61878453038673" type="line"/>
      <point x="11.171270718232044" y="37.447513812154696" type="line"/>
      <point x="11.171270718232044" y="0.0" type="line"/>
      <point x="519.6187845303867" y="0.0" type="line"/>
      <point x="519.6187845303867" y="37.447513812154696" type="line"/>
      <point x="409.40883977900546" y="70.61878453038673" type="line"/>
      <point x="409.40883977900546" y="810.3425414364641" type="line"/>
      <point x="461.36464088397787" y="850.3646408839779"/>
      <point x="513.756906077348" y="881.7845303867404"/>
      <point x="618.5303867403314" y="881.7845303867404" type="curve" smooth="yes"/>
      <point x="722.4585635359116" y="881.7845303867404"/>
      <point x="750.4198895027624" y="797.3812154696133"/>
      <point x="750.4198895027624" y="650.3977900552486" type="curve" smooth="yes"/>
      <point x="750.4198895027624" y="70.61878453038673" type="line"/>
      <point x="659.2651933701658" y="37.447513812154696" type="line"/>
      <point x="659.2651933701658" y="0.0" type="line"/>
      <point x="1142.0386740331492" y="0.0" type="line"/>
      <point x="1142.0386740331492" y="37.447513812154696" type="line"/>
      <point x="1035.0" y="70.61878453038673" type="line"/>
      <point x="1035.0" y="652.3314917127071" type="line" smooth="yes"/>
      <point x="1035.0" y="916.9668508287292"/>
      <point x="954.6022099447514" y="1035.6850828729282"/>
      <point x="749.1049723756905" y="1035.6850828729282" type="curve" smooth="yes"/>
      <point x="595.2762430939226" y="1035.6850828729282"/>
      <point x="477.8563535911602" y="936.9226519337017"/>
      <point x="405.0662983425414" y="843.6850828729282" type="curve"/>
      <point x="407.96132596685084" y="917.0" type="line"/>
      <point x="407.96132596685084" y="992.9337016574585" type="line"/>
      <point x="363.7348066298342" y="1028.0939226519338" type="line"/>
      <point x="319.5911602209944" y="1028.0939226519338" type="line"/>
      <point x="10.408839779005518" y="930.4972375690608" type="line"/>
      <point x="10.408839779005518" y="894.8121546961326" type="line"/>
      <point x="125.5524861878453" y="851.1270718232045" type="line"/>
    </contour>
  </outline>
</glyph>
<glyph name="o" format="2">
  <advance width="1074.745856353591"/>
  <unicode hex="006F"/>
  <anchor x="538.4254143646409" y="0.0" name="bottom"/>
  <anchor x="538.1491712707182" y="506.72375690607737" name="center"/>
  <anchor x="573.6629834254144" y="10.000000000000004" name="ogonek"/>
  <anchor x="538.4254143646409" y="1110.0" name="top"/>
  <anchor x="722.7955801104972" y="1005.0" name="topright"/>
  <outline>
    <contour>
      <point x="36.248618784530386" y="489.38121546961327" type="curve" smooth="yes"/>
      <point x="36.248618784530386" y="164.86187845303868"/>
      <point x="211.4917127071823" y="-23.447513812154696"/>
      <point x="516.6353591160221" y="-23.447513812154696" type="curve" smooth="yes"/>
      <point x="783.7845303867402" y="-23.447513812154696"/>
      <point x="1038.4972375690606" y="151.22099447513813"/>
      <point x="1038.4972375690606" y="525.2762430939226" type="curve" smooth="yes"/>
      <point x="1038.4972375690606" y="847.6243093922652"/>
      <point x="872.0441988950276" y="1039.0"/>
      <point x="558.939226519337" y="1039.0" type="curve" smooth="yes"/>
      <point x="292.51381215469615" y="1039.0"/>
      <point x="36.248618784530386" y="864.6077348066299"/>
    </contour>
    <contour>
      <point x="540.0441988950276" y="30.895027624309392" type="curve" smooth="yes"/>
      <point x="395.94475138121544" y="30.895027624309392"/>
      <point x="356.9226519337016" y="248.32596685082873"/>
      <point x="356.9226519337016" y="520.0662983425415" type="curve" smooth="yes"/>
      <point x="356.9226519337016" y="843.3701657458563"/>
      <point x="412.81215469613255" y="984.6574585635359"/>
      <point x="541.3204419889503" y="984.6574585635359" type="curve" smooth="yes"/>
      <point x="680.353591160221" y="984.6574585635359"/>
      <point x="719.2707182320443" y="767.3977900552486"/>
      <point x="719.2707182320443" y="493.1436464088398" type="curve" smooth="yes"/>
      <point x="719.2707182320443" y="175.18232044198896"/>
      <point x="662.2099447513813" y="30.895027624309392"/>
    </contour>
  </outline>
</glyph>
<glyph name="p" format="2">
  <advance width="1116.878453038674"/>
  <unicode hex="0070"/>
  <anchor x="613.4696132596684" y="1111.4475138121547" name="top"/>
  <outline>
    <contour>
      <point x="1072.3259668508288" y="555.988950276243" type="curve" smooth="yes"/>
      <point x="1072.3259668508288" y="858.8950276243094"/>
      <point x="942.9060773480662" y="1042.342541436464"/>
      <point x="686.7734806629834" y="1042.342541436464" type="curve" smooth="yes"/>
      <point x="543.6187845303867" y="1042.342541436464"/>
      <point x="426.1049723756906" y="940.4364640883978"/>
      <point x="403.23756906077347" y="884.988950276243" type="curve"/>
      <point x="406.8563535911602" y="992.6574585635359" type="line"/>
      <point x="362.35359116022096" y="1028.0939226519338" type="line"/>
      <point x="320.41988950276243" y="1028.0939226519338" type="line"/>
      <point x="10.408839779005525" y="930.4972375690608" type="line"/>
      <point x="10.408839779005525" y="894.8121546961327" type="line"/>
      <point x="125.82872928176796" y="851.1270718232045" type="line"/>
      <point x="126.5524861878453" y="-388.7513812154696" type="line"/>
      <point x="11.171270718232044" y="-421.9226519337017" type="line"/>
      <point x="11.171270718232044" y="-459.37016574585635" type="line"/>
      <point x="532.049723756906" y="-459.37016574585635" type="line"/>
      <point x="532.049723756906" y="-421.9226519337017" type="line"/>
      <point x="403.7900552486187" y="-389.02762430939225" type="line"/>
      <point x="403.7900552486187" y="-163.17127071823205" type="line"/>
      <point x="402.68508287292815" y="3.524861878453045" type="line"/>
      <point x="431.171270718232" y="-8.685082872928174"/>
      <point x="506.14364640883974" y="-22.0"/>
      <point x="584.9834254143647" y="-22.0" type="curve" smooth="yes"/>
      <point x="840.9558011049724" y="-22.0"/>
      <point x="1072.3259668508288" y="189.77348066298345"/>
    </contour>
    <contour>
      <point x="569.8839779005525" y="925.8508287292818" type="curve" smooth="yes"/>
      <point x="675.4585635359116" y="925.8508287292818"/>
      <point x="764.9171270718232" y="825.3812154696133"/>
      <point x="764.9171270718232" y="517.2486187845304" type="curve" smooth="yes"/>
      <point x="764.9171270718232" y="201.1049723756906"/>
      <point x="703.7513812154696" y="34.51381215469613"/>
      <point x="560.4033149171271" y="34.51381215469613" type="curve" smooth="yes"/>
      <point x="492.99999999999994" y="34.51381215469613"/>
      <point x="428.171270718232" y="68.2486187845304"/>
      <point x="403.7900552486187" y="113.82872928176795" type="curve"/>
      <point x="403.7900552486187" y="835.0662983425415" type="line"/>
      <point x="426.35359116022096" y="861.182320441989"/>
      <point x="473.0718232044199" y="925.8508287292818"/>
    </contour>
  </outline>
</glyph>
<glyph name="r" format="2">
  <advance width="749.5524861878453"/>
  <unicode hex="0072"/>
  <anchor x="274.1270718232044" y="0.0" name="bottom"/>
  <anchor x="410.44198895027625" y="1110.0" name="top"/>
  <outline>
    <contour>
      <point x="11.171270718232037" y="0.0" type="line"/>
      <point x="554.6464088397789" y="0.0" type="line"/>
      <point x="554.6464088397789" y="37.44751381215469" type="line"/>
      <point x="409.40883977900546" y="71.34254143646407" type="line"/>
      <point x="408.68508287292815" y="707.8397790055249" type="line"/>
      <point x="458.3812154696132" y="776.3867403314918"/>
      <point x="534.2983425414365" y="795.1878453038674"/>
      <point x="617.1381215469613" y="795.1878453038674" type="curve" smooth="yes"/>
      <point x="667.4309392265193" y="795.1878453038674"/>
      <point x="704.7624309392265" y="773.3701657458564"/>
      <point x="720.1049723756905" y="760.4088397790056" type="curve"/>
      <point x="720.1049723756905" y="1019.4475138121547" type="line"/>
      <point x="708.3812154696133" y="1025.6187845303866"/>
      <point x="691.9337016574585" y="1030.0662983425414"/>
      <point x="664.3149171270718" y="1030.0662983425414" type="curve" smooth="yes"/>
      <point x="522.353591160221" y="1030.0662983425414"/>
      <point x="416.7237569060773" y="830.8232044198895"/>
      <point x="405.23756906077347" y="761.6961325966852" type="curve"/>
      <point x="399.34254143646405" y="756.1712707182321" type="line"/>
      <point x="404.34254143646405" y="936.988950276243" type="line"/>
      <point x="404.61878453038673" y="994.3812154696133" type="line"/>
      <point x="359.2209944751381" y="1028.0939226519338" type="line"/>
      <point x="313.9723756906077" y="1028.0939226519338" type="line"/>
      <point x="11.132596685082873" y="930.4972375690608" type="line"/>
      <point x="11.132596685082873" y="894.0883977900553" type="line"/>
      <point x="125.5524861878453" y="851.1270718232045" type="line"/>
      <point x="125.5524861878453" y="70.61878453038673" type="line"/>
      <point x="11.171270718232037" y="37.447513812154696" type="line"/>
    </contour>
  </outline>
</glyph>
<glyph name="s" format="2">
  <advance width="839.4530386740331"/>
  <unicode hex="0073"/>
  <anchor x="401.9889502762431" y="-6.513812154696133" name="bottom"/>
  <anchor x="441.43646408839777" y="1110.7237569060774" name="top"/>
  <outline>
    <contour>
      <point x="168.6353591160221" y="302.47513812154693" type="line"/>
      <point x="52.03867403314917" y="302.47513812154693" type="line"/>
      <point x="45.52486187845304" y="44.86740331491713" type="line"/>
      <point x="107.97237569060773" y="43.03867403314917"/>
      <point x="246.23756906077347" y="-23.61878453038674"/>
      <point x="399.43646408839777" y="-23.61878453038674" type="curve" smooth="yes"/>
      <point x="680.1270718232045" y="-23.61878453038674"/>
      <point x="797.3756906077348" y="109.92265193370166"/>
      <point x="797.3756906077348" y="309.81767955801104" type="curve" smooth="yes"/>
      <point x="797.3756906077348" y="466.58011049723757"/>
      <point x="652.4033149171271" y="549.5027624309392"/>
      <point x="495.2596685082873" y="624.3314917127071" type="curve" smooth="yes"/>
      <point x="368.4696132596685" y="685.121546961326"/>
      <point x="251.86187845303868" y="732.4751381215469"/>
      <point x="251.86187845303868" y="840.9889502762431" type="curve" smooth="yes"/>
      <point x="251.86187845303868" y="933.9060773480663"/>
      <point x="316.8950276243094" y="988.4861878453039"/>
      <point x="417.5414364640884" y="988.4861878453039" type="curve" smooth="yes"/>
      <point x="529.0939226519337" y="988.4861878453039"/>
      <point x="585.4254143646409" y="934.8674033149172"/>
      <point x="610.110497237569" y="843.5193370165746" type="curve"/>
      <point x="646.1878453038674" y="726.2596685082873" type="line"/>
      <point x="742.3756906077348" y="726.2596685082873" type="line"/>
      <point x="750.3370165745856" y="980.0" type="line"/>
      <point x="693.3093922651934" y="987.8287292817679"/>
      <point x="607.7016574585635" y="1039.0"/>
      <point x="431.7790055248619" y="1039.0" type="curve" smooth="yes"/>
      <point x="189.50828729281767" y="1039.0"/>
      <point x="51.430939226519335" y="918.6685082872929"/>
      <point x="51.430939226519335" y="741.5248618784531" type="curve" smooth="yes"/>
      <point x="51.430939226519335" y="555.0055248618785"/>
      <point x="189.4364640883978" y="457.90055248618785"/>
      <point x="344.48618784530385" y="388.0331491712707" type="curve" smooth="yes"/>
      <point x="518.0773480662983" y="309.4806629834254"/>
      <point x="608.9723756906077" y="257.6795580110497"/>
      <point x="608.9723756906077" y="171.70718232044197" type="curve" smooth="yes"/>
      <point x="608.9723756906077" y="92.47513812154696"/>
      <point x="549.9502762430939" y="29.61878453038674"/>
      <point x="420.1878453038674" y="29.61878453038674" type="curve" smooth="yes"/>
      <point x="316.43646408839777" y="29.61878453038674"/>
      <point x="235.76795580110496" y="92.93370165745856"/>
      <point x="207.05524861878453" y="177.59668508287294" type="curve"/>
    </contour>
  </outline>
</glyph>
<glyph name="t" format="2">
  <advance width="647.6906077348066"/>
  <unicode hex="0074"/>
  <anchor x="342.61878453038673" y="0.0" name="bottom"/>
  <anchor x="276.8453038674033" y="556.0" name="center"/>
  <anchor x="329.6629834254144" y="1378.9502762430939" name="top"/>
  <anchor x="599.767955801105" y="1110.7237569060774" name="topright"/>
  <outline>
    <contour>
      <point x="342.22651933701655" y="-22.685082872928174" type="curve" smooth="yes"/>
      <point x="498.50828729281767" y="-22.685082872928174"/>
      <point x="596.1381215469613" y="31.066298342541433"/>
      <point x="652.5469613259669" y="82.92265193370166" type="curve"/>
      <point x="625.414364640884" y="138.56906077348066" type="line"/>
      <point x="590.6906077348066" y="118.01657458563535"/>
      <point x="534.1160220994475" y="97.292817679558"/>
      <point x="491.41988950276243" y="97.292817679558" type="curve" smooth="yes"/>
      <point x="437.0497237569061" y="97.292817679558"/>
      <point x="413.3922651933701" y="114.95027624309392"/>
      <point x="413.3922651933701" y="242.09944751381215" type="curve" smooth="yes"/>
      <point x="413.3922651933701" y="924.182320441989" type="line"/>
      <point x="610.4033149171271" y="924.182320441989" type="line"/>
      <point x="610.4033149171271" y="1005.0" type="line"/>
      <point x="411.49723756906076" y="1005.0" type="line"/>
      <point x="412.22099447513807" y="1327.0939226519338" type="line"/>
      <point x="288.5966850828729" y="1327.0939226519338" type="line"/>
      <point x="264.8066298342541" y="1263.0441988950276"/>
      <point x="229.63535911602207" y="1164.8342541436464"/>
      <point x="207.84530386740332" y="1125.624309392265" type="curve" smooth="yes"/>
      <point x="184.26519337016572" y="1084.6629834254143"/>
      <point x="159.51381215469613" y="1028.5801104972375"/>
      <point x="122.82872928176795" y="1008.6187845303867" type="curve" smooth="yes"/>
      <point x="92.2486187845304" y="991.9337016574585"/>
      <point x="34.41988950276244" y="975.5911602209944"/>
      <point x="-2.5690607734806576" y="962.6298342541437" type="curve"/>
      <point x="-2.5690607734806576" y="924.182320441989" type="line"/>
      <point x="123.74585635359117" y="924.182320441989" type="line"/>
      <point x="123.74585635359117" y="205.76795580110496" type="line" smooth="yes"/>
      <point x="123.74585635359117" y="45.88397790055248"/>
      <point x="191.91712707182322" y="-22.685082872928174"/>
    </contour>
  </outline>
</glyph>
<glyph name="u" format="2">
  <advance width="1098.022099447514"/>
  <unicode hex="0075"/>
  <anchor x="582.2541436464088" y="0.0" name="bottom"/>
  <anchor x="937.5469613259669" y="20.0" name="ogonek"/>
  <anchor x="552.7292817679559" y="1111.4475138121547" name="top"/>
  <anchor x="1074.2099447513813" y="1083.8232044198894" name="topright"/>
  <outline>
    <contour>
      <point x="857.3977900552486" y="-18.171270718232044" type="curve" smooth="yes"/>
      <point x="954.1381215469613" y="-18.171270718232044"/>
      <point x="1027.4696132596684" y="0.0"/>
      <point x="1075.2596685082872" y="11.104972375690608" type="curve"/>
      <point x="1075.2596685082872" y="49.171270718232044" type="line"/>
      <point x="991.867403314917" y="62.19889502762431" type="line"/>
      <point x="991.867403314917" y="993.6574585635359" type="line"/>
      <point x="944.7458563535911" y="1028.0939226519338" type="line"/>
      <point x="907.0220994475138" y="1028.0939226519338" type="line"/>
      <point x="600.7624309392265" y="931.2209944751381" type="line"/>
      <point x="600.7624309392265" y="894.0883977900553" type="line"/>
      <point x="712.0110497237569" y="850.4033149171271" type="line"/>
      <point x="712.0110497237569" y="203.85635359116023" type="line"/>
      <point x="667.4475138121547" y="167.5303867403315"/>
      <point x="603.5580110497237" y="131.13812154696132"/>
      <point x="513.5745856353591" y="131.13812154696132" type="curve" smooth="yes"/>
      <point x="422.9337016574585" y="131.13812154696132"/>
      <point x="392.4861878453039" y="193.9889502762431"/>
      <point x="392.4861878453039" y="334.89502762430936" type="curve" smooth="yes"/>
      <point x="392.4861878453039" y="993.6574585635359" type="line"/>
      <point x="348.98342541436466" y="1028.0939226519338" type="line"/>
      <point x="312.878453038674" y="1028.0939226519338" type="line"/>
      <point x="8.61878453038674" y="931.2209944751381" type="line"/>
      <point x="8.61878453038674" y="894.0883977900553" type="line"/>
      <point x="111.18232044198895" y="850.4033149171271" type="line"/>
      <point x="111.4585635359116" y="339.02762430939225" type="line" smooth="yes"/>
      <point x="111.4585635359116" y="93.62983425414365"/>
      <point x="194.06629834254144" y="-20.0"/>
      <point x="393.4861878453039" y="-20.0" type="curve" smooth="yes"/>
      <point x="540.9834254143647" y="-20.0"/>
      <point x="654.7348066298342" y="63.73480662983425"/>
      <point x="721.6961325966851" y="171.75138121546962" type="curve"/>
      <point x="721.6961325966851" y="69.61878453038673" type="line" smooth="yes"/>
      <point x="721.6961325966851" y="-6.475138121546962"/>
      <point x="774.3425414364641" y="-18.171270718232044"/>
    </contour>
  </outline>
</glyph>
<glyph name="v" format="2">
  <advance width="970.0718232044198"/>
  <unicode hex="0076"/>
  <outline>
    <contour>
      <point x="-41.77900552486187" y="967.828729281768" type="line"/>
      <point x="47.01104972375691" y="927.0773480662983" type="line"/>
      <point x="351.32596685082876" y="0.0" type="line"/>
      <point x="626.353591160221" y="0.0" type="line"/>
      <point x="926.585635359116" y="927.0773480662983" type="line"/>
      <point x="1029.5745856353592" y="967.828729281768" type="line"/>
      <point x="1029.5745856353592" y="1005.0" type="line"/>
      <point x="692.3591160220994" y="1005.0" type="line"/>
      <point x="692.3591160220994" y="967.1049723756906" type="line"/>
      <point x="816.3480662983425" y="927.0773480662983" type="line"/>
      <point x="654.0662983425414" y="288.94475138121544" type="line"/>
      <point x="601.8011049723757" y="102.04419889502762" type="line"/>
      <point x="547.7071823204419" y="303.14364640883974" type="line"/>
      <point x="372.5027624309392" y="927.0773480662983" type="line"/>
      <point x="480.2651933701657" y="967.828729281768" type="line"/>
      <point x="480.2651933701657" y="1005.0" type="line"/>
      <point x="-41.77900552486187" y="1005.0" type="line"/>
    </contour>
  </outline>
</glyph>
<glyph name="w" format="2">
  <advance width="1508.5690607734807"/>
  <unicode hex="0077"/>
  <anchor x="743.3425414364641" y="0.0" name="bottom"/>
  <anchor x="773.817679558011" y="1110.7237569060774" name="top"/>
  <outline>
    <contour>
      <point x="-69.04419889502762" y="967.828729281768" type="line"/>
      <point x="12.403314917127076" y="927.0773480662983" type="line"/>
      <point x="284.34806629834253" y="0.0" type="line"/>
      <point x="531.8342541436464" y="0.0" type="line"/>
      <point x="688.3701657458563" y="622.2872928176796" type="line"/>
      <point x="733.7900552486187" y="833.1767955801105" type="line"/>
      <point x="782.3149171270718" y="623.011049723757" type="line"/>
      <point x="934.7845303867404" y="0.0" type="line"/>
      <point x="1197.4696132596684" y="0.0" type="line"/>
      <point x="1487.6132596685084" y="927.0773480662983" type="line"/>
      <point x="1597.878453038674" y="967.828729281768" type="line"/>
      <point x="1597.878453038674" y="1005.0" type="line"/>
      <point x="1268.624309392265" y="1005.0" type="line"/>
      <point x="1268.624309392265" y="968.5524861878453" type="line"/>
      <point x="1388.1657458563536" y="927.0773480662983" type="line"/>
      <point x="1227.8011049723757" y="312.4309392265193" type="line"/>
      <point x="1183.9834254143645" y="115.6906077348066" type="line"/>
      <point x="1142.232044198895" y="303.5911602209944" type="line"/>
      <point x="983.1325966850828" y="1005.0" type="line"/>
      <point x="703.1325966850828" y="1005.0" type="line"/>
      <point x="551.3093922651933" y="311.707182320442" type="line"/>
      <point x="510.3867403314917" y="115.69060773480662" type="line"/>
      <point x="470.8066298342541" y="303.5911602209944" type="line"/>
      <point x="317.64088397790056" y="927.0773480662983" type="line"/>
      <point x="412.64088397790056" y="968.5524861878453" type="line"/>
      <point x="412.64088397790056" y="1005.0" type="line"/>
      <point x="-69.04419889502762" y="1005.0" type="line"/>
    </contour>
  </outline>
</glyph>
<glyph name="x" format="2">
  <advance width="1042.3204419889503"/>
  <unicode hex="0078"/>
  <outline>
    <contour>
      <point x="94.08839779005527" y="71.0" type="line"/>
      <point x="-11.872928176795565" y="37.72375690607735" type="line"/>
      <point x="-11.872928176795565" y="0.0" type="line"/>
      <point x="352.7513812154696" y="0.0" type="line"/>
      <point x="352.7513812154696" y="37.72375690607735" type="line"/>
      <point x="213.45856353591162" y="71.0" type="line"/>
      <point x="364.97237569060775" y="312.89502762430936" type="line"/>
      <point x="425.878453038674" y="414.8121546961326" type="line"/>
      <point x="495.7182320441989" y="296.38121546961327" type="line"/>
      <point x="629.6519337016575" y="71.0" type="line"/>
      <point x="518.7845303867404" y="37.72375690607735" type="line"/>
      <point x="518.7845303867404" y="0.0" type="line"/>
      <point x="1056.9558011049724" y="0.0" type="line"/>
      <point x="1056.9558011049724" y="37.72375690607735" type="line"/>
      <point x="955.8121546961326" y="71.0" type="line"/>
      <point x="646.3646408839779" y="550.0939226519337" type="line"/>
      <point x="935.9447513812154" y="935.2762430939226" type="line"/>
      <point x="1040.353591160221" y="967.1049723756906" type="line"/>
      <point x="1040.353591160221" y="1005.0" type="line"/>
      <point x="684.3867403314918" y="1005.0" type="line"/>
      <point x="684.3867403314918" y="967.1049723756906" type="line"/>
      <point x="814.8895027624309" y="934.5524861878453" type="line"/>
      <point x="664.6408839779006" y="690.1988950276243" type="line"/>
      <point x="612.0883977900552" y="595.121546961326" type="line"/>
      <point x="547.4309392265193" y="704.5414364640884" type="line"/>
      <point x="411.0110497237569" y="935.2762430939226" type="line"/>
      <point x="523.2596685082873" y="967.1049723756906" type="line"/>
      <point x="523.2596685082873" y="1005.0" type="line"/>
      <point x="-13.911602209944743" y="1005.0" type="line"/>
      <point x="-13.911602209944743" y="967.1049723756906" type="line"/>
      <point x="82.74585635359117" y="935.2762430939226" type="line"/>
      <point x="389.2596685082873" y="460.2209944751381" type="line"/>
    </contour>
  </outline>
</glyph>
<glyph name="y" format="2">
  <advance width="970.6243093922652"/>
  <unicode hex="0079"/>
  <anchor x="841.4309392265193" y="0.0" name="bottom"/>
  <anchor x="523.7955801104972" y="1110.7237569060774" name="top"/>
  <outline>
    <contour>
      <point x="218.86187845303866" y="-485.7348066298343" type="curve" smooth="yes"/>
      <point x="399.6298342541436" y="-485.7348066298343"/>
      <point x="500.69613259668506" y="-344.49723756906076"/>
      <point x="619.9447513812155" y="-28.314917127071826" type="curve"/>
      <point x="641.1933701657458" y="22.77348066298343"/>
      <point x="805.6795580110497" y="549.6298342541436"/>
      <point x="934.3756906077348" y="927.0773480662983" type="curve"/>
      <point x="1038.1933701657458" y="967.828729281768" type="line"/>
      <point x="1038.1933701657458" y="1005.0" type="line"/>
      <point x="706.5027624309392" y="1005.0" type="line"/>
      <point x="706.5027624309392" y="967.1049723756906" type="line"/>
      <point x="826.9005524861878" y="927.0773480662983" type="line"/>
      <point x="658.7624309392265" y="288.66850828729275" type="line"/>
      <point x="606.4972375690608" y="101.76795580110496" type="line"/>
      <point x="552.6795580110497" y="303.69613259668506" type="line"/>
      <point x="365.81767955801104" y="927.0773480662983" type="line"/>
      <point x="468.0552486187845" y="967.5524861878453" type="line"/>
      <point x="468.0552486187845" y="1005.0" type="line"/>
      <point x="-47.502762430939214" y="1005.7237569060774" type="line"/>
      <point x="-47.502762430939214" y="968.5524861878453" type="line"/>
      <point x="42.39226519337017" y="927.8011049723757" type="line"/>
      <point x="356.4033149171271" y="0.0" type="line"/>
      <point x="552.1270718232043" y="0.0" type="line"/>
      <point x="495.75690607734805" y="-158.84530386740332"/>
      <point x="368.4419889502762" y="-276.30386740331494"/>
      <point x="220.16574585635357" y="-276.30386740331494" type="curve" smooth="yes"/>
      <point x="184.37569060773478" y="-276.30386740331494"/>
      <point x="147.9281767955801" y="-270.1325966850829"/>
      <point x="124.6906077348066" y="-262.13259668508294" type="curve"/>
      <point x="124.6906077348066" y="-469.56353591160223" type="line"/>
      <point x="141.41436464088395" y="-479.7348066298343"/>
      <point x="176.0331491712707" y="-485.7348066298343"/>
    </contour>
  </outline>
</glyph>
<glyph name="z" format="2">
  <advance width="962.4530386740331"/>
  <unicode hex="007A"/>
  <anchor x="489.46408839779" y="0.0" name="bottom"/>
  <anchor x="494.7790055248619" y="1110.7237569060774" name="top"/>
  <outline>
    <contour>
      <point x="641.4143646408841" y="952.0386740331492" type="line"/>
      <point x="550.8397790055249" y="855.939226519337" type="line"/>
      <point x="23.83977900552487" y="54.0" type="line"/>
      <point x="65.69613259668509" y="0.0" type="line"/>
      <point x="892.2707182320441" y="0.0" type="line"/>
      <point x="938.4033149171271" y="357.87292817679554" type="line"/>
      <point x="806.7127071823204" y="380.7292817679558" type="line"/>
      <point x="686.1049723756906" y="78.96132596685084" type="line"/>
      <point x="332.09392265193367" y="51.790055248618785" type="line"/>
      <point x="441.94475138121544" y="184.91712707182322" type="line"/>
      <point x="945.878453038674" y="948.8287292817679" type="line"/>
      <point x="906.0220994475138" y="1005.0" type="line"/>
      <point x="87.353591160221" y="1002.8287292817679" type="line"/>
      <point x="75.04972375690609" y="664.2596685082873" type="line"/>
      <point x="216.76795580110496" y="666.4309392265193" type="line"/>
      <point x="288.4806629834254" y="930.2099447513813" type="line"/>
    </contour>
  </outline>
</glyph>
<glyph name="braceleft" format="2">
  <advance width="949.5193370165746"/>
  <unicode hex="007B"/>
  <outline>
    <contour>
      <point x="582.3701657458564" y="-279.23756906077347" type="curve" smooth="yes"/>
      <point x="678.767955801105" y="-279.23756906077347"/>
      <point x="765.414364640884" y="-260.17127071823205"/>
      <point x="840.889502762431" y="-238.0" type="curve"/>
      <point x="840.889502762431" y="-195.17127071823205" type="line"/>
      <point x="807.3480662983426" y="-197.0"/>
      <point x="762.4309392265194" y="-198.82872928176795"/>
      <point x="729.2320441988951" y="-198.82872928176795" type="curve" smooth="yes"/>
      <point x="628.8121546961327" y="-198.82872928176795"/>
      <point x="537.5138121546961" y="-155.52486187845304"/>
      <point x="537.5138121546961" y="-14.988950276243095" type="curve" smooth="yes"/>
      <point x="537.5138121546961" y="101.25966850828729"/>
      <point x="598.4088397790056" y="285.0497237569061"/>
      <point x="598.4088397790056" y="421.08839779005524" type="curve" smooth="yes"/>
      <point x="598.4088397790056" y="591.817679558011"/>
      <point x="442.2044198895028" y="651.1049723756906"/>
      <point x="272.0828729281768" y="672.0" type="curve"/>
      <point x="442.2044198895028" y="694.171270718232"/>
      <point x="598.4088397790056" y="743.0773480662983"/>
      <point x="598.4088397790056" y="914.9116022099447" type="curve" smooth="yes"/>
      <point x="598.4088397790056" y="1052.3977900552486"/>
      <point x="537.5138121546961" y="1240.3591160220994"/>
      <point x="537.5138121546961" y="1355.8839779005525" type="curve" smooth="yes"/>
      <point x="537.5138121546961" y="1493.867403314917"/>
      <point x="624.2983425414365" y="1539.171270718232"/>
      <point x="724.1657458563536" y="1539.171270718232" type="curve" smooth="yes"/>
      <point x="757.707182320442" y="1539.171270718232"/>
      <point x="807.3480662983426" y="1537.8950276243095"/>
      <point x="840.889502762431" y="1536.0662983425414" type="curve"/>
      <point x="840.889502762431" y="1576.0" type="line"/>
      <point x="755.9668508287293" y="1600.342541436464"/>
      <point x="685.5303867403316" y="1616.6850828729282"/>
      <point x="588.0276243093923" y="1616.6850828729282" type="curve" smooth="yes"/>
      <point x="356.32596685082876" y="1616.6850828729282"/>
      <point x="243.9171270718232" y="1519.828729281768"/>
      <point x="243.9171270718232" y="1353.486187845304" type="curve" smooth="yes"/>
      <point x="243.9171270718232" y="1169.657458563536"/>
      <point x="360.353591160221" y="1014.6685082872929"/>
      <point x="360.353591160221" y="871.353591160221" type="curve" smooth="yes"/>
      <point x="360.353591160221" y="768.3425414364641"/>
      <point x="302.0" y="704.5524861878453"/>
      <point x="104.50276243093923" y="705.1049723756906" type="curve"/>
      <point x="104.50276243093923" y="650.3425414364641" type="line"/>
      <point x="302.0" y="650.8950276243094"/>
      <point x="360.353591160221" y="570.7624309392265"/>
      <point x="360.353591160221" y="465.1988950276243" type="curve" smooth="yes"/>
      <point x="360.353591160221" y="322.6077348066298"/>
      <point x="243.9171270718232" y="166.8950276243094"/>
      <point x="243.9171270718232" y="-16.76243093922652" type="curve" smooth="yes"/>
      <point x="243.9171270718232" y="-181.82872928176795"/>
      <point x="354.5359116022099" y="-279.23756906077347"/>
    </contour>
  </outline>
</glyph>
<glyph name="exclamdown" format="2">
  <advance width="461.7458563535912"/>
  <unicode hex="00A1"/>
  <outline>
    <contour>
      <point x="73.53591160220994" y="-477.30386740331494" type="line"/>
      <point x="388.2099447513812" y="-477.30386740331494" type="line"/>
      <point x="260.49171270718233" y="845.243093922652" type="line"/>
      <point x="198.32044198895028" y="845.243093922652" type="line"/>
    </contour>
    <contour>
      <point x="244.38674033149172" y="1292.1049723756905" type="curve" smooth="yes"/>
      <point x="150.1325966850829" y="1292.1049723756905"/>
      <point x="82.76243093922652" y="1236.524861878453"/>
      <point x="82.76243093922652" y="1143.1270718232045" type="curve" smooth="yes"/>
      <point x="82.76243093922652" y="1073.6906077348067"/>
      <point x="129.75138121546962" y="1007.9779005524862"/>
      <point x="219.70165745856355" y="1007.9779005524862" type="curve" smooth="yes"/>
      <point x="306.9944751381215" y="1007.9779005524862"/>
      <point x="378.2596685082873" y="1069.1767955801106"/>
      <point x="378.2596685082873" y="1156.9558011049724" type="curve" smooth="yes"/>
      <point x="378.2596685082873" y="1236.5635359116022"/>
      <point x="315.8232044198895" y="1292.1049723756905"/>
    </contour>
  </outline>
</glyph>
<glyph name="sterling" format="2">
  <advance width="1464.1657458563536"/>
  <unicode hex="00A3"/>
  <outline>
    <contour>
      <point x="919.8839779005525" y="-14.0" type="curve" smooth="yes"/>
      <point x="1168.1491712707182" y="-14.0"/>
      <point x="1379.5635359116022" y="137.4585635359116"/>
      <point x="1379.5635359116022" y="359.37016574585635" type="curve" smooth="yes"/>
      <point x="1379.5635359116022" y="436.43646408839777"/>
      <point x="1352.4972375690609" y="493.43646408839777"/>
      <point x="1324.364640883978" y="522.7790055248619" type="curve"/>
      <point x="1038.9447513812154" y="522.7790055248619" type="line"/>
      <point x="1075.353591160221" y="478.0939226519337"/>
      <point x="1100.2099447513813" y="391.7790055248619"/>
      <point x="1100.2099447513813" y="320.292817679558" type="curve" smooth="yes"/>
      <point x="1100.2099447513813" y="142.47513812154696"/>
      <point x="1036.867403314917" y="48.972375690607734"/>
      <point x="902.8287292817679" y="48.972375690607734" type="curve" smooth="yes"/>
      <point x="741.2762430939226" y="48.972375690607734"/>
      <point x="648.0994475138122" y="131.35359116022101"/>
      <point x="481.30939226519337" y="183.26519337016575" type="curve"/>
      <point x="563.7348066298342" y="266.3867403314917"/>
      <point x="614.2596685082873" y="388.9779005524862"/>
      <point x="614.2596685082873" y="614.9281767955802" type="curve" smooth="yes"/>
      <point x="614.2596685082873" y="772.9337016574585" type="line"/>
      <point x="905.9558011049724" y="772.9337016574585" type="line"/>
      <point x="905.9558011049724" y="848.171270718232" type="line"/>
      <point x="614.2596685082873" y="848.171270718232" type="line"/>
      <point x="614.2596685082873" y="1126.4696132596684" type="line" smooth="yes"/>
      <point x="614.2596685082873" y="1363.6298342541436"/>
      <point x="689.0165745856353" y="1448.3812154696132"/>
      <point x="805.2541436464088" y="1448.3812154696132" type="curve" smooth="yes"/>
      <point x="912.5303867403316" y="1448.3812154696132"/>
      <point x="1026.9944751381215" y="1340.745856353591"/>
      <point x="1081.2983425414363" y="1216.5690607734807" type="curve"/>
      <point x="1214.6685082872928" y="1387.011049723757" type="line"/>
      <point x="1125.2044198895028" y="1458.171270718232"/>
      <point x="989.9116022099447" y="1504.171270718232"/>
      <point x="842.4751381215469" y="1504.171270718232" type="curve" smooth="yes"/>
      <point x="553.0773480662983" y="1504.171270718232"/>
      <point x="317.64088397790056" y="1304.0"/>
      <point x="317.64088397790056" y="998.7237569060774" type="curve" smooth="yes"/>
      <point x="317.64088397790056" y="848.171270718232" type="line"/>
      <point x="130.94475138121547" y="848.171270718232" type="line"/>
      <point x="130.94475138121547" y="772.9337016574585" type="line"/>
      <point x="317.64088397790056" y="772.9337016574585" type="line"/>
      <point x="317.64088397790056" y="393.72375690607737" type="line" smooth="yes"/>
      <point x="317.64088397790056" y="310.25414364640886"/>
      <point x="308.6022099447514" y="245.81767955801104"/>
      <point x="294.2209944751381" y="215.4254143646409" type="curve"/>
      <point x="196.13259668508286" y="209.01657458563534"/>
      <point x="72.62983425414365" y="157.01657458563534"/>
      <point x="72.62983425414365" y="80.47513812154696" type="curve" smooth="yes"/>
      <point x="72.62983425414365" y="32.34254143646409"/>
      <point x="114.62983425414365" y="0.0"/>
      <point x="180.48618784530387" y="0.0" type="curve" smooth="yes"/>
      <point x="262.4475138121547" y="0.0"/>
      <point x="318.2099447513812" y="28.563535911602216"/>
      <point x="392.09392265193367" y="102.41988950276243" type="curve"/>
      <point x="514.9834254143647" y="101.86740331491713"/>
      <point x="671.7734806629835" y="-14.0"/>
    </contour>
  </outline>
</glyph>
<glyph name="yen" format="2">
  <advance width="1531.9337016574586"/>
  <unicode hex="00A5"/>
  <outline>
    <contour>
      <point x="589.1160220994475" y="758.8563535911602" type="line"/>
      <point x="205.52486187845304" y="758.8563535911602" type="line"/>
      <point x="205.52486187845304" y="699.2375690607735" type="line"/>
      <point x="623.353591160221" y="699.2375690607735" type="line"/>
      <point x="623.353591160221" y="449.02762430939225" type="line"/>
      <point x="205.52486187845304" y="449.02762430939225" type="line"/>
      <point x="205.52486187845304" y="389.4088397790055" type="line"/>
      <point x="623.353591160221" y="389.4088397790055" type="line"/>
      <point x="623.353591160221" y="69.27624309392266" type="line"/>
      <point x="428.4475138121547" y="36.72375690607735" type="line"/>
      <point x="428.4475138121547" y="0.0" type="line"/>
      <point x="1136.7237569060774" y="0.0" type="line"/>
      <point x="1136.7237569060774" y="36.72375690607735" type="line"/>
      <point x="928.9613259668508" y="69.27624309392266" type="line"/>
      <point x="928.9613259668508" y="389.4088397790055" type="line"/>
      <point x="1351.2375690607735" y="389.4088397790055" type="line"/>
      <point x="1351.2375690607735" y="449.02762430939225" type="line"/>
      <point x="928.9613259668508" y="449.02762430939225" type="line"/>
      <point x="928.9613259668508" y="699.2375690607735" type="line"/>
      <point x="1351.2375690607735" y="699.2375690607735" type="line"/>
      <point x="1351.2375690607735" y="758.8563535911602" type="line"/>
      <point x="931.3812154696133" y="758.8563535911602" type="line"/>
      <point x="1282.3259668508288" y="1416.524861878453" type="line"/>
      <point x="1450.7513812154696" y="1451.0" type="line"/>
      <point x="1450.7513812154696" y="1486.0" type="line"/>
      <point x="971.5580110497237" y="1486.0" type="line"/>
      <point x="971.5580110497237" y="1451.0" type="line"/>
      <point x="1184.1160220994475" y="1413.353591160221" type="line"/>
      <point x="931.2209944751381" y="904.8232044198895" type="line"/>
      <point x="861.2099447513813" y="768.5248618784531" type="line"/>
      <point x="792.0276243093923" y="903.7182320441989" type="line"/>
      <point x="544.2265193370165" y="1416.2486187845304" type="line"/>
      <point x="707.950276243094" y="1451.0" type="line"/>
      <point x="707.950276243094" y="1486.0" type="line"/>
      <point x="101.4475138121547" y="1486.0" type="line"/>
      <point x="101.4475138121547" y="1451.0" type="line"/>
      <point x="200.07734806629833" y="1416.2486187845304" type="line"/>
    </contour>
  </outline>
</glyph>
<glyph name="section" format="2">
  <advance width="1374.0497237569061"/>
  <unicode hex="00A7"/>
  <outline>
    <contour>
      <point x="374.23204419889504" y="224.8011049723757" type="line"/>
      <point x="207.61878453038673" y="224.8011049723757" type="line"/>
      <point x="189.44751381215468" y="-106.0" type="line"/>
      <point x="255.79005524861878" y="-112.0"/>
      <point x="421.7955801104972" y="-198.0"/>
      <point x="672.6906077348067" y="-198.0" type="curve" smooth="yes"/>
      <point x="1024.9171270718232" y="-198.0"/>
      <point x="1172.53591160221" y="-29.011049723756905"/>
      <point x="1172.53591160221" y="147.16022099447514" type="curve" smooth="yes"/>
      <point x="1172.53591160221" y="239.92265193370167"/>
      <point x="1132.0497237569061" y="317.3425414364641"/>
      <point x="1059.0773480662983" y="379.7900552486188" type="curve"/>
      <point x="1145.707182320442" y="445.0"/>
      <point x="1214.1160220994475" y="563.2541436464088"/>
      <point x="1214.1160220994475" y="699.1767955801105" type="curve" smooth="yes"/>
      <point x="1214.1160220994475" y="963.3425414364641"/>
      <point x="950.1436464088398" y="1054.3149171270718"/>
      <point x="773.0662983425415" y="1132.2486187845304" type="curve" smooth="yes"/>
      <point x="607.7403314917127" y="1207.4309392265193"/>
      <point x="469.6685082872928" y="1261.1546961325967"/>
      <point x="469.6685082872928" y="1400.3591160220994" type="curve" smooth="yes"/>
      <point x="469.6685082872928" y="1518.6187845303868"/>
      <point x="566.060773480663" y="1588.486187845304"/>
      <point x="704.4530386740331" y="1588.486187845304" type="curve" smooth="yes"/>
      <point x="801.4640883977901" y="1588.486187845304"/>
      <point x="886.3314917127071" y="1555.171270718232"/>
      <point x="899.6850828729282" y="1527.2762430939226" type="curve"/>
      <point x="956.8839779005525" y="1264.8563535911603" type="line"/>
      <point x="1105.9171270718232" y="1264.8563535911603" type="line"/>
      <point x="1120.403314917127" y="1572.0" type="line"/>
      <point x="1060.756906077348" y="1579.2375690607735"/>
      <point x="905.0055248618785" y="1644.7237569060774"/>
      <point x="705.767955801105" y="1644.7237569060774" type="curve" smooth="yes"/>
      <point x="425.16022099447514" y="1644.7237569060774"/>
      <point x="220.17127071823205" y="1516.0"/>
      <point x="220.17127071823205" y="1308.3149171270718" type="curve" smooth="yes"/>
      <point x="220.17127071823205" y="1209.0386740331492"/>
      <point x="266.89502762430936" y="1126.486187845304"/>
      <point x="330.2099447513812" y="1069.657458563536" type="curve"/>
      <point x="234.8011049723757" y="1001.5248618784531"/>
      <point x="172.17127071823205" y="903.9834254143647"/>
      <point x="172.17127071823205" y="769.2596685082873" type="curve" smooth="yes"/>
      <point x="172.17127071823205" y="544.0883977900553"/>
      <point x="344.5359116022099" y="424.6132596685083"/>
      <point x="575.9116022099447" y="321.5303867403315" type="curve" smooth="yes"/>
      <point x="756.7513812154696" y="239.939226519337"/>
      <point x="922.0" y="184.00552486187843"/>
      <point x="922.0" y="44.9171270718232" type="curve" smooth="yes"/>
      <point x="922.0" y="-68.85635359116023"/>
      <point x="817.9613259668508" y="-143.20994475138122"/>
      <point x="663.767955801105" y="-143.20994475138122" type="curve" smooth="yes"/>
      <point x="549.5469613259669" y="-143.20994475138122"/>
      <point x="448.65193370165747" y="-103.17127071823205"/>
      <point x="422.78453038674036" y="-61.552486187845304" type="curve"/>
    </contour>
    <contour>
      <point x="698.8453038674033" y="576.7237569060774" type="curve" smooth="yes"/>
      <point x="488.03867403314916" y="677.1988950276243"/>
      <point x="361.76795580110496" y="767.1712707182321"/>
      <point x="361.76795580110496" y="890.9779005524862" type="curve" smooth="yes"/>
      <point x="361.76795580110496" y="938.8950276243094"/>
      <point x="375.1878453038674" y="981.9723756906077"/>
      <point x="401.81767955801104" y="1014.1160220994475" type="curve"/>
      <point x="479.47513812154693" y="963.8397790055249"/>
      <point x="565.4640883977901" y="925.4309392265193"/>
      <point x="666.8563535911602" y="880.1160220994475" type="curve" smooth="yes"/>
      <point x="872.1602209944751" y="786.9834254143647"/>
      <point x="1010.6243093922652" y="708.7734806629834"/>
      <point x="1010.6243093922652" y="562.4972375690608" type="curve" smooth="yes"/>
      <point x="1010.6243093922652" y="521.4198895027624"/>
      <point x="1000.7955801104972" y="475.0939226519337"/>
      <point x="973.6795580110497" y="441.3977900552486" type="curve"/>
      <point x="894.6298342541436" y="486.2651933701658"/>
      <point x="828.7955801104972" y="515.1436464088398"/>
    </contour>
  </outline>
</glyph>
<glyph name="copyright" format="2">
  <advance width="2041.9060773480662"/>
  <unicode hex="00A9"/>
  <outline>
    <contour>
      <point x="186.64640883977899" y="973.7513812154696" type="curve" smooth="yes"/>
      <point x="186.64640883977899" y="497.7513812154696"/>
      <point x="559.0828729281768" y="119.27624309392266"/>
      <point x="1021.9005524861878" y="119.27624309392266" type="curve" smooth="yes"/>
      <point x="1486.6132596685084" y="119.27624309392266"/>
      <point x="1855.2596685082872" y="497.7513812154696"/>
      <point x="1855.2596685082872" y="973.7513812154696" type="curve" smooth="yes"/>
      <point x="1855.2596685082872" y="1447.7513812154696"/>
      <point x="1486.6132596685084" y="1824.9502762430939"/>
      <point x="1021.9005524861878" y="1824.9502762430939" type="curve" smooth="yes"/>
      <point x="557.6353591160221" y="1824.9502762430939"/>
      <point x="186.64640883977899" y="1450.646408839779"/>
    </contour>
    <contour>
      <point x="277.3204419889503" y="973.0276243093923" type="curve" smooth="yes"/>
      <point x="277.3204419889503" y="1405.6850828729282"/>
      <point x="601.8342541436464" y="1746.342541436464"/>
      <point x="1021.9005524861878" y="1746.342541436464" type="curve" smooth="yes"/>
      <point x="1438.7955801104972" y="1746.342541436464"/>
      <point x="1764.0331491712707" y="1402.7900552486187"/>
      <point x="1764.0331491712707" y="973.7513812154696" type="curve" smooth="yes"/>
      <point x="1764.0331491712707" y="542.7127071823204"/>
      <point x="1435.9005524861877" y="200.60773480662982"/>
      <point x="1021.9005524861878" y="200.60773480662982" type="curve" smooth="yes"/>
      <point x="602.8342541436464" y="200.60773480662982"/>
      <point x="277.3204419889503" y="539.817679558011"/>
    </contour>
    <contour>
      <point x="1026.375690607735" y="497.7513812154696" type="curve" smooth="yes"/>
      <point x="1169.756906077348" y="497.7513812154696"/>
      <point x="1291.2983425414363" y="576.0939226519337"/>
      <point x="1347.9558011049724" y="645.5414364640884" type="curve"/>
      <point x="1324.0607734806629" y="696.0165745856353" type="line"/>
      <point x="1269.9558011049724" y="644.8729281767955"/>
      <point x="1181.0220994475137" y="607.6629834254144"/>
      <point x="1095.1270718232045" y="607.6629834254144" type="curve" smooth="yes"/>
      <point x="919.6132596685082" y="607.6629834254144"/>
      <point x="800.9558011049724" y="764.2541436464088"/>
      <point x="800.9558011049724" y="1006.7513812154696" type="curve" smooth="yes"/>
      <point x="800.9558011049724" y="1231.0662983425414"/>
      <point x="898.0220994475138" y="1396.513812154696"/>
      <point x="1044.110497237569" y="1396.513812154696" type="curve" smooth="yes"/>
      <point x="1099.46408839779" y="1396.513812154696"/>
      <point x="1152.7403314917126" y="1379.9226519337017"/>
      <point x="1172.9116022099447" y="1361.0939226519338" type="curve"/>
      <point x="1216.9116022099447" y="1158.9723756906078" type="line"/>
      <point x="1331.9944751381215" y="1158.9723756906078" type="line"/>
      <point x="1335.1657458563536" y="1398.646408839779" type="line"/>
      <point x="1297.7182320441989" y="1436.646408839779"/>
      <point x="1173.2044198895028" y="1457.3701657458564"/>
      <point x="1088.3093922651933" y="1457.3701657458564" type="curve" smooth="yes"/>
      <point x="804.0441988950276" y="1457.3701657458564"/>
      <point x="602.2541436464088" y="1246.646408839779"/>
      <point x="602.2541436464088" y="964.9502762430939" type="curve" smooth="yes"/>
      <point x="602.2541436464088" y="693.6077348066299"/>
      <point x="750.6740331491712" y="497.7513812154696"/>
    </contour>
  </outline>
</glyph>
<glyph name="guillemetleft" format="2">
  <advance width="1165.5911602209944"/>
  <unicode hex="00AB"/>
  <outline>
    <contour>
      <point x="528.9668508287293" y="981.243093922652" type="line"/>
      <point x="77.10497237569061" y="552.9613259668508" type="line"/>
      <point x="77.10497237569061" y="495.89502762430936" type="line"/>
      <point x="528.9668508287293" y="76.88950276243094" type="line"/>
      <point x="572.3093922651934" y="101.37569060773481" type="line"/>
      <point x="325.64088397790056" y="524.6187845303867" type="line"/>
      <point x="572.3093922651934" y="960.3093922651933" type="line"/>
    </contour>
    <contour>
      <point x="1015.5635359116022" y="981.243093922652" type="line"/>
      <point x="539.5303867403316" y="552.9613259668508" type="line"/>
      <point x="539.5303867403316" y="495.89502762430936" type="line"/>
      <point x="1015.5635359116022" y="76.88950276243094" type="line"/>
      <point x="1060.353591160221" y="101.37569060773481" type="line"/>
      <point x="788.0662983425415" y="524.6187845303867" type="line"/>
      <point x="1060.353591160221" y="960.3093922651933" type="line"/>
    </contour>
  </outline>
</glyph>
<glyph name="registered" format="2">
  <advance width="2041.9060773480662"/>
  <unicode hex="00AE"/>
  <outline>
    <contour>
      <point x="186.646408839779" y="973.7513812154696" type="curve" smooth="yes"/>
      <point x="186.646408839779" y="497.7513812154696"/>
      <point x="559.0828729281768" y="119.27624309392266"/>
      <point x="1021.9005524861878" y="119.27624309392266" type="curve" smooth="yes"/>
      <point x="1486.6132596685084" y="119.27624309392266"/>
      <point x="1855.2596685082874" y="497.7513812154696"/>
      <point x="1855.2596685082874" y="973.7513812154696" type="curve" smooth="yes"/>
      <point x="1855.2596685082874" y="1447.7513812154696"/>
      <point x="1486.6132596685084" y="1824.9502762430939"/>
      <point x="1021.9005524861878" y="1824.9502762430939" type="curve" smooth="yes"/>
      <point x="557.6353591160221" y="1824.9502762430939"/>
      <point x="186.646408839779" y="1450.646408839779"/>
    </contour>
    <contour>
      <point x="277.3204419889503" y="973.0276243093923" type="curve" smooth="yes"/>
      <point x="277.3204419889503" y="1405.6850828729282"/>
      <point x="601.8342541436464" y="1746.342541436464"/>
      <point x="1021.9005524861878" y="1746.342541436464" type="curve" smooth="yes"/>
      <point x="1438.7955801104972" y="1746.342541436464"/>
      <point x="1764.0331491712707" y="1402.7900552486187"/>
      <point x="1764.0331491712707" y="973.7513812154696" type="curve" smooth="yes"/>
      <point x="1764.0331491712707" y="542.7127071823204"/>
      <point x="1435.9005524861877" y="200.60773480662982"/>
      <point x="1021.9005524861878" y="200.60773480662982" type="curve" smooth="yes"/>
      <point x="602.8342541436464" y="200.60773480662982"/>
      <point x="277.3204419889503" y="539.817679558011"/>
    </contour>
    <contour>
      <point x="712.4640883977901" y="570.6077348066299" type="line"/>
      <point x="634.6740331491712" y="539.646408839779" type="line"/>
      <point x="634.6740331491712" y="502.646408839779" type="line"/>
      <point x="994.4585635359116" y="502.646408839779" type="line"/>
      <point x="994.4585635359116" y="539.646408839779" type="line"/>
      <point x="907.878453038674" y="566.9889502762431" type="line"/>
      <point x="907.878453038674" y="901.7237569060774" type="line"/>
      <point x="1030.0994475138123" y="900.4475138121547" type="line"/>
      <point x="1190.1767955801106" y="851.8011049723757"/>
      <point x="1158.9116022099447" y="502.646408839779"/>
      <point x="1296.1381215469614" y="502.646408839779" type="curve" smooth="yes"/>
      <point x="1481.9558011049724" y="502.646408839779" type="line"/>
      <point x="1481.9558011049724" y="548.646408839779" type="line"/>
      <point x="1332.5911602209944" y="559.1325966850828"/>
      <point x="1385.2375690607735" y="836.9337016574585"/>
      <point x="1187.7734806629835" y="932.1988950276243" type="curve"/>
      <point x="1336.524861878453" y="963.6850828729282"/>
      <point x="1399.4696132596684" y="1070.988950276243"/>
      <point x="1399.4696132596684" y="1190.342541436464" type="curve" smooth="yes"/>
      <point x="1399.4696132596684" y="1347.7900552486187"/>
      <point x="1291.9834254143645" y="1447.1988950276243"/>
      <point x="1042.243093922652" y="1447.1988950276243" type="curve"/>
      <point x="936.110497237569" y="1446.646408839779"/>
      <point x="894.5580110497237" y="1441.9226519337017"/>
      <point x="807.243093922652" y="1441.9226519337017" type="curve" smooth="yes"/>
      <point x="634.6740331491712" y="1441.9226519337017" type="line"/>
      <point x="634.6740331491712" y="1399.9226519337017" type="line"/>
      <point x="712.4640883977901" y="1372.6850828729282" type="line"/>
    </contour>
    <contour>
      <point x="907.878453038674" y="968.0276243093923" type="curve"/>
      <point x="907.878453038674" y="1381.513812154696" type="line"/>
      <point x="948.6132596685082" y="1388.7900552486187"/>
      <point x="984.2044198895028" y="1390.9613259668508"/>
      <point x="1017.9116022099447" y="1390.9613259668508" type="curve" smooth="yes"/>
      <point x="1122.46408839779" y="1390.9613259668508"/>
      <point x="1183.3977900552486" y="1316.171270718232"/>
      <point x="1183.3977900552486" y="1180.5524861878453" type="curve" smooth="yes"/>
      <point x="1183.3977900552486" y="1049.7900552486187"/>
      <point x="1127.8066298342542" y="961.3038674033149"/>
      <point x="1036.9281767955802" y="961.3038674033149" type="curve" smooth="yes"/>
      <point x="1001.4806629834254" y="961.3038674033149"/>
      <point x="937.3922651933701" y="961.3038674033149"/>
    </contour>
  </outline>
</glyph>
<glyph name="micro" format="2">
  <advance width="1100.9171270718232"/>
  <unicode hex="00B5"/>
  <outline>
    <contour>
      <point x="111.45856353591161" y="-362.5524861878453" type="line"/>
      <point x="369.9337016574585" y="-362.5524861878453" type="line"/>
      <point x="369.9337016574585" y="57.66850828729282" type="line"/>
      <point x="409.8287292817679" y="11.01104972375691"/>
      <point x="463.7348066298342" y="-18.552486187845304"/>
      <point x="542.110497237569" y="-18.552486187845304" type="curve" smooth="yes"/>
      <point x="622.6353591160221" y="-18.552486187845304"/>
      <point x="692.7513812154696" y="44.552486187845304"/>
      <point x="721.6961325966851" y="140.62983425414365" type="curve"/>
      <point x="721.6961325966851" y="69.61878453038675" type="line" smooth="yes"/>
      <point x="721.6961325966851" y="30.97237569060775"/>
      <point x="728.9337016574585" y="-18.895027624309392"/>
      <point x="865.121546961326" y="-18.895027624309392" type="curve" smooth="yes"/>
      <point x="947.5193370165746" y="-18.895027624309392"/>
      <point x="1051.353591160221" y="4.342541436464087"/>
      <point x="1078.1546961325967" y="11.104972375690608" type="curve"/>
      <point x="1078.1546961325967" y="47.72375690607735" type="line"/>
      <point x="991.867403314917" y="62.1988950276243" type="line"/>
      <point x="991.867403314917" y="993.6574585635359" type="line"/>
      <point x="945.5745856353591" y="1028.0939226519338" type="line"/>
      <point x="906.6795580110497" y="1028.0939226519338" type="line"/>
      <point x="600.7624309392265" y="931.2209944751381" type="line"/>
      <point x="600.7624309392265" y="894.0883977900553" type="line"/>
      <point x="712.011049723757" y="850.4033149171271" type="line"/>
      <point x="712.011049723757" y="203.85635359116023" type="line"/>
      <point x="668.4088397790056" y="152.2817679558011"/>
      <point x="614.3867403314916" y="133.90055248618782"/>
      <point x="547.3867403314918" y="133.90055248618782" type="curve" smooth="yes"/>
      <point x="440.9779005524862" y="133.90055248618782"/>
      <point x="392.48618784530385" y="230.6685082872928"/>
      <point x="392.48618784530385" y="332.1325966850829" type="curve" smooth="yes"/>
      <point x="392.48618784530385" y="993.6574585635359" type="line"/>
      <point x="348.5359116022099" y="1028.0939226519338" type="line"/>
      <point x="312.3259668508287" y="1028.0939226519338" type="line"/>
      <point x="8.61878453038674" y="931.2209944751381" type="line"/>
      <point x="8.61878453038674" y="894.0883977900553" type="line"/>
      <point x="111.18232044198896" y="850.4033149171271" type="line"/>
    </contour>
  </outline>
</glyph>
<glyph name="periodcentered" format="2">
  <advance width="315.4972375690608"/>
  <unicode hex="00B7"/>
  <outline>
    <contour>
      <point x="143.8729281767956" y="549.2596685082873" type="curve" smooth="yes"/>
      <point x="238.12707182320443" y="549.2596685082873"/>
      <point x="305.49723756906076" y="604.8397790055249"/>
      <point x="305.49723756906076" y="698.2375690607735" type="curve" smooth="yes"/>
      <point x="305.49723756906076" y="767.6740331491712"/>
      <point x="258.5082872928177" y="833.3867403314918"/>
      <point x="168.55801104972377" y="833.3867403314918" type="curve" smooth="yes"/>
      <point x="81.26519337016575" y="833.3867403314918"/>
      <point x="10.000000000000004" y="772.1878453038674"/>
      <point x="10.000000000000004" y="684.4088397790056" type="curve" smooth="yes"/>
      <point x="10.000000000000004" y="604.8011049723757"/>
      <point x="72.4364640883978" y="549.2596685082873"/>
    </contour>
  </outline>
</glyph>
<glyph name="guillemetright" format="2">
  <advance width="1165.5911602209944"/>
  <unicode hex="00BB"/>
  <outline>
    <contour>
      <point x="636.6243093922652" y="981.243093922652" type="line"/>
      <point x="593.2817679558011" y="960.3093922651933" type="line"/>
      <point x="839.9502762430939" y="524.6187845303867" type="line"/>
      <point x="593.2817679558011" y="101.37569060773482" type="line"/>
      <point x="636.6243093922652" y="76.88950276243095" type="line"/>
      <point x="1088.486187845304" y="495.89502762430936" type="line"/>
      <point x="1088.486187845304" y="552.9613259668508" type="line"/>
    </contour>
    <contour>
      <point x="150.02762430939228" y="981.243093922652" type="line"/>
      <point x="105.23756906077348" y="960.3093922651933" type="line"/>
      <point x="377.52486187845307" y="524.6187845303867" type="line"/>
      <point x="105.23756906077348" y="101.37569060773482" type="line"/>
      <point x="150.02762430939228" y="76.88950276243095" type="line"/>
      <point x="626.060773480663" y="495.89502762430936" type="line"/>
      <point x="626.060773480663" y="552.9613259668508" type="line"/>
    </contour>
  </outline>
</glyph>
<glyph name="questiondown" format="2">
  <advance width="890.2099447513813"/>
  <unicode hex="00BF"/>
  <outline>
    <contour>
      <point x="559.6740331491712" y="1049.1381215469614" type="curve"/>
      <point x="497.01657458563534" y="1049.1381215469614" type="line"/>
      <point x="511.0828729281768" y="955.6132596685082"/>
      <point x="521.7016574585635" y="847.4530386740331"/>
      <point x="521.7016574585635" y="770.4530386740331" type="curve" smooth="yes"/>
      <point x="521.7016574585635" y="739.4254143646409"/>
      <point x="516.6353591160221" y="705.8729281767955"/>
      <point x="505.22651933701655" y="683.3591160220994" type="curve"/>
      <point x="444.7955801104972" y="568.3812154696133"/>
      <point x="38.83977900552486" y="490.2596685082873"/>
      <point x="38.83977900552486" y="155.2375690607735" type="curve" smooth="yes"/>
      <point x="38.83977900552486" y="-109.4475138121547"/>
      <point x="235.61878453038676" y="-296.0"/>
      <point x="582.9226519337017" y="-296.0" type="curve" smooth="yes"/>
      <point x="708.6906077348067" y="-296.0"/>
      <point x="819.3370165745856" y="-265.69613259668506"/>
      <point x="863.1270718232045" y="-239.52486187845304" type="curve"/>
      <point x="841.9558011049724" y="-167.94475138121547" type="line"/>
      <point x="805.4033149171271" y="-185.22099447513813"/>
      <point x="731.2320441988951" y="-197.5635359116022"/>
      <point x="665.0994475138122" y="-197.5635359116022" type="curve" smooth="yes"/>
      <point x="442.4585635359116" y="-197.5635359116022"/>
      <point x="302.4088397790055" y="-14.60220994475138"/>
      <point x="302.4088397790055" y="234.01657458563537" type="curve" smooth="yes"/>
      <point x="302.4088397790055" y="298.2817679558011"/>
      <point x="314.5414364640884" y="367.2707182320442"/>
      <point x="336.5690607734807" y="426.4033149171271" type="curve"/>
      <point x="505.41436464088395" y="542.9723756906077"/>
      <point x="645.7955801104972" y="593.6187845303867"/>
      <point x="645.7955801104972" y="733.2817679558011" type="curve"/>
      <point x="644.6906077348067" y="821.3756906077348"/>
      <point x="589.3977900552486" y="976.6022099447514"/>
    </contour>
    <contour>
      <point x="551.8839779005525" y="1496.0" type="curve" smooth="yes"/>
      <point x="457.62983425414365" y="1496.0"/>
      <point x="390.2596685082873" y="1440.4198895027625"/>
      <point x="390.2596685082873" y="1347.0220994475137" type="curve" smooth="yes"/>
      <point x="390.2596685082873" y="1277.585635359116"/>
      <point x="437.2486187845304" y="1211.8729281767955"/>
      <point x="527.1988950276243" y="1211.8729281767955" type="curve" smooth="yes"/>
      <point x="614.4917127071824" y="1211.8729281767955"/>
      <point x="685.756906077348" y="1273.0718232044198"/>
      <point x="685.756906077348" y="1360.8508287292818" type="curve" smooth="yes"/>
      <point x="685.756906077348" y="1440.4585635359117"/>
      <point x="623.3204419889503" y="1496.0"/>
    </contour>
  </outline>
</glyph>
<glyph name="AE" format="2">
  <advance width="1778.5801104972375"/>
  <unicode hex="00C6"/>
  <anchor x="843.7071823204419" y="0.0" name="bottom"/>
  <anchor x="999.8950276243094" y="1486.0" name="top"/>
  <outline>
    <contour>
      <point x="707.6906077348066" y="75.68508287292818" type="line"/>
      <point x="571.9281767955802" y="37.447513812154696" type="line"/>
      <point x="571.9281767955802" y="0.0" type="line"/>
      <point x="1700.292817679558" y="0.0" type="line"/>
      <point x="1773.8729281767955" y="383.3204419889503" type="line"/>
      <point x="1636.9447513812154" y="410.76795580110496" type="line"/>
      <point x="1494.7845303867402" y="99.12154696132598" type="line"/>
      <point x="1026.8121546961327" y="56.23756906077348" type="line"/>
      <point x="1026.8121546961327" y="735.7237569060774" type="line"/>
      <point x="1327.9337016574586" y="727.0662983425415" type="line"/>
      <point x="1389.988950276243" y="513.0497237569061" type="line"/>
      <point x="1434.5801104972377" y="513.0497237569061" type="line"/>
      <point x="1434.5801104972377" y="998.4751381215469" type="line"/>
      <point x="1389.2651933701657" y="998.4751381215469" type="line"/>
      <point x="1328.657458563536" y="797.8674033149172" type="line"/>
      <point x="1026.8121546961327" y="789.3812154696133" type="line"/>
      <point x="1026.8121546961327" y="1428.9337016574586" type="line"/>
      <point x="1454.486187845304" y="1406.0773480662983" type="line"/>
      <point x="1567.8176795580112" y="1134.8232044198894" type="line"/>
      <point x="1680.1381215469614" y="1134.8232044198894" type="line"/>
      <point x="1649.6906077348067" y="1486.0" type="line"/>
      <point x="332.4806629834254" y="1486.0" type="line"/>
      <point x="332.4806629834254" y="1450.0" type="line"/>
      <point x="561.0110497237569" y="1380.878453038674" type="line"/>
      <point x="9.646408839779014" y="110.11049723756906" type="line"/>
      <point x="-131.58011049723757" y="37.447513812154696" type="line"/>
      <point x="-131.58011049723757" y="0.0" type="line"/>
      <point x="257.1160220994475" y="0.0" type="line"/>
      <point x="256.83977900552486" y="37.447513812154696" type="line"/>
      <point x="104.24861878453038" y="107.04419889502762" type="line"/>
      <point x="250.08839779005524" y="452.6795580110497" type="line"/>
      <point x="707.6906077348066" y="452.6795580110497" type="line"/>
    </contour>
    <contour>
      <point x="707.9668508287293" y="518.3370165745856" type="line"/>
      <point x="278.8121546961326" y="518.3370165745856" type="line"/>
      <point x="548.6574585635359" y="1175.254143646409" type="line"/>
      <point x="655.4861878453039" y="1418.0773480662983" type="line"/>
      <point x="707.9668508287293" y="1418.0773480662983" type="line"/>
    </contour>
  </outline>
</glyph>
<glyph name="Eth" format="2">
  <advance width="1410.1767955801106"/>
  <unicode hex="00D0"/>
  <anchor x="709.2375690607735" y="0.0" name="bottom"/>
  <anchor x="779.7348066298342" y="764.0" name="center"/>
  <anchor x="312.20441988950273" y="763.0" name="lstem"/>
  <anchor x="709.2375690607735" y="1486.0" name="top"/>
  <outline>
    <contour>
      <point x="710.0883977900552" y="802.0" type="line"/>
      <point x="33.38121546961327" y="802.0" type="line"/>
      <point x="33.38121546961327" y="732.0" type="line"/>
      <point x="710.0883977900552" y="732.0" type="line"/>
    </contour>
    <component base="D"/>
  </outline>
</glyph>
<glyph name="multiply" format="2">
  <advance width="1125.8397790055249"/>
  <unicode hex="00D7"/>
  <outline>
    <contour>
      <point x="506.41988950276243" y="675.0" type="line"/>
      <point x="158.41988950276243" y="307.0" type="line"/>
      <point x="214.41988950276243" y="245.0" type="line"/>
      <point x="559.4198895027624" y="619.0" type="line"/>
      <point x="905.4198895027624" y="245.0" type="line"/>
      <point x="967.4198895027624" y="307.0" type="line"/>
      <point x="619.4198895027624" y="673.0" type="line"/>
      <point x="967.4198895027624" y="1041.0" type="line"/>
      <point x="905.4198895027624" y="1103.0" type="line"/>
      <point x="562.4198895027624" y="732.0" type="line"/>
      <point x="214.41988950276243" y="1103.0" type="line"/>
      <point x="158.41988950276243" y="1041.0" type="line"/>
    </contour>
  </outline>
</glyph>
<glyph name="Thorn" format="2">
  <advance width="1255.8508287292818"/>
  <unicode hex="00DE"/>
  <outline>
    <contour>
      <point x="154.48618784530387" y="71.34254143646409" type="line"/>
      <point x="22.972375690607734" y="37.0" type="line"/>
      <point x="22.972375690607734" y="0.0" type="line"/>
      <point x="618.292817679558" y="0.0" type="line"/>
      <point x="618.292817679558" y="37.72375690607735" type="line"/>
      <point x="471.88397790055245" y="69.89502762430939" type="line"/>
      <point x="471.88397790055245" y="342.9889502762431" type="line"/>
      <point x="500.9226519337016" y="337.6077348066298"/>
      <point x="562.0220994475138" y="332.7790055248619"/>
      <point x="677.292817679558" y="332.7790055248619" type="curve" smooth="yes"/>
      <point x="1019.1270718232043" y="332.7790055248619"/>
      <point x="1195.5469613259668" y="512.5414364640884"/>
      <point x="1195.5469613259668" y="770.2099447513813" type="curve" smooth="yes"/>
      <point x="1195.5469613259668" y="1033.4088397790056"/>
      <point x="1033.9668508287293" y="1163.1160220994475"/>
      <point x="713.4254143646408" y="1163.1160220994475" type="curve" smooth="yes"/>
      <point x="658.9171270718232" y="1163.1160220994475"/>
      <point x="511.75138121546956" y="1149.8397790055249"/>
      <point x="471.88397790055245" y="1146.9447513812154" type="curve"/>
      <point x="471.88397790055245" y="1414.2099447513813" type="line"/>
      <point x="618.5690607734806" y="1450.0" type="line"/>
      <point x="618.5690607734806" y="1486.7237569060774" type="line"/>
      <point x="23.972375690607734" y="1486.7237569060774" type="line"/>
      <point x="23.972375690607734" y="1450.0" type="line"/>
      <point x="154.48618784530387" y="1414.2099447513813" type="line"/>
    </contour>
    <contour>
      <point x="605.3259668508286" y="387.46408839779" type="curve" smooth="yes"/>
      <point x="553.4585635359116" y="387.46408839779"/>
      <point x="492.48618784530385" y="393.7790055248619"/>
      <point x="471.88397790055245" y="405.3314917127072" type="curve"/>
      <point x="471.88397790055245" y="1084.1823204419888" type="line"/>
      <point x="507.58011049723757" y="1093.3259668508288"/>
      <point x="553.4696132596684" y="1102.2596685082874"/>
      <point x="610.7845303867404" y="1102.2596685082874" type="curve" smooth="yes"/>
      <point x="793.5966850828729" y="1102.2596685082874"/>
      <point x="857.292817679558" y="968.6408839779006"/>
      <point x="857.292817679558" y="761.5248618784531" type="curve" smooth="yes"/>
      <point x="857.292817679558" y="542.5690607734806"/>
      <point x="763.6243093922652" y="387.46408839779"/>
    </contour>
  </outline>
</glyph>
<glyph name="germandbls" format="2">
  <advance width="1079.9723756906078"/>
  <unicode hex="00DF"/>
  <outline>
    <contour>
      <point x="109.69613259668509" y="73.48618784530387" type="line"/>
      <point x="0.0" y="39.93370165745857" type="line"/>
      <point x="0.0" y="2.209944751381217" type="line"/>
      <point x="384.7624309392265" y="2.209944751381217" type="line"/>
      <point x="384.7624309392265" y="1000.3646408839779" type="line" smooth="yes"/>
      <point x="384.7624309392265" y="1309.7900552486187"/>
      <point x="443.7624309392265" y="1492.1049723756905"/>
      <point x="600.0994475138122" y="1492.1049723756905" type="curve" smooth="yes"/>
      <point x="678.3093922651933" y="1492.1049723756905"/>
      <point x="724.2651933701658" y="1418.0"/>
      <point x="724.2651933701658" y="1301.46408839779" type="curve" smooth="yes"/>
      <point x="724.2651933701658" y="986.1160220994475"/>
      <point x="531.292817679558" y="945.5580110497237"/>
      <point x="531.292817679558" y="807.6077348066299" type="curve" smooth="yes"/>
      <point x="531.292817679558" y="650.3480662983425"/>
      <point x="789.3149171270718" y="593.2044198895028"/>
      <point x="789.3149171270718" y="295.58011049723757" type="curve" smooth="yes"/>
      <point x="789.3149171270718" y="147.55248618784532"/>
      <point x="739.9613259668508" y="43.0"/>
      <point x="603.2154696132596" y="43.0" type="curve" smooth="yes"/>
      <point x="536.6906077348066" y="43.0"/>
      <point x="507.8508287292818" y="64.97237569060773"/>
      <point x="473.08839779005524" y="83.45856353591161" type="curve"/>
      <point x="473.08839779005524" y="2.209944751381217" type="line"/>
      <point x="499.4696132596685" y="-8.513812154696131"/>
      <point x="567.6022099447514" y="-19.790055248618785"/>
      <point x="652.8397790055249" y="-19.790055248618785" type="curve" smooth="yes"/>
      <point x="881.0939226519337" y="-19.790055248618785"/>
      <point x="1076.1049723756905" y="134.34806629834253"/>
      <point x="1076.1049723756905" y="354.6353591160221" type="curve" smooth="yes"/>
      <point x="1076.1049723756905" y="686.2044198895028"/>
      <point x="728.1325966850828" y="787.1657458563536"/>
      <point x="728.1325966850828" y="900.6906077348066" type="curve" smooth="yes"/>
      <point x="728.1325966850828" y="1009.0718232044198"/>
      <point x="982.2375690607735" y="1074.8839779005525"/>
      <point x="982.2375690607735" y="1312.8176795580112" type="curve" smooth="yes"/>
      <point x="982.2375690607735" y="1449.0386740331492"/>
      <point x="850.1602209944751" y="1546.513812154696"/>
      <point x="649.878453038674" y="1546.513812154696" type="curve" smooth="yes"/>
      <point x="311.9779005524862" y="1546.513812154696"/>
      <point x="109.69613259668509" y="1316.7734806629835"/>
      <point x="109.69613259668509" y="937.4309392265193" type="curve" smooth="yes"/>
    </contour>
  </outline>
</glyph>
